<svg width="400" height="288" xmlns="http://www.w3.org/2000/svg" xmlns:xlink="http://www.w3.org/1999/xlink" xml:space="preserve" overflow="hidden"><g transform="translate(-85 4)"><path d="M48.7375 148.898C48.7375 148.898 50.2067 149.404 52.9932 150.164 55.7796 150.924 59.934 151.988 65.2029 153.103 67.8373 153.66 70.7758 154.268 74.0182 154.825 75.6394 155.129 77.3113 155.433 79.0338 155.686 80.7563 155.99 82.5802 156.294 84.404 156.598 91.8514 157.764 100.261 158.777 109.482 159.79 118.703 160.753 128.683 161.462 139.272 162.121 149.86 162.678 161.057 163.134 172.608 163.286 174.077 163.286 175.496 163.336 176.965 163.387 177.674 163.387 178.434 163.438 179.143 163.438 179.853 163.438 180.612 163.438 181.322 163.438 184.26 163.438 187.199 163.438 190.188 163.438 191.657 163.438 193.177 163.438 194.646 163.438 196.166 163.438 197.635 163.387 199.155 163.387 202.144 163.336 205.184 163.286 208.224 163.235 214.303 163.083 220.433 162.881 226.564 162.729 232.694 162.475 238.875 162.171 245.055 161.918 251.236 161.563 257.366 161.209 263.547 160.854 269.677 160.398 275.808 159.993 281.887 159.537 287.967 159.03 293.945 158.524 299.923 158.068 305.851 157.51 311.727 156.953 317.503 156.396 318.922 156.244 320.391 156.142 321.809 155.99 323.228 155.838 324.646 155.686 326.065 155.534 328.902 155.23 331.689 154.926 334.475 154.623 337.262 154.319 339.997 154.065 342.733 153.761 345.469 153.457 348.103 153.153 350.738 152.849 356.007 152.241 361.174 151.684 366.139 151.076 371.104 150.468 375.917 149.86 380.527 149.303 385.138 148.695 389.545 148.239 393.75 147.682 397.955 147.124 401.958 146.618 405.656 146.111 409.405 145.605 412.901 145.149 416.143 144.743 419.386 144.287 422.375 143.882 425.06 143.527 430.43 142.767 434.686 142.261 437.574 141.856 440.461 141.501 441.981 141.298 441.981 141.298 441.981 141.298 440.461 141.653 437.624 142.362 434.787 143.021 430.633 144.034 425.364 145.199 422.729 145.807 419.791 146.466 416.599 147.175 413.408 147.834 409.912 148.543 406.213 149.303 402.515 150.063 398.563 150.873 394.409 151.684 393.345 151.887 392.332 152.089 391.268 152.292 390.204 152.495 389.089 152.697 388.026 152.9 385.847 153.305 383.567 153.711 381.287 154.116 376.677 154.926 371.915 155.838 366.95 156.649 361.985 157.409 356.868 158.22 351.599 159.081 348.965 159.486 346.279 159.942 343.594 160.297 340.859 160.651 338.123 161.057 335.336 161.411 332.55 161.766 329.763 162.171 326.926 162.526 325.508 162.729 324.089 162.931 322.671 163.083 321.252 163.235 319.783 163.438 318.364 163.59 312.589 164.248 306.712 164.958 300.734 165.616 294.755 166.174 288.727 166.731 282.596 167.339 276.466 167.795 270.336 168.251 264.155 168.707 262.635 168.859 261.065 168.909 259.494 169.011 257.924 169.112 256.404 169.163 254.833 169.264 251.743 169.416 248.602 169.619 245.511 169.771 239.28 170.075 233.099 170.227 226.867 170.48 223.777 170.531 220.687 170.581 217.596 170.632 214.506 170.683 211.415 170.733 208.376 170.733 205.336 170.733 202.245 170.733 199.206 170.683 197.686 170.683 196.166 170.683 194.646 170.683 193.126 170.683 191.606 170.632 190.137 170.581 187.148 170.531 184.159 170.429 181.17 170.379 180.41 170.379 179.701 170.328 178.941 170.328 178.181 170.277 177.471 170.277 176.711 170.227 175.242 170.176 173.773 170.125 172.304 170.024 160.651 169.568 149.354 168.707 138.714 167.744 133.395 167.187 128.227 166.68 123.212 166.022 120.729 165.667 118.247 165.414 115.866 165.059 113.484 164.704 111.103 164.35 108.773 164.046 106.442 163.691 104.213 163.286 101.984 162.931 100.869 162.729 99.8055 162.577 98.7416 162.374 97.6777 162.171 96.6137 161.969 95.5498 161.766 93.4727 161.361 91.3955 161.006 89.4703 160.601 87.4945 160.195 85.5693 159.79 83.7454 159.385 80.047 158.574 76.602 157.764 73.4102 156.902 70.2185 156.092 67.3307 155.281 64.6962 154.521 59.478 153.001 55.425 151.532 52.6892 150.57 50.1054 149.556 48.7375 148.898 48.7375 148.898Z" fill="#34323A" transform="matrix(1.00113 0 0 1 36.4067 -109.885)"/><path d="M-225.564-8.01484C-225.564-8.01484-225.26-55.8404-218.117-62.9838-210.973-70.1273-203.12-67.9488-201.094-65.9223-199.067-63.8958-193.545-58.5762-193.545-58.5762-193.545-58.5762-200.689-61.16-204.083-57.7656-207.477-54.3712-212.848-5.63369-212.848-5.63369L-225.564-8.01484Z" fill="#FF2727" transform="matrix(1.00113 0 0 1 402.263 108.785)"/><path d="M-225.564-8.01484C-225.564-8.01484-225.26-55.8404-218.117-62.9838-210.973-70.1273-203.12-67.9488-201.094-65.9223-199.067-63.8958-193.545-58.5762-193.545-58.5762-193.545-58.5762-200.689-61.16-204.083-57.7656-207.477-54.3712-212.848-5.63369-212.848-5.63369L-225.564-8.01484Z" stroke="#34323A" stroke-width="5.06627" stroke-linecap="round" stroke-linejoin="round" stroke-miterlimit="10" fill="none" transform="matrix(1.00113 0 0 1 402.263 108.785)"/><path d="M99.5015 256.151 109.381 288.321C113.839 302.811 109.837 318.567 99.0455 329.257L86.4812 341.669C78.3245 349.725 75.5381 361.782 79.3884 372.573L79.6417 373.232C86.0252 391.268 107.05 399.222 123.718 389.951L172.709 362.694C189.478 353.372 196.622 333.006 189.377 315.223 189.377 315.223 172.912 277.277 167.744 264.459 164.299 256.049 152.343 231.478 152.343 231.478L99.5015 256.151Z" fill="#FF2727" transform="matrix(1.00113 0 0 1 36.4067 -109.885)"/><path d="M189.377 315.223C189.377 315.223 172.912 277.277 167.744 264.459 164.299 256.049 152.343 231.478 152.343 231.478L138.917 237.76C142.16 244.599 145.655 252.098 147.226 256.049 152.444 268.816 168.859 306.813 168.859 306.813 176.104 324.596 168.96 344.962 152.191 354.284L103.2 381.541C98.1843 384.327 92.814 385.543 87.5451 385.442 96.9684 394.308 111.509 396.79 123.668 390.001L172.658 362.745C189.478 353.372 196.622 333.006 189.377 315.223Z" fill="#C92020" transform="matrix(1.00113 0 0 1 36.4067 -109.885)"/><path d="M132.686 258.633C134.205 253.871 138.157 254.377 141.754 254.377 145.706 255.137 148.087 252.908 150.114 250.476 153.407 250.78 155.382 248.956 157.004 247.285 157.814 246.727 158.828 246.879 159.739 246.93 155.94 238.875 152.343 231.478 152.343 231.478L99.5015 256.151 103.96 270.741C104.872 269.931 107.557 272.312 108.367 269.981 111.053 270.539 110.749 263.851 115.258 266.79 119.311 268.715 119.513 261.774 123.617 262.889 125.086 258.38 130.355 261.673 132.686 258.633Z" fill="#C92020" transform="matrix(1.00113 0 0 1 36.4067 -109.885)"/><path d="M99.5015 256.151 109.381 288.321C113.839 302.811 109.837 318.567 99.0455 329.257L86.4812 341.669C78.3245 349.725 75.5381 361.782 79.3884 372.573L79.6417 373.232C86.0252 391.268 107.05 399.222 123.718 389.951L172.709 362.694C189.478 353.372 196.622 333.006 189.377 315.223 189.377 315.223 172.912 277.277 167.744 264.459 164.299 256.049 152.343 231.478 152.343 231.478L99.5015 256.151Z" stroke="#34323A" stroke-width="6.07952" stroke-linecap="round" stroke-linejoin="round" stroke-miterlimit="10" fill="none" transform="matrix(1.00113 0 0 1 36.4067 -109.885)"/><path d="M161.563 236.595C161.614 236.696 159.841 234.518 159.841 237.405 160.043 240.749 156.953 238.267 155.18 239.584 153.559 241.256 151.583 243.08 148.29 242.776 146.263 245.207 143.882 247.437 139.93 246.677 136.333 246.626 132.382 246.17 130.862 250.932 128.531 253.972 123.262 250.679 121.793 255.188 117.689 254.073 117.487 261.014 113.434 259.089 108.925 256.151 109.229 262.889 106.544 262.281 105.53 265.219 101.477 260.71 101.883 264.459 101.68 266.942 99.1975 263.142 100.16 265.27 98.5896 265.472 98.6402 269.07 95.9045 266.131 94.6886 266.486 93.6753 266.688 92.0541 264.966 91.6995 265.118 91.3955 265.118 91.0408 264.763 90.6355 264.358 90.1796 263.547 89.4196 262.027 88.5077 260.052 88.1531 259.241 88.0011 258.988 86.2279 255.239 86.7852 256.353 86.4305 255.593 86.5825 255.897 86.3292 255.391 84.9107 252.3 85.7719 254.124 84.252 250.932 84.404 251.236 83.7454 249.818 82.7322 247.69 81.7696 245.613 81.7189 245.511 81.111 244.194 80.351 242.573 80.3004 242.421 78.8818 239.179 79.2871 239.634 79.9964 240.749 78.8818 237.659 79.7431 238.672 80.7057 239.837 80.655 238.672 80.5537 237.304 80.6043 236.291 80.8577 235.379 81.3136 234.974 81.0603 231.528 83.5934 233.504 84.708 232.288 84.708 232.288 85.0626 231.427 86.4305 231.478 86.9878 229.806 89.217 230.363 91.0915 229.299 93.2193 228.793 94.9925 226.513 97.9816 226.108 99.8055 223.27 103.352 223.473 106.341 222.207 108.975 220.129 112.117 218.863 115.41 217.951 118.348 216.178 121.641 215.316 124.478 213.695 127.771 213.087 130.76 212.125 132.838 209.794 134.56 206.704 136.941 205.792 139.728 206.602 142.565 207.514 142.919 204.171 144.389 204.424 146.061 205.083 145.807 202.955 146.111 203.613 148.087 204.171 150.57 206.146 150.367 202.752 151.684 202.701 153.711 204.576 154.217 203.917 155.636 205.235 155.788 204.576 156.852 206.856 156.75 206.602 155.889 204.829 158.27 209.895 159.435 212.378 159.03 211.517 161.411 216.583 160.803 215.316 164.248 222.713 164.552 223.27 166.782 228.033 166.022 226.361 165.971 226.31 166.072 226.564 167.086 229.705 166.528 230.211 167.136 233.251 165.819 232.846 164.958 233.91 164.096 235.075 162.982 236.037 161.563 236.595Z" fill="#FFFFFF" transform="matrix(1.00113 0 0 1 36.4067 -109.885)"/><path d="M166.022 226.462C166.022 226.513 166.022 226.513 166.072 226.513 166.022 226.513 166.022 226.462 166.022 226.462Z" fill="#D6D6D6" transform="matrix(1.00113 0 0 1 36.4067 -109.885)"/><path d="M137.245 216.431C137.245 216.482 137.296 216.482 137.296 216.532 137.296 216.482 137.296 216.431 137.245 216.431 137.245 216.431 137.245 216.431 137.245 216.431 137.245 216.431 137.245 216.431 137.245 216.431Z" fill="#D6D6D6" transform="matrix(1.00113 0 0 1 36.4067 -109.885)"/><path d="M166.022 226.513C166.072 226.513 166.072 226.564 166.022 226.513 166.072 226.564 166.072 226.513 166.022 226.513Z" fill="#D6D6D6" transform="matrix(1.00113 0 0 1 36.4067 -109.885)"/><path d="M161.361 216.532C161.361 216.482 161.31 216.431 161.31 216.431 161.31 216.431 161.31 216.431 161.31 216.431 161.361 216.482 161.361 216.482 161.361 216.532Z" fill="#D6D6D6" transform="matrix(1.00113 0 0 1 36.4067 -109.885)"/><path d="M156.7 206.45C156.7 206.45 156.7 206.4 156.7 206.4 156.649 206.4 156.7 206.45 156.7 206.45Z" fill="#D6D6D6" transform="matrix(1.00113 0 0 1 36.4067 -109.885)"/><path d="M156.801 206.704C156.75 206.602 156.7 206.501 156.649 206.45 156.75 206.552 156.801 206.653 156.801 206.704Z" fill="#D6D6D6" transform="matrix(1.00113 0 0 1 36.4067 -109.885)"/><path d="M156.649 206.4C156.598 206.197 156.598 206.248 156.649 206.4L156.649 206.4Z" fill="#D6D6D6" transform="matrix(1.00113 0 0 1 36.4067 -109.885)"/><path d="M165.92 226.26C165.92 226.26 165.971 226.361 166.022 226.462 165.87 226.158 165.464 225.297 164.502 223.22 164.248 222.713 161.614 217.09 161.361 216.431 161.361 216.431 161.361 216.431 161.361 216.431 161.361 216.431 161.361 216.431 161.361 216.431 161.361 216.431 161.361 216.431 161.361 216.431 159.03 211.466 159.435 212.327 158.321 209.845 157.51 208.173 157.105 207.21 156.852 206.754 156.852 206.754 156.852 206.805 156.902 206.805 155.838 204.475 155.686 205.184 154.268 203.867 153.761 204.475 151.735 202.651 150.418 202.701 150.62 206.096 148.138 204.12 146.162 203.563 145.858 202.904 146.111 205.032 144.439 204.373 142.97 204.12 142.565 207.464 139.778 206.552 137.397 205.842 135.269 206.45 133.648 208.629 133.8 208.984 134.003 209.44 134.256 209.895 135.421 212.378 135.016 211.517 137.296 216.482 137.296 216.482 137.296 216.482 137.296 216.482 137.296 216.482 137.296 216.482 137.296 216.482 137.6 217.09 140.234 222.764 140.437 223.27 141.4 225.348 141.805 226.209 141.957 226.513 141.957 226.564 141.957 226.564 142.007 226.564 142.007 226.564 142.007 226.564 142.007 226.614 142.007 226.614 142.007 226.614 142.007 226.665 142.007 226.665 142.007 226.665 142.007 226.665 142.007 226.665 142.007 226.665 142.007 226.665 142.007 226.665 142.007 226.665 142.007 226.665 142.007 226.665 142.007 226.665 142.007 226.614 142.007 226.614 142.007 226.614 142.007 226.564 142.007 226.564 142.007 226.513 141.957 226.513 141.906 226.412 141.856 226.31 141.856 226.31 141.957 226.564 142.97 229.705 142.413 230.211 143.021 233.251 141.704 232.846 140.842 233.91 140.032 235.075 138.917 236.088 137.448 236.595 137.499 236.696 135.725 234.518 135.725 237.405 135.928 240.749 132.838 238.267 131.064 239.584 129.443 241.256 127.467 243.08 124.174 242.776 122.148 245.207 119.767 247.437 115.815 246.677 112.218 246.626 108.266 246.17 106.746 250.932 104.416 253.972 99.1469 250.679 97.6777 255.188 93.574 254.073 93.3713 261.014 89.3183 259.089 88.7104 258.684 88.2037 258.481 87.7478 258.38 87.8491 258.532 87.8998 258.734 88.0011 258.937 88.1531 259.19 88.5077 260.001 89.4196 261.977 90.1289 263.497 90.6355 264.307 91.0408 264.713 91.4461 265.118 91.7501 265.067 92.0541 264.915 93.6753 266.638 94.6886 266.435 95.9045 266.08 98.6402 269.019 98.5389 265.422 100.16 265.219 99.1975 263.091 101.68 266.891 101.883 264.409 101.477 260.66 105.53 265.168 106.544 262.23 109.229 262.787 108.925 256.1 113.434 259.038 117.487 260.963 117.689 254.023 121.793 255.137 123.262 250.628 128.531 253.921 130.862 250.882 132.382 246.119 136.333 246.626 139.93 246.626 143.882 247.386 146.263 245.157 148.29 242.725 151.583 243.029 153.559 241.205 155.18 239.533 156.953 238.216 160.043 240.698 159.841 237.355 159.841 234.467 161.614 236.645 161.563 236.544 162.982 235.987 164.147 235.024 164.958 233.859 165.819 232.795 167.136 233.2 166.528 230.161 167.086 229.654 166.022 226.513 165.92 226.26Z" fill="#D6D6D6" transform="matrix(1.00113 0 0 1 36.4067 -109.885)"/><path d="M161.563 236.595C161.614 236.696 159.841 234.518 159.841 237.405 160.043 240.749 156.953 238.267 155.18 239.584 153.559 241.256 151.583 243.08 148.29 242.776 146.263 245.207 143.882 247.437 139.93 246.677 136.333 246.626 132.382 246.17 130.862 250.932 128.531 253.972 123.262 250.679 121.793 255.188 117.689 254.073 117.487 261.014 113.434 259.089 108.925 256.151 109.229 262.889 106.544 262.281 105.53 265.219 101.477 260.71 101.883 264.459 101.68 266.942 99.1975 263.142 100.16 265.27 98.5896 265.472 98.6402 269.07 95.9045 266.131 94.6886 266.486 93.6753 266.688 92.0541 264.966 91.6995 265.118 91.3955 265.118 91.0408 264.763 90.6355 264.358 90.1796 263.547 89.4196 262.027 88.5077 260.052 88.1531 259.241 88.0011 258.988 86.2279 255.239 86.7852 256.353 86.4305 255.593 86.5825 255.897 86.3292 255.391 84.9107 252.3 85.7719 254.124 84.252 250.932 84.404 251.236 83.7454 249.818 82.7322 247.69 81.7696 245.613 81.7189 245.511 81.111 244.194 80.351 242.573 80.3004 242.421 78.8818 239.179 79.2871 239.634 79.9964 240.749 78.8818 237.659 79.7431 238.672 80.7057 239.837 80.655 238.672 80.5537 237.304 80.6043 236.291 80.8577 235.379 81.3136 234.974 81.0603 231.528 83.5934 233.504 84.708 232.288 84.708 232.288 85.0626 231.427 86.4305 231.478 86.9878 229.806 89.217 230.363 91.0915 229.299 93.2193 228.793 94.9925 226.513 97.9816 226.108 99.8055 223.27 103.352 223.473 106.341 222.207 108.975 220.129 112.117 218.863 115.41 217.951 118.348 216.178 121.641 215.316 124.478 213.695 127.771 213.087 130.76 212.125 132.838 209.794 134.56 206.704 136.941 205.792 139.728 206.602 142.565 207.514 142.919 204.171 144.389 204.424 146.061 205.083 145.807 202.955 146.111 203.613 148.087 204.171 150.57 206.146 150.367 202.752 151.684 202.701 153.711 204.576 154.217 203.917 155.636 205.235 155.788 204.576 156.852 206.856 156.75 206.602 155.889 204.829 158.27 209.895 159.435 212.378 159.03 211.517 161.411 216.583 160.803 215.316 164.248 222.713 164.552 223.27 166.782 228.033 166.022 226.361 165.971 226.31 166.072 226.564 167.086 229.705 166.528 230.211 167.136 233.251 165.819 232.846 164.958 233.91 164.096 235.075 162.982 236.037 161.563 236.595Z" stroke="#34323A" stroke-width="5.06627" stroke-linecap="round" stroke-linejoin="round" stroke-miterlimit="10" fill="none" transform="matrix(1.00113 0 0 1 36.4067 -109.885)"/><path d="M139.373 299.72 150.721 308.84 164.704 304.635 159.537 318.263 167.845 330.219 153.255 329.51 144.439 341.112 140.64 327.078 126.859 322.265 139.018 314.261Z" fill="#FFFFFF" transform="matrix(1.00113 0 0 1 36.4067 -109.885)"/><path d="M139.373 299.72 150.721 308.84 164.704 304.635 159.537 318.263 167.845 330.219 153.255 329.51 144.439 341.112 140.64 327.078 126.859 322.265 139.018 314.261Z" stroke="#FFFFFF" stroke-width="5.06627" stroke-linecap="round" stroke-linejoin="round" stroke-miterlimit="10" fill="none" transform="matrix(1.00113 0 0 1 36.4067 -109.885)"/><path d="M130.912 307.674C130.912 309.549 129.393 311.069 127.518 311.069 125.643 311.069 124.124 309.549 124.124 307.674 124.124 305.8 125.643 304.28 127.518 304.28 129.393 304.28 130.912 305.8 130.912 307.674Z" fill="#FFFFFF" transform="matrix(1.00113 0 0 1 36.4067 -109.885)"/><path d="M135.371 336.755C135.371 338.63 133.851 340.149 131.976 340.149 130.102 340.149 128.582 338.63 128.582 336.755 128.582 334.88 130.102 333.36 131.976 333.36 133.851 333.36 135.371 334.88 135.371 336.755Z" fill="#FFFFFF" transform="matrix(1.00113 0 0 1 36.4067 -109.885)"/><path d="M162.678 339.997C162.678 341.872 161.158 343.392 159.283 343.392 157.409 343.392 155.889 341.872 155.889 339.997 155.889 338.123 157.409 336.603 159.283 336.603 161.158 336.603 162.678 338.123 162.678 339.997Z" fill="#FFFFFF" transform="matrix(1.00113 0 0 1 36.4067 -109.885)"/><path d="M175.293 312.589C175.293 314.463 173.773 315.983 171.898 315.983 170.024 315.983 168.504 314.463 168.504 312.589 168.504 310.714 170.024 309.194 171.898 309.194 173.773 309.194 175.293 310.714 175.293 312.589Z" fill="#FFFFFF" transform="matrix(1.00113 0 0 1 36.4067 -109.885)"/><path d="M155.99 296.63C155.99 298.505 154.471 300.024 152.596 300.024 150.721 300.024 149.202 298.505 149.202 296.63 149.202 294.755 150.721 293.236 152.596 293.236 154.471 293.236 155.99 294.755 155.99 296.63Z" fill="#FFFFFF" transform="matrix(1.00113 0 0 1 36.4067 -109.885)"/><path d="M88.609 359.705C88.609 361.216 87.3842 362.441 85.8733 362.441 84.3623 362.441 83.1375 361.216 83.1375 359.705 83.1375 358.194 84.3623 356.969 85.8733 356.969 87.3842 356.969 88.609 358.194 88.609 359.705Z" fill="#FFFFFF" transform="matrix(1.00113 0 0 1 36.4067 -109.885)"/><path d="M119.969 382.149C119.969 383.66 118.744 384.884 117.233 384.884 115.723 384.884 114.498 383.66 114.498 382.149 114.498 380.638 115.723 379.413 117.233 379.413 118.744 379.413 119.969 380.638 119.969 382.149Z" fill="#FFFFFF" transform="matrix(1.00113 0 0 1 36.4067 -109.885)"/><path d="M126.809 378.146C126.809 379.293 125.879 380.223 124.732 380.223 123.584 380.223 122.654 379.293 122.654 378.146 122.654 376.999 123.584 376.069 124.732 376.069 125.879 376.069 126.809 376.999 126.809 378.146Z" fill="#FFFFFF" transform="matrix(1.00113 0 0 1 36.4067 -109.885)"/><path d="M91.2942 370.04C91.2942 372.083 89.6383 373.739 87.5958 373.739 85.5532 373.739 83.8974 372.083 83.8974 370.04 83.8974 367.998 85.5532 366.342 87.5958 366.342 89.6383 366.342 91.2942 367.998 91.2942 370.04Z" fill="#FFFFFF" transform="matrix(1.00113 0 0 1 36.4067 -109.885)"/><path d="M110.597 383.111C110.597 385.154 108.941 386.81 106.898 386.81 104.856 386.81 103.2 385.154 103.2 383.111 103.2 381.069 104.856 379.413 106.898 379.413 108.941 379.413 110.597 381.069 110.597 383.111Z" fill="#FFFFFF" transform="matrix(1.00113 0 0 1 36.4067 -109.885)"/><path d="M100.667 378.4C100.667 380.974 98.58 383.061 96.0058 383.061 93.4316 383.061 91.3448 380.974 91.3448 378.4 91.3448 375.825 93.4316 373.739 96.0058 373.739 98.58 373.739 100.667 375.825 100.667 378.4Z" fill="#FFFFFF" transform="matrix(1.00113 0 0 1 36.4067 -109.885)"/><path d="M102.237 242.472 104.112 243.181C106.189 243.991 107.557 243.333 107.304 239.584" stroke="#34323A" stroke-width="3.03976" stroke-linecap="round" stroke-linejoin="round" stroke-miterlimit="10" fill="none" transform="matrix(1.00113 0 0 1 36.4067 -109.885)"/><path d="M127.366 236.139C129.443 236.949 131.267 239.027 131.723 235.126L131.926 234.416C131.926 234.416 131.774 231.528 135.979 234.416" stroke="#34323A" stroke-width="3.03976" stroke-linecap="round" stroke-linejoin="round" stroke-miterlimit="10" fill="none" transform="matrix(1.00113 0 0 1 36.4067 -109.885)"/><path d="M254.073 212.581C252.503 214.708 249.463 215.114 247.335 213.493 245.157 211.821 243.029 210.149 240.85 208.528 229.198 199.459 212.935 203.309 204.272 215.62L204.272 215.62C195.609 227.931 197.635 242.725 209.136 251.287 222.055 260.862 235.126 271.501 248.196 281.938 255.543 287.865 266.03 286.447 271.501 278.746 281.279 265.168 291.057 251.439 300.936 238.723 309.701 227.374 307.674 212.581 296.073 203.056L296.073 203.056C284.42 193.481 267.702 194.19 258.937 206.045 257.316 208.224 255.695 210.402 254.073 212.581Z" fill="#FF2727" transform="matrix(1.00113 0 0 1 36.4067 -109.885)"/><path d="M296.073 203.056 296.073 203.056C285.94 194.747 271.957 194.139 262.686 201.992 265.016 206.856 266.688 212.277 267.448 218.002 270.944 243.586 256.151 266.84 234.214 270.741 238.875 274.44 243.536 278.189 248.196 281.887 255.543 287.815 266.03 286.396 271.501 278.695 281.279 265.118 291.057 251.388 300.936 238.672 309.752 227.425 307.725 212.581 296.073 203.056Z" fill="#C92020" transform="matrix(1.00113 0 0 1 36.4067 -109.885)"/><path d="M299.315 210.655C299.315 211.971 298.249 213.037 296.934 213.037 295.619 213.037 294.553 211.971 294.553 210.655 294.553 209.34 295.619 208.274 296.934 208.274 298.249 208.274 299.315 209.34 299.315 210.655Z" stroke="#FFFFFF" stroke-width="3.54639" stroke-linecap="round" stroke-linejoin="round" stroke-miterlimit="10" fill="none" transform="matrix(1.00113 0 0 1 36.4067 -109.885)"/><path d="M297.39 231.934C297.39 233.249 296.324 234.315 295.009 234.315 293.694 234.315 292.628 233.249 292.628 231.934 292.628 230.619 293.694 229.553 295.009 229.553 296.324 229.553 297.39 230.619 297.39 231.934Z" fill="#FFFFFF" transform="matrix(1.00113 0 0 1 36.4067 -109.885)"/><path d="M239.685 220.889 247.386 247.639" stroke="#FFFFFF" stroke-width="3.03976" stroke-linecap="round" stroke-linejoin="round" stroke-miterlimit="10" fill="none" transform="matrix(1.00113 0 0 1 36.4067 -109.885)"/><path d="M247.335 221.7 242.32 230.769 233.251 225.753" stroke="#FFFFFF" stroke-width="3.03976" stroke-linecap="round" stroke-linejoin="round" stroke-miterlimit="10" fill="none" transform="matrix(1.00113 0 0 1 36.4067 -109.885)"/><path d="M254.935 274.034 247.386 247.639" stroke="#FFFFFF" stroke-width="3.03976" stroke-linecap="round" stroke-linejoin="round" stroke-miterlimit="10" fill="none" transform="matrix(1.00113 0 0 1 36.4067 -109.885)"/><path d="M260.963 269.272 251.895 264.206 246.879 273.275" stroke="#FFFFFF" stroke-width="3.03976" stroke-linecap="round" stroke-linejoin="round" stroke-miterlimit="10" fill="none" transform="matrix(1.00113 0 0 1 36.4067 -109.885)"/><path d="M239.685 220.889 247.386 247.639" stroke="#FFFFFF" stroke-width="3.03976" stroke-linecap="round" stroke-linejoin="round" stroke-miterlimit="10" fill="none" transform="matrix(1.00113 0 0 1 36.4067 -109.885)"/><path d="M247.335 221.7 242.32 230.769 233.251 225.753" stroke="#FFFFFF" stroke-width="3.03976" stroke-linecap="round" stroke-linejoin="round" stroke-miterlimit="10" fill="none" transform="matrix(1.00113 0 0 1 36.4067 -109.885)"/><path d="M254.935 274.034 247.386 247.639" stroke="#FFFFFF" stroke-width="3.03976" stroke-linecap="round" stroke-linejoin="round" stroke-miterlimit="10" fill="none" transform="matrix(1.00113 0 0 1 36.4067 -109.885)"/><path d="M260.963 269.272 251.895 264.206 246.879 273.275" stroke="#FFFFFF" stroke-width="3.03976" stroke-linecap="round" stroke-linejoin="round" stroke-miterlimit="10" fill="none" transform="matrix(1.00113 0 0 1 36.4067 -109.885)"/><path d="M233.707 271.653 247.082 247.487" stroke="#FFFFFF" stroke-width="3.03976" stroke-linecap="round" stroke-linejoin="round" stroke-miterlimit="10" fill="none" transform="matrix(1.00113 0 0 1 36.4067 -109.885)"/><path d="M228.691 265.574 238.672 262.737 241.509 272.667" stroke="#FFFFFF" stroke-width="3.03976" stroke-linecap="round" stroke-linejoin="round" stroke-miterlimit="10" fill="none" transform="matrix(1.00113 0 0 1 36.4067 -109.885)"/><path d="M260.508 223.321 247.082 247.487" stroke="#FFFFFF" stroke-width="3.03976" stroke-linecap="round" stroke-linejoin="round" stroke-miterlimit="10" fill="none" transform="matrix(1.00113 0 0 1 36.4067 -109.885)"/><path d="M252.705 222.308 255.543 232.288 265.472 229.451" stroke="#FFFFFF" stroke-width="3.03976" stroke-linecap="round" stroke-linejoin="round" stroke-miterlimit="10" fill="none" transform="matrix(1.00113 0 0 1 36.4067 -109.885)"/><path d="M273.578 240.394 246.778 248.095" stroke="#FFFFFF" stroke-width="3.03976" stroke-linecap="round" stroke-linejoin="round" stroke-miterlimit="10" fill="none" transform="matrix(1.00113 0 0 1 36.4067 -109.885)"/><path d="M272.869 247.741 263.851 242.725 268.867 233.656" stroke="#FFFFFF" stroke-width="3.03976" stroke-linecap="round" stroke-linejoin="round" stroke-miterlimit="10" fill="none" transform="matrix(1.00113 0 0 1 36.4067 -109.885)"/><path d="M220.433 255.644 246.778 248.095" stroke="#FFFFFF" stroke-width="3.03976" stroke-linecap="round" stroke-linejoin="round" stroke-miterlimit="10" fill="none" transform="matrix(1.00113 0 0 1 36.4067 -109.885)"/><path d="M225.348 261.369 230.363 252.3 221.295 247.285" stroke="#FFFFFF" stroke-width="3.03976" stroke-linecap="round" stroke-linejoin="round" stroke-miterlimit="10" fill="none" transform="matrix(1.00113 0 0 1 36.4067 -109.885)"/><path d="M223.27 234.011 247.437 247.386" stroke="#FFFFFF" stroke-width="3.03976" stroke-linecap="round" stroke-linejoin="round" stroke-miterlimit="10" fill="none" transform="matrix(1.00113 0 0 1 36.4067 -109.885)"/><path d="M229.046 229.097 231.883 239.077 221.903 241.914" stroke="#FFFFFF" stroke-width="3.03976" stroke-linecap="round" stroke-linejoin="round" stroke-miterlimit="10" fill="none" transform="matrix(1.00113 0 0 1 36.4067 -109.885)"/><path d="M271.603 260.811 247.437 247.386" stroke="#FFFFFF" stroke-width="3.03976" stroke-linecap="round" stroke-linejoin="round" stroke-miterlimit="10" fill="none" transform="matrix(1.00113 0 0 1 36.4067 -109.885)"/><path d="M272.261 253.111 262.331 255.948 265.168 265.878" stroke="#FFFFFF" stroke-width="3.03976" stroke-linecap="round" stroke-linejoin="round" stroke-miterlimit="10" fill="none" transform="matrix(1.00113 0 0 1 36.4067 -109.885)"/><path d="M254.073 212.581C252.503 214.708 249.463 215.114 247.335 213.493 245.157 211.821 243.029 210.149 240.85 208.528 229.198 199.459 212.935 203.309 204.272 215.62L204.272 215.62C195.609 227.931 197.635 242.725 209.136 251.287 222.055 260.862 235.126 271.501 248.196 281.938 255.543 287.865 266.03 286.447 271.501 278.746 281.279 265.168 291.057 251.439 300.936 238.723 309.701 227.374 307.674 212.581 296.073 203.056L296.073 203.056C284.42 193.481 267.702 194.19 258.937 206.045 257.316 208.224 255.695 210.402 254.073 212.581Z" stroke="#34323A" stroke-width="6.07952" stroke-linecap="round" stroke-linejoin="round" stroke-miterlimit="10" fill="none" transform="matrix(1.00113 0 0 1 36.4067 -109.885)"/><path d="M281.431 203.107C281.431 204.702 280.138 205.994 278.543 205.994 276.949 205.994 275.656 204.702 275.656 203.107 275.656 201.512 276.949 200.219 278.543 200.219 280.138 200.219 281.431 201.512 281.431 203.107Z" fill="#FFFFFF" transform="matrix(1.00113 0 0 1 36.4067 -109.885)"/><path d="M-111.37-6.08965-118.108-5.17773-123.935-27.064-112.738-31.573Z" fill="#C92020" transform="matrix(1.00113 0 0 1 402.263 108.785)"/><path d="M-111.37-6.08965-118.108-5.17773-123.935-27.064-112.738-31.573Z" stroke="#34323A" stroke-width="5.06627" stroke-linecap="round" stroke-linejoin="round" stroke-miterlimit="10" fill="none" transform="matrix(1.00113 0 0 1 402.263 108.785)"/><path d="M-110.509-29.6478-128.545-23.4163-139.336-75.8522-110.509-73.4204Z" fill="#9D503A" transform="matrix(1.00113 0 0 1 402.263 108.785)"/><path d="M-130.065-75.0922-139.336-75.8522-128.545-23.4163-120.034-26.3547Z" fill="#D17F6B" transform="matrix(1.00113 0 0 1 402.263 108.785)"/><path d="M-110.509-29.6478-128.545-23.4163-139.336-75.8522-110.509-73.4204Z" stroke="#34323A" stroke-width="5.06627" stroke-linecap="round" stroke-linejoin="round" stroke-miterlimit="10" fill="none" transform="matrix(1.00113 0 0 1 402.263 108.785)"/><path d="M-204.488-43.2254-218.269-33.6502-237.419-90.9497-213-92.3175Z" fill="#9D503A" transform="matrix(1.00113 0 0 1 402.263 108.785)"/><path d="M-229.566-91.355-237.419-90.9497-218.269-33.6502-211.784-38.1591Z" fill="#D17F6B" transform="matrix(1.00113 0 0 1 402.263 108.785)"/><path d="M-204.488-43.2254-218.269-33.6502-237.419-90.9497-213-92.3175Z" stroke="#34323A" stroke-width="5.06627" stroke-linecap="round" stroke-linejoin="round" stroke-miterlimit="10" fill="none" transform="matrix(1.00113 0 0 1 402.263 108.785)"/><path d="M35.6529-32.3836C35.6529-32.3836 28.1548-79.6012 19.9981-85.5794 11.8921-91.5576 4.44464-88.2139 2.72211-85.934 0.999575-83.6036-3.61073-77.5747-3.61073-77.5747-3.61073-77.5747 3.07674-81.1718 6.92711-78.3346 10.7775-75.4975 23.4431-28.1279 23.4431-28.1279L35.6529-32.3836Z" fill="#FF2727" transform="matrix(1.00113 0 0 1 402.263 108.785)"/><path d="M35.6529-32.3836C35.6529-32.3836 28.1548-79.6012 19.9981-85.5794 11.8921-91.5576 4.44464-88.2139 2.72211-85.934 0.999575-83.6036-3.61073-77.5747-3.61073-77.5747-3.61073-77.5747 3.07674-81.1718 6.92711-78.3346 10.7775-75.4975 23.4431-28.1279 23.4431-28.1279L35.6529-32.3836Z" stroke="#34323A" stroke-width="5.06627" stroke-linecap="round" stroke-linejoin="round" stroke-miterlimit="10" fill="none" transform="matrix(1.00113 0 0 1 402.263 108.785)"/><path d="M24.1018-55.5364 7.53506-52.8513 14.9825-112.785 37.6287-103.463Z" fill="#9D503A" transform="matrix(1.00113 0 0 1 402.263 108.785)"/><path d="M22.2779-109.796 14.9825-112.785 7.53506-52.8513 15.3371-54.1179Z" fill="#D17F6B" transform="matrix(1.00113 0 0 1 402.263 108.785)"/><path d="M24.1018-55.5364 7.53506-52.8513 14.9825-112.785 37.6287-103.463Z" stroke="#34323A" stroke-width="5.06627" stroke-linecap="round" stroke-linejoin="round" stroke-miterlimit="10" fill="none" transform="matrix(1.00113 0 0 1 402.263 108.785)"/><path d="M355.196 228.489 365.075 260.66C369.534 275.149 365.531 290.905 354.74 301.595L342.176 314.007C334.019 322.063 331.233 334.12 335.083 344.912L335.336 345.57C341.72 363.606 362.745 371.56 379.413 362.289L428.404 335.032C445.173 325.71 452.316 305.344 445.072 287.561 445.072 287.561 428.606 249.615 423.439 236.797 419.994 228.387 408.037 203.816 408.037 203.816L355.196 228.489Z" fill="#FF2727" transform="matrix(1.00113 0 0 1 36.4067 -109.885)"/><path d="M445.072 287.561C445.072 287.561 428.606 249.615 423.439 236.797 419.994 228.387 408.037 203.816 408.037 203.816L387.266 213.493C390.052 219.471 392.838 225.449 394.206 228.843 399.425 241.61 415.839 279.607 415.839 279.607 423.084 297.39 415.941 317.756 399.171 327.078L350.18 354.335C347.799 355.652 345.266 356.665 342.733 357.273 352.156 366.545 366.95 369.179 379.312 362.238L428.302 334.982C445.173 325.71 452.316 305.344 445.072 287.561Z" fill="#C92020" transform="matrix(1.00113 0 0 1 36.4067 -109.885)"/><path d="M380.882 236.747C381.237 239.786 381.845 236.544 382.605 235.227 383.365 235.43 384.226 233.504 385.138 234.062 386.05 235.024 386.962 237.507 387.823 233.91 388.684 235.075 389.444 237.456 390.001 232.491 390.407 231.174 390.913 230.667 391.572 230.211 392.23 229.806 392.94 229.451 393.801 228.59 395.422 229.705 397.297 225.702 399.121 228.286 401.096 230.465 402.667 228.083 404.035 227.526 405.403 226.766 406.467 225.601 407.48 224.385 410.773 224.689 412.749 222.865 414.37 221.193 414.927 220.788 415.586 220.737 416.245 220.788 412.192 212.175 408.139 203.867 408.139 203.867L355.196 228.489 360.82 246.727C360.921 246.575 360.972 246.373 361.022 246.018 360.82 244.143 361.732 244.346 362.795 244.599 363.91 245.157 365.177 242.624 365.683 243.839 366.342 244.853 366.848 243.181 367.254 242.978 367.659 241.965 368.014 240.597 368.419 241.357 368.824 240.749 369.28 243.536 369.939 241.002 370.598 241.306 371.408 237.405 372.523 240.648 373.536 242.066 374.296 242.877 374.955 240.192 375.613 237.861 376.12 237.304 376.677 239.027 377.234 235.024 377.741 237.456 378.4 235.936 379.058 232.795 379.818 230.617 380.882 236.747Z" fill="#C92020" transform="matrix(1.00113 0 0 1 36.4067 -109.885)"/><path d="M355.196 228.489 365.075 260.66C369.534 275.149 365.531 290.905 354.74 301.595L342.176 314.007C334.019 322.063 331.233 334.12 335.083 344.912L335.336 345.57C341.72 363.606 362.745 371.56 379.413 362.289L428.404 335.032C445.173 325.71 452.316 305.344 445.072 287.561 445.072 287.561 428.606 249.615 423.439 236.797 419.994 228.387 408.037 203.816 408.037 203.816L355.196 228.489Z" stroke="#34323A" stroke-width="6.07952" stroke-linecap="round" stroke-linejoin="round" stroke-miterlimit="10" fill="none" transform="matrix(1.00113 0 0 1 36.4067 -109.885)"/><path d="M417.207 208.882C417.258 208.984 415.485 206.805 415.485 209.693 415.687 213.037 412.597 210.554 410.824 211.871 409.203 213.543 407.227 215.367 403.934 215.063 401.907 217.495 399.526 219.724 395.574 218.964 391.977 218.913 388.026 218.458 386.506 223.22 384.175 226.26 378.906 222.966 377.437 227.475 373.333 226.361 373.131 233.302 369.078 231.376 364.569 228.438 364.873 235.176 362.188 234.568 361.174 237.507 357.121 232.998 357.527 236.747 357.324 239.229 354.841 235.43 355.804 237.557 354.233 237.76 354.284 241.357 351.548 238.419 350.332 238.773 349.319 238.976 347.698 237.253 347.343 237.405 347.039 237.405 346.685 237.051 346.279 236.645 345.823 235.835 345.064 234.315 344.152 232.339 343.797 231.528 343.645 231.275 341.872 227.526 342.429 228.641 342.074 227.881 342.226 228.185 341.973 227.678 340.555 224.588 341.416 226.412 339.896 223.22 340.048 223.524 339.389 222.105 338.376 219.977 337.413 217.9 337.363 217.799 336.755 216.482 335.995 214.86 335.944 214.708 334.526 211.466 334.931 211.922 335.64 213.037 334.526 209.946 335.387 210.959 336.35 212.125 336.299 210.959 336.198 209.592 336.248 208.578 336.502 207.666 336.957 207.261 336.704 203.816 339.237 205.792 340.352 204.576 340.352 204.576 340.707 203.715 342.074 203.765 342.632 202.093 344.861 202.651 346.735 201.587 348.863 201.08 350.636 198.8 353.626 198.395 355.449 195.558 358.996 195.761 361.985 194.494 364.619 192.417 367.76 191.15 371.054 190.238 373.992 188.465 377.285 187.604 380.122 185.983 383.415 185.375 386.404 184.412 388.481 182.082 390.204 178.991 392.585 178.079 395.372 178.89 398.209 179.802 398.563 176.458 400.033 176.711 401.704 177.37 401.451 175.242 401.755 175.901 403.731 176.458 406.213 178.434 406.011 175.04 407.328 174.989 409.354 176.863 409.861 176.205 411.28 177.522 411.432 176.863 412.496 179.143 412.394 178.89 411.533 177.117 413.914 182.183 415.079 184.665 414.674 183.804 417.055 188.87 416.447 187.604 419.892 195.001 420.196 195.558 422.425 200.32 421.666 198.648 421.615 198.598 421.716 198.851 422.729 201.992 422.172 202.499 422.78 205.539 421.463 205.133 420.602 206.197 419.791 207.362 418.676 208.325 417.207 208.882Z" fill="#FFFFFF" transform="matrix(1.00113 0 0 1 36.4067 -109.885)"/><path d="M421.767 198.851C421.767 198.851 421.767 198.902 421.767 198.851 421.767 198.902 421.767 198.851 421.767 198.851Z" fill="#D6D6D6" transform="matrix(1.00113 0 0 1 36.4067 -109.885)"/><path d="M421.716 198.75C421.716 198.8 421.716 198.8 421.767 198.8 421.716 198.8 421.716 198.8 421.716 198.75Z" fill="#D6D6D6" transform="matrix(1.00113 0 0 1 36.4067 -109.885)"/><path d="M412.344 178.687C412.242 178.535 412.293 178.586 412.344 178.687L412.344 178.687Z" fill="#D6D6D6" transform="matrix(1.00113 0 0 1 36.4067 -109.885)"/><path d="M417.055 188.82C417.055 188.769 417.005 188.719 417.005 188.719 417.005 188.719 417.005 188.719 417.005 188.719 417.055 188.769 417.055 188.82 417.055 188.82Z" fill="#D6D6D6" transform="matrix(1.00113 0 0 1 36.4067 -109.885)"/><path d="M392.433 185.324C392.433 185.375 392.484 185.375 392.484 185.425 392.484 185.375 392.433 185.324 392.433 185.324 392.433 185.324 392.433 185.324 392.433 185.324 392.433 185.324 392.433 185.324 392.433 185.324Z" fill="#D6D6D6" transform="matrix(1.00113 0 0 1 36.4067 -109.885)"/><path d="M421.615 198.547C421.615 198.547 421.666 198.648 421.716 198.75 421.564 198.446 421.159 197.584 420.196 195.507 419.943 195.001 417.309 189.377 417.055 188.719 417.055 188.719 417.055 188.719 417.055 188.719 417.055 188.719 417.055 188.719 417.055 188.719 417.055 188.719 417.055 188.719 417.055 188.719 414.725 183.754 415.13 184.615 414.015 182.132 413.205 180.46 412.8 179.498 412.546 179.042 412.546 179.042 412.546 179.093 412.597 179.093 411.533 176.762 411.381 177.471 409.962 176.154 409.456 176.762 407.429 174.938 406.112 174.989 406.315 178.383 403.832 176.407 401.856 175.85 401.552 175.192 401.806 177.319 400.134 176.661 398.665 176.407 398.259 179.751 395.473 178.839 393.396 178.231 391.572 178.586 390.052 180.106 390.559 181.17 390.761 181.575 392.484 185.324 392.484 185.324 392.484 185.324 392.484 185.324 392.484 185.324 392.484 185.324 392.484 185.324 392.788 185.932 395.422 191.606 395.625 192.113 396.587 194.19 396.993 195.051 397.145 195.355 397.145 195.406 397.145 195.406 397.195 195.406 397.195 195.406 397.195 195.406 397.195 195.457 397.195 195.457 397.195 195.457 397.195 195.507 397.195 195.507 397.195 195.507 397.195 195.507 397.195 195.507 397.195 195.507 397.195 195.507 397.195 195.507 397.195 195.507 397.195 195.507 397.195 195.507 397.195 195.507 397.195 195.457 397.195 195.457 397.195 195.457 397.195 195.406 397.195 195.406 397.195 195.355 397.145 195.355 397.094 195.254 397.043 195.153 397.043 195.153 397.145 195.406 398.158 198.547 397.601 199.054 398.209 202.093 396.891 201.688 396.03 202.752 395.22 203.917 394.105 204.931 392.636 205.437 392.686 205.539 390.913 203.36 390.913 206.248 391.116 209.592 388.026 207.109 386.252 208.426 384.631 210.098 382.655 211.922 379.362 211.618 377.336 214.05 374.955 216.279 371.003 215.519 367.406 215.468 363.454 215.012 361.934 219.775 359.604 222.814 354.335 219.521 352.866 224.03 348.762 222.916 348.559 229.857 344.506 227.931 343.341 227.171 342.53 227.07 341.872 227.273 342.024 227.577 342.125 227.779 342.125 227.83 342.125 227.83 342.125 227.83 342.125 227.779 342.125 227.779 342.125 227.83 342.125 227.83 342.125 227.83 342.125 227.83 342.125 227.83 342.429 228.489 341.973 227.526 343.696 231.174 343.848 231.427 344.202 232.238 345.114 234.214 345.823 235.733 346.33 236.544 346.735 236.949 347.141 237.355 347.445 237.304 347.749 237.152 349.37 238.875 350.383 238.672 351.599 238.317 354.335 241.256 354.233 237.659 355.855 237.456 354.892 235.328 357.375 239.128 357.577 236.645 357.172 232.896 361.225 237.405 362.238 234.467 364.923 235.024 364.619 228.337 369.128 231.275 373.181 233.2 373.384 226.26 377.488 227.374 378.957 222.865 384.226 226.158 386.556 223.118 388.076 218.356 392.028 218.863 395.625 218.863 399.577 219.623 401.958 217.394 403.984 214.962 407.277 215.266 409.253 213.442 410.874 211.77 412.648 210.453 415.738 212.935 415.535 209.592 415.535 206.704 417.309 208.882 417.258 208.781 418.676 208.224 419.842 207.261 420.652 206.096 421.514 205.032 422.831 205.437 422.223 202.397 422.729 201.992 421.716 198.8 421.615 198.547Z" fill="#D6D6D6" transform="matrix(1.00113 0 0 1 36.4067 -109.885)"/><path d="M412.496 179.042C412.445 178.941 412.394 178.839 412.344 178.789 412.394 178.839 412.445 178.941 412.496 179.042Z" fill="#D6D6D6" transform="matrix(1.00113 0 0 1 36.4067 -109.885)"/><path d="M412.394 178.738C412.394 178.738 412.394 178.687 412.394 178.687 412.344 178.738 412.344 178.738 412.394 178.738Z" fill="#D6D6D6" transform="matrix(1.00113 0 0 1 36.4067 -109.885)"/><path d="M417.207 208.882C417.258 208.984 415.485 206.805 415.485 209.693 415.687 213.037 412.597 210.554 410.824 211.871 409.203 213.543 407.227 215.367 403.934 215.063 402.92 216.279 401.806 217.444 400.489 218.204 399.121 218.761 397.55 221.092 395.574 218.964 393.75 216.431 391.876 220.433 390.255 219.268 389.444 220.18 388.684 220.484 388.026 220.889 387.367 221.295 386.86 221.852 386.455 223.169 385.898 228.134 385.087 225.702 384.276 224.588 383.415 228.185 382.503 225.702 381.591 224.74 380.679 224.182 379.818 226.108 379.058 225.905 378.298 227.222 377.69 230.465 377.336 227.425 376.322 221.295 375.512 223.473 374.853 226.564 374.195 228.083 373.637 225.652 373.131 229.654 372.573 227.931 372.067 228.489 371.408 230.819 370.75 233.555 369.99 232.694 368.976 231.275 367.862 228.083 367 231.934 366.393 231.63 365.734 234.112 365.278 231.376 364.873 231.984 364.467 231.224 364.113 232.643 363.707 233.606 363.302 233.808 362.795 235.48 362.137 234.467 361.63 233.302 360.364 235.784 359.249 235.227 358.135 234.923 357.273 234.72 357.476 236.645 357.273 239.128 354.791 235.328 355.753 237.456 354.183 237.659 354.233 241.256 351.498 238.317 350.282 238.672 349.269 238.875 347.647 237.152 347.293 237.304 346.989 237.304 346.634 236.949 346.229 236.544 345.773 235.733 345.013 234.214 344.101 232.238 343.746 231.427 343.594 231.174 341.821 227.425 342.378 228.539 342.024 227.779 342.176 228.083 341.922 227.577 340.504 224.486 341.365 226.31 339.845 223.118 339.997 223.422 339.339 222.004 338.325 219.876 337.363 217.799 337.312 217.698 336.704 216.38 335.944 214.759 335.894 214.607 334.475 211.365 334.88 211.821 335.59 212.935 334.475 209.845 335.336 210.858 336.299 212.023 336.248 210.858 336.147 209.49 336.198 208.477 336.451 207.565 336.907 207.16 336.654 203.715 339.187 205.691 340.301 204.475 340.301 204.475 340.656 203.613 342.024 203.664 342.581 201.992 344.81 202.549 346.685 201.486 348.813 200.979 350.586 198.699 353.575 198.294 355.399 195.457 358.945 195.659 361.934 194.393 364.569 192.316 367.71 191.049 371.003 190.137 373.941 188.364 377.234 187.503 380.071 185.881 383.365 185.273 386.354 184.311 388.431 181.98 390.153 178.89 392.534 177.978 395.321 178.789 398.158 179.701 398.513 176.357 399.982 176.61 401.654 177.269 401.4 175.141 401.704 175.8 403.68 176.357 406.163 178.333 405.96 174.938 407.277 174.888 409.304 176.762 409.81 176.104 411.229 177.421 411.381 176.762 412.445 179.042 412.344 178.789 411.482 177.015 413.863 182.082 415.029 184.564 414.623 183.703 417.005 188.769 416.397 187.503 419.842 194.899 420.146 195.457 422.375 200.219 421.615 198.547 421.564 198.496 421.666 198.75 422.679 201.891 422.121 202.397 422.729 205.437 421.412 205.032 420.551 206.096 419.791 207.362 418.676 208.325 417.207 208.882Z" stroke="#34323A" stroke-width="5.06627" stroke-linecap="round" stroke-linejoin="round" stroke-miterlimit="10" fill="none" transform="matrix(1.00113 0 0 1 36.4067 -109.885)"/><path d="M404.339 305.395 374.448 325.862" stroke="#FFFFFF" stroke-width="3.03976" stroke-linecap="round" stroke-linejoin="round" stroke-miterlimit="10" fill="none" transform="matrix(1.00113 0 0 1 36.4067 -109.885)"/><path d="M399.577 330.878 379.058 300.987" stroke="#FFFFFF" stroke-width="3.03976" stroke-linecap="round" stroke-linejoin="round" stroke-miterlimit="10" fill="none" transform="matrix(1.00113 0 0 1 36.4067 -109.885)"/><path d="M394.561 300.075C394.561 301.166 393.676 302.051 392.585 302.051 391.494 302.051 390.609 301.166 390.609 300.075 390.609 298.984 391.494 298.099 392.585 298.099 393.676 298.099 394.561 298.984 394.561 300.075Z" fill="#FFFFFF" transform="matrix(1.00113 0 0 1 36.4067 -109.885)"/><path d="M395.27 294.35C395.27 295.246 394.544 295.971 393.649 295.971 392.754 295.971 392.028 295.246 392.028 294.35 392.028 293.455 392.754 292.729 393.649 292.729 394.544 292.729 395.27 293.455 395.27 294.35Z" fill="#FFFFFF" transform="matrix(1.00113 0 0 1 36.4067 -109.885)"/><path d="M394.004 307.725C394.004 309.32 392.711 310.613 391.116 310.613 389.521 310.613 388.228 309.32 388.228 307.725 388.228 306.13 389.521 304.837 391.116 304.837 392.711 304.837 394.004 306.13 394.004 307.725Z" fill="#FFFFFF" transform="matrix(1.00113 0 0 1 36.4067 -109.885)"/><path d="M388.633 331.537C388.633 332.628 387.749 333.512 386.658 333.512 385.566 333.512 384.682 332.628 384.682 331.537 384.682 330.445 385.566 329.561 386.658 329.561 387.749 329.561 388.633 330.445 388.633 331.537Z" fill="#FFFFFF" transform="matrix(1.00113 0 0 1 36.4067 -109.885)"/><path d="M387.215 337.262C387.215 338.157 386.489 338.883 385.594 338.883 384.698 338.883 383.972 338.157 383.972 337.262 383.972 336.366 384.698 335.64 385.594 335.64 386.489 335.64 387.215 336.366 387.215 337.262Z" fill="#FFFFFF" transform="matrix(1.00113 0 0 1 36.4067 -109.885)"/><path d="M390.964 323.937C390.964 325.532 389.671 326.825 388.076 326.825 386.481 326.825 385.188 325.532 385.188 323.937 385.188 322.342 386.481 321.049 388.076 321.049 389.671 321.049 390.964 322.342 390.964 323.937Z" fill="#FFFFFF" transform="matrix(1.00113 0 0 1 36.4067 -109.885)"/><path d="M375.816 312.791C375.816 313.883 374.931 314.767 373.84 314.767 372.749 314.767 371.864 313.883 371.864 312.791 371.864 311.7 372.749 310.816 373.84 310.816 374.931 310.816 375.816 311.7 375.816 312.791Z" fill="#FFFFFF" transform="matrix(1.00113 0 0 1 36.4067 -109.885)"/><path d="M369.736 311.727C369.736 312.623 369.01 313.349 368.115 313.349 367.22 313.349 366.494 312.623 366.494 311.727 366.494 310.832 367.22 310.106 368.115 310.106 369.01 310.106 369.736 310.832 369.736 311.727Z" fill="#FFFFFF" transform="matrix(1.00113 0 0 1 36.4067 -109.885)"/><path d="M384.378 314.261C384.378 315.855 383.085 317.148 381.49 317.148 379.895 317.148 378.602 315.855 378.602 314.261 378.602 312.666 379.895 311.373 381.49 311.373 383.085 311.373 384.378 312.666 384.378 314.261Z" fill="#FFFFFF" transform="matrix(1.00113 0 0 1 36.4067 -109.885)"/><path d="M407.328 318.719C407.328 319.81 406.443 320.695 405.352 320.695 404.261 320.695 403.376 319.81 403.376 318.719 403.376 317.628 404.261 316.743 405.352 316.743 406.443 316.743 407.328 317.628 407.328 318.719Z" fill="#FFFFFF" transform="matrix(1.00113 0 0 1 36.4067 -109.885)"/><path d="M412.648 319.783C412.648 320.678 411.922 321.404 411.026 321.404 410.131 321.404 409.405 320.678 409.405 319.783 409.405 318.887 410.131 318.162 411.026 318.162 411.922 318.162 412.648 318.887 412.648 319.783Z" fill="#FFFFFF" transform="matrix(1.00113 0 0 1 36.4067 -109.885)"/><path d="M400.59 317.25C400.59 318.845 399.297 320.138 397.702 320.138 396.107 320.138 394.814 318.845 394.814 317.25 394.814 315.655 396.107 314.362 397.702 314.362 399.297 314.362 400.59 315.655 400.59 317.25Z" fill="#FFFFFF" transform="matrix(1.00113 0 0 1 36.4067 -109.885)"/><path d="M397.753 255.543 412.597 279.101" stroke="#FFFFFF" stroke-width="2.02651" stroke-linecap="round" stroke-linejoin="round" stroke-miterlimit="10" fill="none" transform="matrix(1.00113 0 0 1 36.4067 -109.885)"/><path d="M416.954 259.9 393.396 274.744" stroke="#FFFFFF" stroke-width="2.02651" stroke-linecap="round" stroke-linejoin="round" stroke-miterlimit="10" fill="none" transform="matrix(1.00113 0 0 1 36.4067 -109.885)"/><path d="M394.713 264.51C394.713 265.349 394.033 266.03 393.193 266.03 392.354 266.03 391.673 265.349 391.673 264.51 391.673 263.67 392.354 262.99 393.193 262.99 394.033 262.99 394.713 263.67 394.713 264.51Z" fill="#FFFFFF" transform="matrix(1.00113 0 0 1 36.4067 -109.885)"/><path d="M390.052 263.497C390.052 264.168 389.508 264.713 388.836 264.713 388.165 264.713 387.62 264.168 387.62 263.497 387.62 262.825 388.165 262.281 388.836 262.281 389.508 262.281 390.052 262.825 390.052 263.497Z" fill="#FFFFFF" transform="matrix(1.00113 0 0 1 36.4067 -109.885)"/><path d="M401.248 265.827C401.248 267.058 400.25 268.056 399.019 268.056 397.788 268.056 396.79 267.058 396.79 265.827 396.79 264.596 397.788 263.598 399.019 263.598 400.25 263.598 401.248 264.596 401.248 265.827Z" fill="#FFFFFF" transform="matrix(1.00113 0 0 1 36.4067 -109.885)"/><path d="M418.727 269.981C418.727 270.821 418.047 271.501 417.207 271.501 416.368 271.501 415.687 270.821 415.687 269.981 415.687 269.142 416.368 268.462 417.207 268.462 418.047 268.462 418.727 269.142 418.727 269.981Z" fill="#FFFFFF" transform="matrix(1.00113 0 0 1 36.4067 -109.885)"/><path d="M422.78 270.995C422.78 271.666 422.236 272.211 421.564 272.211 420.893 272.211 420.348 271.666 420.348 270.995 420.348 270.323 420.893 269.779 421.564 269.779 422.236 269.779 422.78 270.323 422.78 270.995Z" fill="#FFFFFF" transform="matrix(1.00113 0 0 1 36.4067 -109.885)"/><path d="M413.61 268.664C413.61 269.895 412.612 270.893 411.381 270.893 410.15 270.893 409.152 269.895 409.152 268.664 409.152 267.433 410.15 266.435 411.381 266.435 412.612 266.435 413.61 267.433 413.61 268.664Z" fill="#FFFFFF" transform="matrix(1.00113 0 0 1 36.4067 -109.885)"/><path d="M403.934 279.303C403.934 280.143 403.253 280.823 402.414 280.823 401.574 280.823 400.894 280.143 400.894 279.303 400.894 278.464 401.574 277.783 402.414 277.783 403.253 277.783 403.934 278.464 403.934 279.303Z" fill="#FFFFFF" transform="matrix(1.00113 0 0 1 36.4067 -109.885)"/><path d="M402.616 283.61C402.616 284.281 402.072 284.826 401.4 284.826 400.729 284.826 400.185 284.281 400.185 283.61 400.185 282.938 400.729 282.394 401.4 282.394 402.072 282.394 402.616 282.938 402.616 283.61Z" fill="#FFFFFF" transform="matrix(1.00113 0 0 1 36.4067 -109.885)"/><path d="M405.96 273.427C405.96 274.658 404.962 275.656 403.731 275.656 402.5 275.656 401.502 274.658 401.502 273.427 401.502 272.195 402.5 271.197 403.731 271.197 404.962 271.197 405.96 272.195 405.96 273.427Z" fill="#FFFFFF" transform="matrix(1.00113 0 0 1 36.4067 -109.885)"/><path d="M409.405 255.289C409.405 256.129 408.725 256.809 407.885 256.809 407.046 256.809 406.365 256.129 406.365 255.289 406.365 254.45 407.046 253.769 407.885 253.769 408.725 253.769 409.405 254.45 409.405 255.289Z" fill="#FFFFFF" transform="matrix(1.00113 0 0 1 36.4067 -109.885)"/><path d="M410.114 250.932C410.114 251.604 409.57 252.148 408.898 252.148 408.227 252.148 407.683 251.604 407.683 250.932 407.683 250.261 408.227 249.716 408.898 249.716 409.57 249.716 410.114 250.261 410.114 250.932Z" fill="#FFFFFF" transform="matrix(1.00113 0 0 1 36.4067 -109.885)"/><path d="M408.797 261.115C408.797 262.347 407.799 263.345 406.568 263.345 405.337 263.345 404.339 262.347 404.339 261.115 404.339 259.884 405.337 258.886 406.568 258.886 407.799 258.886 408.797 259.884 408.797 261.115Z" fill="#FFFFFF" transform="matrix(1.00113 0 0 1 36.4067 -109.885)"/><path d="M353.626 211.213C353.626 211.213 359.401 218.103 359.401 209.895 359.401 209.895 359.046 205.032 363.15 208.578 366.95 211.821 366.595 208.781 367.152 205.083" stroke="#34323A" stroke-width="3.03976" stroke-linecap="round" stroke-linejoin="round" stroke-miterlimit="10" fill="none" transform="matrix(1.00113 0 0 1 36.4067 -109.885)"/><path d="M394.409 203.208C394.409 203.208 399.171 208.021 400.59 202.093 400.59 202.093 400.033 198.699 402.768 200.118 404.339 200.928 406.973 202.6 406.416 197.432" stroke="#34323A" stroke-width="3.03976" stroke-linecap="round" stroke-linejoin="round" stroke-miterlimit="10" fill="none" transform="matrix(1.00113 0 0 1 36.4067 -109.885)"/><path d="M428.252 225.246C428.252 227.07 428.15 228.742 427.998 228.691 427.897 229.046 427.796 231.174 427.644 231.275 427.492 230.971 427.34 232.136 427.188 230.515 426.833 231.275 426.428 231.934 425.921 232.288 425.415 234.062 424.908 233.048 424.249 234.822 423.641 238.419 422.983 235.227 422.273 236.493 421.564 237.557 420.804 238.469 419.994 237.76 419.588 237.101 419.183 238.115 418.778 238.875 418.372 239.634 417.917 240.192 417.461 238.52 417.005 240.04 416.549 241.256 416.143 240.04 415.687 242.066 415.231 239.736 414.775 238.773 413.863 240.344 412.952 239.533 412.04 239.483 411.178 238.419 410.317 237.304 409.506 237.709 409.101 238.723 408.696 235.733 408.341 235.885 407.936 235.379 407.581 234.011 407.227 236.443 406.517 236.696 405.859 232.288 405.251 234.771 404.947 235.632 404.643 234.923 404.39 234.568 404.136 232.947 403.832 231.934 403.63 232.744 403.123 232.846 402.718 229.401 402.363 230.465 402.008 231.022 401.755 230.718 401.552 227.931 401.35 226.462 401.299 224.993 401.299 225.196 401.299 223.321 401.299 222.308 401.35 222.004 401.4 222.764 401.451 221.649 401.552 221.396 401.755 219.471 402.008 222.865 402.363 219.927 402.515 218.002 402.718 218.002 402.92 217.292 403.123 216.988 403.376 217.495 403.579 215.975 404.086 214.759 404.592 217.394 405.251 215.62 405.859 216.33 406.517 214.506 407.227 215.012 407.936 214.202 408.696 213.087 409.506 212.733 411.128 214.658 412.901 215.671 414.775 211.669 416.65 217.343 418.423 215.772 420.044 212.733 420.855 212.429 421.615 214.05 422.324 215.316 423.033 216.583 423.692 217.14 424.3 215.62 424.908 215.62 425.465 216.228 425.972 217.039 426.478 218.508 426.884 217.039 427.238 219.927 427.593 219.065 427.846 220.028 428.049 222.46 428.15 220.991 428.201 221.7 428.252 222.713 428.201 223.878 428.252 224.03 428.252 225.246Z" fill="#FFFFFF" transform="matrix(1.00113 0 0 1 36.4067 -109.885)"/><path d="M405.2 234.315C404.997 234.619 404.795 234.872 404.643 235.024 404.845 235.277 405.048 235.379 405.251 234.822 405.301 234.72 405.301 234.619 405.352 234.518 405.251 234.467 405.2 234.416 405.2 234.315Z" fill="#D6D6D6" transform="matrix(1.00113 0 0 1 36.4067 -109.885)"/><path d="M406.568 235.581C406.568 235.632 406.568 235.683 406.517 235.683 406.72 236.139 406.973 236.544 407.176 236.443 407.227 236.037 407.277 235.784 407.328 235.531 407.075 236.139 406.821 236.291 406.568 235.581Z" fill="#D6D6D6" transform="matrix(1.00113 0 0 1 36.4067 -109.885)"/><path d="M428.15 222.814C428.1 221.751 428.049 221.041 427.948 222.561 427.745 220.129 427.492 219.116 427.137 220.028 426.782 217.14 426.377 218.609 425.871 217.14 425.364 216.33 424.857 215.722 424.199 215.722 423.591 217.242 422.932 216.684 422.223 215.418 421.514 214.151 420.754 212.479 419.943 212.834 419.284 214.05 418.626 215.012 417.967 215.418 418.119 215.772 418.271 216.684 418.372 218.103 418.474 216.634 418.524 217.343 418.575 218.356 418.626 219.42 418.626 219.572 418.626 220.788 418.626 222.612 418.524 224.284 418.372 224.233 418.271 224.588 418.17 226.716 418.018 226.817 417.866 226.513 417.714 227.678 417.562 226.057 417.207 226.817 416.802 227.475 416.295 227.83 415.789 229.603 415.282 228.59 414.623 230.363 414.015 233.96 413.357 230.769 412.648 232.035 411.938 233.099 411.178 234.011 410.368 233.302 409.962 232.643 409.557 233.656 409.152 234.416 408.747 235.176 408.291 235.733 407.835 234.062 407.733 234.467 407.581 234.822 407.48 235.126 407.733 234.872 407.987 235.581 408.24 235.885 408.645 235.733 409 238.723 409.405 237.709 410.216 237.304 411.077 238.419 411.938 239.483 412.8 239.533 413.711 240.344 414.674 238.773 415.13 239.736 415.586 242.066 416.042 240.04 416.498 241.205 416.954 239.989 417.359 238.52 417.815 240.192 418.22 239.634 418.676 238.875 419.132 238.115 419.538 237.051 419.892 237.76 420.703 238.469 421.463 237.557 422.172 236.493 422.881 235.227 423.54 238.419 424.148 234.822 424.756 233.048 425.313 234.011 425.82 232.288 426.326 231.984 426.732 231.326 427.086 230.515 427.238 232.136 427.39 230.971 427.542 231.275 427.694 231.174 427.796 228.995 427.897 228.691 428.1 228.742 428.15 227.07 428.15 225.246 428.252 224.03 428.201 223.878 428.15 222.814Z" fill="#D6D6D6" transform="matrix(1.00113 0 0 1 36.4067 -109.885)"/><path d="M428.252 225.246C428.252 227.07 428.15 228.742 427.998 228.691 427.897 229.046 427.796 231.174 427.644 231.275 427.492 230.971 427.34 232.136 427.188 230.515 426.833 231.275 426.428 231.934 425.921 232.288 425.415 234.062 424.908 233.048 424.249 234.822 423.641 238.419 422.983 235.227 422.273 236.493 421.564 237.557 420.804 238.469 419.994 237.76 419.588 237.101 419.183 238.115 418.778 238.875 418.372 239.634 417.917 240.192 417.461 238.52 417.005 240.04 416.549 241.256 416.143 240.04 415.687 242.066 415.231 239.736 414.775 238.773 413.863 240.344 412.952 239.533 412.04 239.483 411.178 238.419 410.317 237.304 409.506 237.709 409.101 238.723 408.696 235.733 408.341 235.885 407.936 235.379 407.581 234.011 407.227 236.443 406.517 236.696 405.859 232.288 405.251 234.771 404.947 235.632 404.643 234.923 404.39 234.568 404.136 232.947 403.832 231.934 403.63 232.744 403.123 232.846 402.718 229.401 402.363 230.465 402.008 231.022 401.755 230.718 401.552 227.931 401.35 226.462 401.299 224.993 401.299 225.196 401.299 223.321 401.299 222.308 401.35 222.004 401.4 222.764 401.451 221.649 401.552 221.396 401.755 219.471 402.008 222.865 402.363 219.927 402.515 218.002 402.718 218.002 402.92 217.292 403.123 216.988 403.376 217.495 403.579 215.975 404.086 214.759 404.592 217.394 405.251 215.62 405.859 216.33 406.517 214.506 407.227 215.012 407.936 214.202 408.696 213.087 409.506 212.733 411.128 214.658 412.901 215.671 414.775 211.669 416.65 217.343 418.423 215.772 420.044 212.733 420.855 212.429 421.615 214.05 422.324 215.316 423.033 216.583 423.692 217.14 424.3 215.62 424.908 215.62 425.465 216.228 425.972 217.039 426.478 218.508 426.884 217.039 427.238 219.927 427.593 219.065 427.846 220.028 428.049 222.46 428.15 220.991 428.201 221.7 428.252 222.713 428.201 223.878 428.252 224.03 428.252 225.246Z" stroke="#34323A" stroke-width="4.05301" stroke-linecap="round" stroke-linejoin="round" stroke-miterlimit="10" fill="none" transform="matrix(1.00113 0 0 1 36.4067 -109.885)"/></g></svg>