<svg width="261" height="288" xmlns="http://www.w3.org/2000/svg" xmlns:xlink="http://www.w3.org/1999/xlink" xml:space="preserve" overflow="hidden"><defs><clipPath id="clip0"><rect x="222" y="360" width="261" height="288"/></clipPath></defs><g clip-path="url(#clip0)" transform="translate(-222 -360)"><path d="M253.119 312.779C253.119 318.855 227.746 323.781 196.446 323.781 165.147 323.781 139.773 318.855 139.773 312.779 139.773 306.703 165.147 301.777 196.446 301.777 227.746 301.777 253.119 306.703 253.119 312.779Z" fill="#CFD0D1" transform="matrix(1 0 0 1.00181 169.853 323.632)"/><path d="M236.295 147.637C236.295 173.884 215.018 195.161 188.771 195.161 162.525 195.161 141.248 173.884 141.248 147.637 141.248 121.39 162.525 100.113 188.771 100.113 215.018 100.113 236.295 121.39 236.295 147.637Z" fill="#FFFFFF" transform="matrix(1 0 0 1.00181 169.853 323.632)"/><path d="M195.728 155.425 213.27 175.161 185.86 169.149Z" fill="#DDDDDD" transform="matrix(1 0 0 1.00181 169.853 323.632)"/><path d="M204.31 102.76C212.628 111.304 217.732 122.987 217.732 135.841 217.732 162.079 196.446 183.365 170.208 183.365 164.764 183.365 159.546 182.457 154.669 180.756 163.289 189.641 175.388 195.161 188.733 195.161 214.972 195.161 236.257 173.875 236.257 147.637 236.257 126.843 222.911 109.187 204.31 102.76Z" fill="#DDDDDD" transform="matrix(1 0 0 1.00181 169.853 323.632)"/><path d="M188.771 101.664C163.289 101.664 142.533 121.701 141.323 146.881 141.815 147.032 142.231 147.108 142.609 147.108 143.781 147.108 145.255 146.654 146.2 144.877L146.73 145.217 146.73 145.217 148.809 146.427 148.998 146.541 149.036 145.936 152.552 139.395C153.384 139.017 154.178 138.337 154.631 137.202L154.934 136.938C155.047 136.824 155.199 136.711 155.274 136.56 155.274 136.56 155.274 136.56 155.274 136.56L156.106 138.072 157.807 135.992C157.845 135.992 157.883 135.992 157.921 135.992 158.185 135.992 158.45 135.955 158.715 135.917 158.752 135.917 158.752 135.917 158.79 135.917 159.206 136.068 159.66 136.144 160.189 136.144 160.189 136.144 160.189 136.144 160.189 136.144 162.042 136.144 163.365 135.085 164.234 133.006 164.877 132.779 165.369 132.439 165.747 132.061 166.352 131.909 166.805 131.682 167.146 131.456 167.372 131.418 167.599 131.342 167.788 131.229L167.977 131.342 169.49 130.51C169.716 130.548 169.943 130.548 170.208 130.548L171.342 130.586 171.834 130.284C171.871 130.284 171.871 130.284 171.909 130.284 172.287 130.321 172.741 130.397 173.27 130.397 174.518 130.397 175.69 130.057 176.711 129.414 177.618 129.225 178.488 129.074 179.282 129.074L180.302 129.074 181.021 128.62C181.172 128.62 181.399 128.62 181.588 128.658 181.928 128.696 182.306 128.696 182.76 128.696 183.025 128.696 183.289 128.696 183.516 128.658L184.121 128.62 184.537 128.431C184.688 128.431 184.877 128.469 185.066 128.469 185.406 128.507 185.86 128.544 186.352 128.544 186.805 128.544 187.259 128.507 187.675 128.431L188.62 128.242C189.112 128.393 189.679 128.544 190.321 128.544 190.926 128.544 191.493 128.431 192.061 128.204L192.25 128.129 192.741 128.469 193.686 128.582C193.837 128.62 194.102 128.658 194.367 128.733 195.009 128.885 195.841 129.074 196.786 129.074 196.862 129.074 196.975 129.074 197.051 129.074 197.618 129.263 198.261 129.338 198.941 129.338 198.979 129.338 199.017 129.338 199.055 129.338 200.151 130.17 201.285 130.284 201.853 130.284 201.853 130.284 201.853 130.284 201.853 130.284 202.382 130.284 202.873 130.208 203.251 130.057 204.31 130.473 205.482 130.813 206.768 130.813 206.843 130.813 206.919 130.813 206.994 130.813L207.259 131.531 208.582 131.645C209.225 132.287 210.359 133.233 211.985 133.27 212.779 133.648 213.573 133.724 214.102 133.724 214.253 133.724 214.367 133.724 214.48 133.724 214.518 133.762 214.556 133.8 214.594 133.8 215.123 134.178 215.955 134.745 217.013 134.972 218.072 135.614 219.055 136.03 220.038 136.257L220.681 136.408C220.718 136.446 220.718 136.446 220.756 136.484 221.664 137.505 222.647 137.958 223.403 138.147L225.406 141.361 226.314 140.492 226.73 141.323 228.318 140.945 230.095 143.289 231.078 142.798 231.531 143.327 232.25 143.592C232.287 143.63 232.363 143.667 232.401 143.705 232.703 143.894 233.119 144.197 233.686 144.423 234.518 145.331 235.463 145.709 236.182 145.822 234.48 121.21 213.913 101.664 188.771 101.664Z" fill="#DDDDDD" transform="matrix(1 0 0 1.00181 169.853 323.632)"/><path d="M182.684 145.86C182.684 149.723 179.553 152.854 175.69 152.854 171.827 152.854 168.696 149.723 168.696 145.86 168.696 141.997 171.827 138.866 175.69 138.866 179.553 138.866 182.684 141.997 182.684 145.86Z" stroke="#DDDDDD" stroke-width="3.02457" stroke-linecap="round" stroke-linejoin="round" stroke-miterlimit="10" fill="none" transform="matrix(1 0 0 1.00181 169.853 323.632)"/><path d="M214.405 145.86C214.405 149.723 211.273 152.854 207.41 152.854 203.547 152.854 200.416 149.723 200.416 145.86 200.416 141.997 203.547 138.866 207.41 138.866 211.273 138.866 214.405 141.997 214.405 145.86Z" stroke="#DDDDDD" stroke-width="3.02457" stroke-linecap="round" stroke-linejoin="round" stroke-miterlimit="10" fill="none" transform="matrix(1 0 0 1.00181 169.853 323.632)"/><path d="M236.295 147.637C236.295 173.884 215.018 195.161 188.771 195.161 162.525 195.161 141.248 173.884 141.248 147.637 141.248 121.39 162.525 100.113 188.771 100.113 215.018 100.113 236.295 121.39 236.295 147.637Z" stroke="#34323A" stroke-width="4.53686" stroke-linecap="round" stroke-linejoin="round" stroke-miterlimit="10" fill="none" transform="matrix(1 0 0 1.00181 169.853 323.632)"/><path d="M252.628 249.641C252.628 284.636 224.021 313.006 188.733 313.006 153.446 313.006 124.839 284.636 124.839 249.641 124.839 214.645 153.446 186.276 188.733 186.276 224.021 186.276 252.628 214.645 252.628 249.641Z" fill="#FFFFFF" transform="matrix(1 0 0 1.00181 169.853 323.632)"/><path d="M207.297 188.998C208.847 190.662 210.321 192.401 211.72 194.216L206.314 193.724 154.669 193.724 145.066 203.365C145.066 203.365 162.609 210.737 176.295 211.569 189.981 212.401 204.159 210.17 205.633 210.17 205.633 212.023 203.44 244.197 207.713 265.18 208.809 270.548 206.919 276.106 202.798 279.735 191.531 289.603 176.749 295.577 160.529 295.577 154.064 295.577 147.826 294.631 141.966 292.854 153.611 305.255 170.246 313.006 188.696 313.006 223.97 313.006 252.59 284.612 252.59 249.641 252.628 221.059 233.535 196.9 207.297 188.998Z" fill="#DDDDDD" transform="matrix(1 0 0 1.00181 169.853 323.632)"/><path d="M209.112 196.597C209.112 196.597 209.112 230.359 213.27 265.369 215.425 283.63 222.042 270.397 228.847 270.397 235.652 270.397 236.333 206.238 209.112 196.597Z" fill="#F74B71" transform="matrix(1 0 0 1.00181 169.853 323.632)"/><path d="M252.628 249.641C252.628 284.636 224.021 313.006 188.733 313.006 153.446 313.006 124.839 284.636 124.839 249.641 124.839 214.645 153.446 186.276 188.733 186.276 224.021 186.276 252.628 214.645 252.628 249.641Z" stroke="#34323A" stroke-width="4.53686" stroke-linecap="round" stroke-linejoin="round" stroke-miterlimit="10" fill="none" transform="matrix(1 0 0 1.00181 169.853 323.632)"/><path d="M235.69 225.671 259.395 216.144 269.301 200.076 273.044 170.813 276.786 200.076 313.081 169.149 299.698 190.473 266.125 224.575 238.299 235.992Z" fill="#B55D4C" transform="matrix(1 0 0 1.00181 169.853 323.632)"/><path d="M243.214 223.516 262.911 219.924 284.839 198.79 274.405 204.537 274.405 182.42 269.754 196.597 259.395 216.144Z" fill="#E27F71" fill-opacity="0.5" transform="matrix(1 0 0 1.00181 169.853 323.632)"/><path d="M235.69 225.671 259.395 216.144 269.301 200.076 273.044 170.813 276.786 200.076 313.081 169.149 299.698 190.473 266.125 224.575 238.299 235.992Z" stroke="#34323A" stroke-width="4.53686" stroke-linecap="round" stroke-linejoin="round" stroke-miterlimit="10" fill="none" transform="matrix(1 0 0 1.00181 169.853 323.632)"/><path d="M209.112 196.597C209.112 196.597 209.112 230.359 213.27 265.369 215.425 283.63 222.042 270.397 228.847 270.397 235.652 270.397 236.333 206.238 209.112 196.597Z" fill="#F74B71" transform="matrix(1 0 0 1.00181 169.853 323.632)"/><path d="M228.393 244.839 217.505 207.94C222.079 206.805 228.431 205.028 228.431 205.028L224.953 196.597 209.112 200.756 209.376 211.229C209.376 211.229 209.376 211.229 209.414 211.191 210.737 210.057 212.779 210.737 213.195 212.439 213.724 214.669 214.405 225.217 215.274 230.586 217.807 246.957 219.622 254.934 219.622 257.883 219.622 267.41 214.367 273.459 214.367 273.459L218.715 275.35 233.573 268.431 228.393 244.839Z" fill="#DD3E68" transform="matrix(1 0 0 1.00181 169.853 323.632)"/><path d="M210.284 220.454 226.427 215.085 227.94 222.079 210.775 228.469Z" fill="#DDDDDD" transform="matrix(1 0 0 1.00181 169.853 323.632)"/><path d="M214.14 219.509 226.427 215.085 227.94 222.079 214.669 227.524Z" fill="#C1C1C1" transform="matrix(1 0 0 1.00181 169.853 323.632)"/><path d="M210.284 220.454 226.427 215.085 227.94 222.079 210.775 228.469Z" stroke="#34323A" stroke-width="2.26843" stroke-linecap="round" stroke-linejoin="round" stroke-miterlimit="10" fill="none" transform="matrix(1 0 0 1.00181 169.853 323.632)"/><path d="M210.284 245.217 226.427 239.849 227.94 246.843 210.775 253.233Z" fill="#DDDDDD" transform="matrix(1 0 0 1.00181 169.853 323.632)"/><path d="M217.316 242.873 227.297 236.749 228.166 243.743 218.488 250.132Z" fill="#C1C1C1" transform="matrix(1 0 0 1.00181 169.853 323.632)"/><path d="M210.284 245.217 226.427 239.849 227.94 246.843 210.775 253.233Z" stroke="#34323A" stroke-width="2.26843" stroke-linecap="round" stroke-linejoin="round" stroke-miterlimit="10" fill="none" transform="matrix(1 0 0 1.00181 169.853 323.632)"/><path d="M209.112 196.597C209.112 196.597 209.112 230.359 213.27 265.369 215.425 283.63 222.042 270.397 228.847 270.397 235.652 270.397 236.333 206.238 209.112 196.597Z" stroke="#34323A" stroke-width="4.53686" stroke-linecap="round" stroke-linejoin="round" stroke-miterlimit="10" fill="none" transform="matrix(1 0 0 1.00181 169.853 323.632)"/><path d="M223.592 193.233 214.405 196.597C214.405 196.597 224.499 277.618 234.064 275.35 243.63 273.081 254.896 275.388 254.216 266.692 253.346 255.955 249.149 255.955 223.592 193.233Z" fill="#F74B71" transform="matrix(1 0 0 1.00181 169.853 323.632)"/><path d="M254.178 266.692C253.308 255.955 249.149 255.955 223.554 193.233L218.45 195.085C236.333 244.537 240.076 245.898 240.832 255.879 241.361 262.76 234.442 262.76 226.805 263.592 229.149 271.115 231.607 275.955 234.026 275.388 243.592 273.081 254.896 275.388 254.178 266.692Z" fill="#DD3E68" transform="matrix(1 0 0 1.00181 169.853 323.632)"/><path d="M218.488 219.924 218.488 219.924C221.323 217.089 225.066 215.312 229.074 214.934L233.346 214.556 234.745 221.55C234.745 221.55 230.662 222.155 226.654 223.1 224.461 223.63 218.979 227.94 218.979 227.94L218.488 219.924Z" fill="#FFFFFF" transform="matrix(1 0 0 1.00181 169.853 323.632)"/><path d="M229.074 214.934C228.015 215.047 226.957 215.236 225.898 215.539 226.843 218.072 227.751 220.454 228.582 222.684 231.871 222.004 234.745 221.55 234.745 221.55L234.14 218.563C233.611 217.316 233.044 215.992 232.476 214.631L229.074 214.934Z" fill="#C1C1C1" transform="matrix(1 0 0 1.00181 169.853 323.632)"/><path d="M218.488 219.924 218.488 219.924C221.323 217.089 225.066 215.312 229.074 214.934L233.346 214.556 234.745 221.55C234.745 221.55 230.662 222.155 226.654 223.1 224.461 223.63 218.979 227.94 218.979 227.94L218.488 219.924Z" stroke="#34323A" stroke-width="2.26843" stroke-linecap="round" stroke-linejoin="round" stroke-miterlimit="10" fill="none" transform="matrix(1 0 0 1.00181 169.853 323.632)"/><path d="M224.461 246.73 224.461 246.73C228.053 243.138 232.817 240.87 237.883 240.416L243.327 239.924 248.242 249.641C248.242 249.641 239.924 249.565 234.783 250.775 231.985 251.418 225.028 256.9 225.028 256.9L224.461 246.73Z" fill="#FFFFFF" transform="matrix(1 0 0 1.00181 169.853 323.632)"/><path d="M238.563 240.265C237.694 240.34 236.862 240.492 236.03 240.643 237.429 244.499 238.488 247.486 239.244 249.981 243.894 249.452 248.923 249.49 248.923 249.49L244.008 239.773 238.563 240.265Z" fill="#C1C1C1" transform="matrix(1 0 0 1.00181 169.853 323.632)"/><path d="M223.176 246.654 223.176 246.654C226.768 243.062 233.044 240.794 238.11 240.34L243.554 239.849 248.242 249.641C248.242 249.641 239.698 248.28 235.047 250.699 230.548 253.044 225.293 256.824 225.293 256.824L223.176 246.654Z" stroke="#34323A" stroke-width="2.26843" stroke-linecap="round" stroke-linejoin="round" stroke-miterlimit="10" fill="none" transform="matrix(1 0 0 1.00181 169.853 323.632)"/><path d="M223.592 193.233 214.405 196.597C214.405 196.597 224.499 277.618 234.064 275.35 243.63 273.081 254.896 275.388 254.216 266.692 253.346 255.955 249.149 255.955 223.592 193.233Z" stroke="#34323A" stroke-width="4.53686" stroke-linecap="round" stroke-linejoin="round" stroke-miterlimit="10" fill="none" transform="matrix(1 0 0 1.00181 169.853 323.632)"/><path d="M141.248 130.699C141.248 130.699 138.223 60.794 211.985 62.9112 230.246 63.4405 233.648 56.8998 233.648 56.8998 233.648 56.8998 264.234 107.826 235.047 137.013 221.361 121.361 168.658 100.151 141.248 130.699Z" fill="#F74B71" transform="matrix(1 0 0 1.00181 169.853 323.632)"/><path d="M233.648 56.8998C233.648 56.8998 232.854 58.4499 229.906 59.9622 234.026 81.8904 213.875 94.6692 170.17 101.588 136.749 106.881 142.079 118.979 142.079 118.979 139.433 121.626 143.894 124.045 145.86 126.276 174.178 102.382 222.155 122.193 235.123 136.975 264.234 107.826 233.648 56.8998 233.648 56.8998Z" fill="#DD3E68" transform="matrix(1 0 0 1.00181 169.853 323.632)"/><path d="M141.248 130.699C141.248 130.699 138.223 60.794 211.985 62.9112 230.246 63.4405 233.648 56.8998 233.648 56.8998 233.648 56.8998 264.234 107.826 235.047 137.013 221.361 121.361 168.658 100.151 141.248 130.699Z" stroke="#34323A" stroke-width="4.53686" stroke-linecap="round" stroke-linejoin="round" stroke-miterlimit="10" fill="none" transform="matrix(1 0 0 1.00181 169.853 323.632)"/><path d="M134.518 132.703C134.367 129.754 134.291 132.287 134.253 130.662 134.253 129.641 134.291 130.586 134.442 128.469 134.594 129.225 134.783 129.263 135.047 126.125 135.312 119.584 135.652 123.1 136.03 123.705 136.408 120.756 136.862 123.97 137.391 121.248 137.883 121.134 138.45 120.492 139.093 118.79 139.698 118.45 140.378 114.934 141.096 116.371 141.815 113.762 142.571 112.968 143.365 114.026 144.159 111.342 144.991 114.631 145.898 111.796 146.768 109.112 147.675 109.187 148.658 109.716 149.603 110.813 150.586 111.115 151.607 107.864 152.628 104.839 153.648 106.767 154.707 106.238 155.766 105.974 156.862 106.616 157.958 104.915 159.055 102.798 160.189 103.667 161.323 103.932 161.323 103.062 161.399 104.688 161.512 103.856 161.626 103.214 161.815 103.138 162.079 103.667 162.344 102.004 162.647 101.096 163.025 103.365 163.403 102.533 163.819 103.894 164.31 102.987 164.802 102.231 165.331 103.97 165.936 102.571 166.541 102.457 167.183 102.004 167.864 102.117 168.582 102.76 169.301 104.008 170.132 101.664 170.926 100.529 171.796 102.609 172.665 101.21 173.573 99.8866 174.518 101.172 175.501 100.794 176.484 101.89 177.505 100.756 178.601 100.454 179.66 101.853 180.794 98.7902 181.928 100.227 183.062 100.378 184.272 100 185.482 100.113 186.692 100.227 187.977 99.7354 189.263 100.113 190.548 101.021 191.909 99.811 193.27 100.265 194.631 100.265 196.03 99.8488 197.467 100.605 198.904 102.155 200.34 101.512 201.815 101.172 203.289 100.416 204.802 101.096 206.352 101.966 207.902 103.138 209.452 102.647 211.04 103.025 212.628 102.647 214.216 103.667 215.841 104.348 217.467 105.785 219.093 105.444 220.756 105.974 222.42 106.692 224.083 106.314 225.785 107.94 227.486 108.771 229.187 109.414 230.889 110.284 231.191 110.132 231.682 110.737 232.325 111.078 232.968 110.888 233.762 112.892 234.594 112.476 235.463 112.287 236.371 113.913 237.316 114.291 238.261 112.741 239.206 114.972 240.076 116.295 240.983 116.824 241.777 119.319 242.495 118.261 243.214 117.694 243.781 119.168 244.197 120 245.18 123.894 245.898 123.176 246.427 123.705 246.957 125.785 247.297 125.444 247.448 127.221 247.599 129.641 247.599 128.204 247.448 130.473 247.297 131.456 247.032 133.384 246.616 133.346 246.2 135.35 245.709 136.635 245.104 135.803 244.499 137.996 243.819 137.694 243.1 137.732 242.382 139.584 241.588 138.639 240.794 139.093 240 139.357 239.168 138.904 238.337 139.773 237.505 140.113 236.673 141.815 235.917 139.698 235.123 139.924 234.367 139.055 233.686 138.79 232.854 137.845 231.985 136.749 231.153 137.164 230.321 136.03 229.452 135.388 228.62 135.577 227.788 133.989 226.919 133.233 226.049 134.064 225.18 132.703 224.348 133.686 223.478 132.59 222.609 131.682 221.739 130.548 220.87 131.191 220 130.964 219.093 130.51 218.223 129.868 217.316 130.057 216.408 128.809 215.501 128.658 214.594 128.015 213.648 129.338 212.703 127.524 211.758 129.149 210.813 126.578 209.83 126.503 208.847 123.97 207.902 125.633 206.881 125.595 205.898 125.671 204.877 125.255 203.856 124.839 202.836 123.781 201.777 126.276 200.718 124.197 199.66 123.781 198.563 124.499 197.467 123.705 196.371 124.083 195.236 123.516 194.102 123.365 192.968 122.533 191.796 122.533 190.586 123.214 189.376 123.705 188.166 121.361 186.957 123.214 185.709 123.44 184.461 122.836 183.176 123.403 181.89 123.516 180.567 122.987 179.206 123.781 177.845 123.781 176.484 124.045 175.085 124.348 173.384 125.898 171.796 124.31 170.284 125.217 168.809 125.18 167.41 125.369 166.125 126.2 164.839 126.843 163.63 125.974 162.533 127.297 161.399 129.074 160.378 130.851 159.433 128.507 158.488 131.153 157.58 131.04 156.749 129.792 155.917 129.112 155.123 132.061 154.405 131.153 153.686 131.342 153.006 131.115 152.363 132.552 151.72 132.212 151.115 132.59 150.548 134.026 149.981 136.711 149.414 133.686 148.885 135.539 148.355 135.388 147.826 138.185 147.297 137.089 146.768 136.9 146.276 136.824 145.747 138.639 144.764 137.202 143.932 139.509 143.214 140.302 142.495 143.251 141.89 140.605 141.399 140.454 140.492 142.155 139.66 139.319 138.904 139.471 138.147 138.261 137.429 135.841 136.824 137.391 136.219 131.38 135.728 136.56 135.312 134.896 134.972 134.367 134.669 136.446 134.518 132.703Z" fill="#FFFFFF" transform="matrix(1 0 0 1.00181 169.853 323.632)"/><path d="M247.561 127.221C247.41 125.444 247.07 125.747 246.541 123.705 246.427 123.592 246.276 123.516 246.163 123.478 246.163 123.63 246.125 123.781 246.125 123.97 245.974 124.953 245.709 126.881 245.293 126.843 244.877 128.847 244.386 130.132 243.781 129.301 243.63 129.83 243.478 130.246 243.327 130.51 243.176 130.775 242.987 130.51 242.836 131.078 242.495 131.191 242.155 130.737 241.777 131.267 241.323 131.871 240.87 130.359 240.454 131.909 240.038 131.078 239.584 133.951 239.168 132.665 238.752 132.817 238.337 132.628 237.921 132.968 237.505 132.817 237.127 133.611 236.749 133.043 236.371 133.081 235.992 133.8 235.614 132.817 235.236 132.665 234.858 132.817 234.48 132.552 234.102 132.514 233.762 131.267 233.384 131.645 233.044 130.51 232.665 130.132 232.325 131.38 231.985 132.363 231.645 132.136 231.304 131.153 230.964 129.641 230.624 131.418 230.284 129.716 230.132 129.83 229.943 128.658 229.792 129.943 229.641 129.868 229.452 129.565 229.301 128.771 228.96 128.582 228.658 127.524 228.318 127.788 228.166 127.902 227.977 128.204 227.826 128.242 227.675 128.28 227.486 127.977 227.297 126.919 226.768 127.864 226.2 125.406 225.595 125.822 224.991 123.289 224.31 123.062 223.592 125.104 223.251 123.97 222.911 125.747 222.571 124.65 222.004 125.595 221.437 127.524 220.832 123.97 220.529 123.214 220.227 123.214 219.924 123.327 219.622 123.819 219.319 123.516 219.017 123.44 218.715 124.045 218.412 123.667 218.11 124.234 217.807 123.781 217.505 124.197 217.202 123.025 217.013 121.512 216.824 120.605 216.635 121.55 216.446 121.815 216.257 122.382 216.068 122.42 215.69 121.89 215.274 121.059 214.896 121.626 214.518 122.76 214.102 122.231 213.686 121.361 213.157 121.323 212.59 121.248 212.061 120.794 211.493 120.794 210.926 121.134 210.321 120.34 209.716 120.302 209.112 119.66 208.469 120.076 208.204 118.979 207.977 119.811 207.713 118.904 207.448 118.715 207.221 118.677 206.994 118.715 206.503 118.828 206.011 119.206 205.52 119.206 204.537 119.282 203.516 118.866 202.495 118.45 201.475 117.391 200.416 119.887 199.357 117.807 198.299 117.391 197.202 118.11 196.106 117.316 195.009 117.694 193.875 117.127 192.741 116.975 191.607 116.144 190.435 116.144 189.225 116.824 188.015 117.316 186.805 114.972 185.595 116.824 184.348 117.051 183.1 116.446 181.815 117.013 180.529 117.127 179.206 116.597 177.845 117.391 176.484 117.391 175.123 117.656 173.724 117.958 172.023 119.509 170.435 117.921 168.923 118.828 168.166 118.828 167.448 118.601 166.768 118.979 166.087 118.526 165.406 119.811 164.764 119.811 164.121 119.698 163.478 120.983 162.911 120.113 162.306 120 161.739 122.495 161.172 120.945 160.605 120.945 160.076 121.021 159.546 123.1 159.017 124.839 158.526 125.142 158.034 122.155 157.543 122.344 157.089 124.272 156.635 124.272 156.181 124.499 155.766 122.949 155.35 123.44 154.934 122.684 154.518 123.251 154.14 124.197 153.762 124.802 153.384 124.915 153.006 124.802 152.628 124.197 152.287 125.785 151.947 125.028 151.607 124.991 151.267 125.898 150.964 126.2 150.662 124.348 150.321 125.633 150.019 126.276 149.716 128.885 149.414 127.75 149.149 127.675 148.847 127.183 148.582 128.242 148.318 128.733 148.053 125.785 147.75 130.057 147.486 129.187 147.221 129.565 146.957 128.658 146.692 130.321 146.427 131.418 146.163 131.834 145.898 130.737 145.633 129.641 145.369 130.548 145.104 130.775 144.839 129.754 144.575 129.376 144.31 132.325 143.819 132.023 143.365 131.834 142.949 132.325 142.533 133.611 142.155 133.913 141.777 133.989 141.437 135.652 141.096 135.539 140.794 135.236 140.492 135.009 140.227 134.972 139.962 134.14 139.509 135.539 139.093 134.669 138.677 134.253 138.261 133.913 137.845 132.892 137.467 133.195 137.089 132.59 136.711 131.682 136.371 131.115 136.03 130.548 135.69 130.321 135.388 131.115 135.199 129.225 135.009 128.469 134.858 128.204 134.707 129.338 134.556 129.149 134.48 128.62 134.329 130.737 134.291 129.83 134.291 130.813 134.291 132.439 134.367 129.906 134.556 132.854 134.707 136.597 135.009 134.518 135.388 135.085 135.803 136.749 136.295 131.607 136.9 137.58 137.202 136.824 137.543 137.013 137.883 137.58 138.223 138.147 138.601 139.055 138.979 139.66 139.357 139.357 139.773 140.378 140.189 140.718 140.605 141.172 141.021 142.042 141.475 140.605 141.739 141.437 142.004 141.475 142.306 141.701 142.609 142.004 142.949 142.117 143.289 140.454 143.63 140.378 144.045 140.076 144.461 138.79 144.877 138.299 145.331 138.526 145.822 138.79 146.087 135.841 146.352 136.219 146.616 137.24 146.881 137.013 147.146 136.106 147.41 137.202 147.675 138.299 147.94 137.883 148.204 136.786 148.469 135.161 148.733 136.03 148.998 135.652 149.263 136.56 149.527 132.25 149.83 135.199 150.095 134.669 150.397 133.648 150.662 134.14 150.964 134.216 151.229 135.388 151.531 132.741 151.834 132.098 152.136 130.813 152.476 132.665 152.779 132.363 153.119 131.456 153.459 131.493 153.8 132.25 154.14 130.624 154.518 131.267 154.896 131.38 155.274 131.267 155.652 130.662 156.03 129.679 156.446 129.149 156.862 129.906 157.278 129.414 157.694 130.926 158.147 130.737 158.601 130.737 159.055 128.809 159.546 128.62 160.038 131.607 160.529 131.304 161.059 129.565 161.588 127.486 162.117 127.41 162.684 127.41 163.251 128.998 163.819 126.503 164.423 126.578 165.028 127.486 165.633 126.2 166.276 126.276 166.919 126.314 167.599 124.991 168.28 125.444 168.96 125.066 169.679 125.255 170.435 125.293 171.909 124.386 173.535 125.974 175.236 124.423 176.635 124.121 178.034 123.856 179.357 123.856 180.718 123.062 182.004 123.592 183.327 123.478 184.612 122.911 185.898 123.516 187.108 123.289 188.355 121.437 189.565 123.743 190.737 123.289 191.947 122.609 193.081 122.609 194.253 123.44 195.388 123.592 196.522 124.121 197.618 123.781 198.715 124.537 199.811 123.856 200.87 124.272 201.928 126.352 202.987 123.856 204.008 124.915 205.028 125.369 206.049 125.747 207.032 125.671 207.524 125.671 208.015 125.293 208.544 125.18 208.847 125.936 209.149 125.936 209.49 126.049 209.83 126.767 210.17 125.217 210.51 126.843 210.851 127.675 211.229 127.75 211.645 127.524 212.023 127.864 212.439 127.108 212.854 128.091 213.27 128.771 213.724 128.998 214.178 128.998 214.631 128.998 215.123 128.847 215.614 128.733 216.068 129.603 216.522 128.771 216.975 129.49 217.429 130.284 217.883 128.923 218.337 129.981 218.941 130.51 219.546 130.775 220.113 130.548 220.681 132.136 221.21 133.157 221.739 131.342 222.079 130.699 222.458 131.456 222.798 131.909 223.516 131.834 224.234 132.514 224.915 132.854 225.595 133.195 226.276 133.535 226.919 133.875 227.561 135.009 228.204 134.14 228.847 135.085 229.225 134.896 229.603 136.219 229.981 135.917 230.17 135.955 230.397 136.068 230.662 136.219 230.926 136.408 231.191 136.786 231.493 137.089 231.796 137.58 232.098 136.673 232.363 137.013 232.665 138.11 232.93 137.996 233.157 138.072 233.384 138.904 233.573 136.938 233.8 138.79 234.14 138.601 234.518 138.866 234.896 139.433 235.274 139.66 235.652 139.811 236.068 139.698 236.446 140.756 236.862 140.87 237.278 140.681 237.694 140.492 238.11 139.962 238.526 139.773 238.941 139.433 239.357 139.244 239.773 139.206 240.189 139.168 240.605 139.244 240.983 139.093 241.777 138.677 242.571 139.622 243.289 137.732 244.008 137.656 244.688 137.958 245.293 135.803 245.898 136.635 246.389 135.388 246.805 133.346 247.221 133.346 247.486 131.418 247.637 130.473 247.713 128.204 247.713 129.641 247.561 127.221Z" fill="#DDDDDD" transform="matrix(1 0 0 1.00181 169.853 323.632)"/><path d="M134.518 132.703C134.367 129.754 134.291 132.287 134.253 130.662 134.253 129.641 134.291 130.586 134.442 128.469 134.594 129.225 134.783 129.263 135.047 126.125 135.312 119.584 135.652 123.1 136.03 123.705 136.408 120.756 136.862 123.97 137.391 121.248 137.883 121.134 138.45 120.492 139.093 118.79 139.698 118.45 140.378 114.934 141.096 116.371 141.815 113.762 142.571 112.968 143.365 114.026 144.159 111.342 144.991 114.631 145.898 111.796 146.768 109.112 147.675 109.187 148.658 109.716 149.603 110.813 150.586 111.115 151.607 107.864 152.628 104.839 153.648 106.767 154.707 106.238 155.766 105.974 156.862 106.616 157.958 104.915 159.055 102.798 160.189 103.667 161.323 103.932 161.323 103.062 161.399 104.688 161.512 103.856 161.626 103.214 161.815 103.138 162.079 103.667 162.344 102.004 162.647 101.096 163.025 103.365 163.403 102.533 163.819 103.894 164.31 102.987 164.802 102.231 165.331 103.97 165.936 102.571 166.541 102.457 167.183 102.004 167.864 102.117 168.582 102.76 169.301 104.008 170.132 101.664 170.926 100.529 171.796 102.609 172.665 101.21 173.573 99.8866 174.518 101.172 175.501 100.794 176.484 101.89 177.505 100.756 178.601 100.454 179.66 101.853 180.794 98.7902 181.928 100.227 183.062 100.378 184.272 100 185.482 100.113 186.692 100.227 187.977 99.7354 189.263 100.113 190.548 101.021 191.909 99.811 193.27 100.265 194.631 100.265 196.03 99.8488 197.467 100.605 198.904 102.155 200.34 101.512 201.815 101.172 203.289 100.416 204.802 101.096 206.352 101.966 207.902 103.138 209.452 102.647 211.04 103.025 212.628 102.647 214.216 103.667 215.841 104.348 217.467 105.785 219.093 105.444 220.756 105.974 222.42 106.692 224.083 106.314 225.785 107.94 227.486 108.771 229.187 109.414 230.889 110.284 231.191 110.132 231.682 110.737 232.325 111.078 232.968 110.888 233.762 112.892 234.594 112.476 235.463 112.287 236.371 113.913 237.316 114.291 238.261 112.741 239.206 114.972 240.076 116.295 240.983 116.824 241.777 119.319 242.495 118.261 243.214 117.694 243.781 119.168 244.197 120 245.18 123.894 245.898 123.176 246.427 123.705 246.957 125.785 247.297 125.444 247.448 127.221 247.599 129.641 247.599 128.204 247.448 130.473 247.297 131.456 247.032 133.384 246.616 133.346 246.2 135.35 245.709 136.635 245.104 135.803 244.499 137.996 243.819 137.694 243.1 137.732 242.382 139.584 241.588 138.639 240.794 139.093 240 139.357 239.168 138.904 238.337 139.773 237.505 140.113 236.673 141.815 235.917 139.698 235.123 139.924 234.367 139.055 233.686 138.79 232.854 137.845 231.985 136.749 231.153 137.164 230.321 136.03 229.452 135.388 228.62 135.577 227.788 133.989 226.919 133.233 226.049 134.064 225.18 132.703 224.348 133.686 223.478 132.59 222.609 131.682 221.739 130.548 220.87 131.191 220 130.964 219.093 130.51 218.223 129.868 217.316 130.057 216.408 128.809 215.501 128.658 214.594 128.015 213.648 129.338 212.703 127.524 211.758 129.149 210.813 126.578 209.83 126.503 208.847 123.97 207.902 125.633 206.881 125.595 205.898 125.671 204.877 125.255 203.856 124.839 202.836 123.781 201.777 126.276 200.718 124.197 199.66 123.781 198.563 124.499 197.467 123.705 196.371 124.083 195.236 123.516 194.102 123.365 192.968 122.533 191.796 122.533 190.586 123.214 189.376 123.705 188.166 121.361 186.957 123.214 185.709 123.44 184.461 122.836 183.176 123.403 181.89 123.516 180.567 122.987 179.206 123.781 177.845 123.781 176.484 124.045 175.085 124.348 173.384 125.898 171.796 124.31 170.284 125.217 169.527 125.217 168.809 124.991 168.129 125.369 167.448 124.915 166.768 126.2 166.125 126.2 165.482 126.087 164.839 127.372 164.272 126.503 163.667 126.389 163.1 128.885 162.533 127.335 161.966 127.335 161.437 127.41 160.907 129.49 160.378 131.229 159.887 131.531 159.395 128.544 158.904 128.733 158.45 130.662 157.996 130.662 157.543 130.888 157.127 129.338 156.711 129.83 156.295 129.074 155.879 129.641 155.501 130.586 155.123 131.191 154.745 131.304 154.367 131.191 153.989 130.586 153.648 132.174 153.308 131.418 152.968 131.38 152.628 132.287 152.325 132.59 152.023 130.737 151.682 132.023 151.38 132.665 151.078 135.274 150.775 134.14 150.51 134.064 150.208 133.573 149.943 134.631 149.679 135.123 149.414 132.174 149.112 136.446 148.847 135.577 148.582 135.955 148.318 135.047 148.053 136.711 147.788 137.807 147.524 138.223 147.259 137.127 146.994 136.03 146.73 136.938 146.465 137.164 146.2 136.144 145.936 135.766 145.671 138.715 145.18 138.412 144.726 138.223 144.31 138.715 143.894 140 143.516 140.302 143.138 140.378 142.798 142.042 142.457 141.928 142.155 141.626 141.853 141.399 141.588 141.361 141.323 140.529 140.87 141.928 140.454 141.059 140.038 140.643 139.622 140.302 139.206 139.282 138.828 139.584 138.45 138.979 138.072 138.072 137.732 137.505 137.391 136.938 137.051 136.711 136.749 137.505 136.144 131.493 135.652 136.673 135.236 135.009 134.972 134.367 134.669 136.446 134.518 132.703Z" stroke="#34323A" stroke-width="3.02457" stroke-linecap="round" stroke-linejoin="round" stroke-miterlimit="10" fill="none" transform="matrix(1 0 0 1.00181 169.853 323.632)"/><path d="M134.518 132.703C134.367 129.754 134.291 132.287 134.253 130.662 134.253 129.641 134.291 130.586 134.442 128.469 134.594 129.225 134.783 129.263 135.047 126.125 135.312 119.584 135.652 123.1 136.03 123.705 136.408 120.756 136.862 123.97 137.391 121.248 137.883 121.134 138.45 120.492 139.093 118.79 139.698 118.45 140.378 114.934 141.096 116.371 141.815 113.762 142.571 112.968 143.365 114.026 144.159 111.342 144.991 114.631 145.898 111.796 146.768 109.112 147.675 109.187 148.658 109.716 149.603 110.813 150.586 111.115 151.607 107.864 152.628 104.839 153.648 106.767 154.707 106.238 155.766 105.974 156.862 106.616 157.958 104.915 159.055 102.798 160.189 103.667 161.323 103.932 161.323 103.062 161.399 104.688 161.512 103.856 161.626 103.214 161.815 103.138 162.079 103.667 162.344 102.004 162.647 101.096 163.025 103.365 163.403 102.533 163.819 103.894 164.31 102.987 164.802 102.231 165.331 103.97 165.936 102.571 166.541 102.457 167.183 102.004 167.864 102.117 168.582 102.76 169.301 104.008 170.132 101.664 170.926 100.529 171.796 102.609 172.665 101.21 173.573 99.8866 174.518 101.172 175.501 100.794 176.484 101.89 177.505 100.756 178.601 100.454 179.66 101.853 180.794 98.7902 181.928 100.227 183.062 100.378 184.272 100 185.482 100.113 186.692 100.227 187.977 99.7354 189.263 100.113 190.548 101.021 191.909 99.811 193.27 100.265 194.631 100.265 196.03 99.8488 197.467 100.605 198.904 102.155 200.34 101.512 201.815 101.172 203.289 100.416 204.802 101.096 206.352 101.966 207.902 103.138 209.452 102.647 211.04 103.025 212.628 102.647 214.216 103.667 215.841 104.348 217.467 105.785 219.093 105.444 220.756 105.974 222.42 106.692 224.083 106.314 225.785 107.94 227.486 108.771 229.187 109.414 230.889 110.284 231.191 110.132 231.682 110.737 232.325 111.078 232.968 110.888 233.762 112.892 234.594 112.476 235.463 112.287 236.371 113.913 237.316 114.291 238.261 112.741 239.206 114.972 240.076 116.295 240.983 116.824 241.777 119.319 242.495 118.261 243.214 117.694 243.781 119.168 244.197 120 245.18 123.894 245.898 123.176 246.427 123.705 246.957 125.785 247.297 125.444 247.448 127.221 247.599 129.641 247.599 128.204 247.448 130.473 247.297 131.456 247.032 133.384 246.616 133.346 246.2 135.35 245.709 136.635 245.104 135.803 244.499 137.996 243.819 137.694 243.1 137.732 242.382 139.584 241.588 138.639 240.794 139.093 240 139.357 239.168 138.904 238.337 139.773 237.505 140.113 236.673 141.815 235.917 139.698 235.123 139.924 234.367 139.055 233.686 138.79 232.854 137.845 231.985 136.749 231.153 137.164 230.321 136.03 229.452 135.388 228.62 135.577 227.788 133.989 226.919 133.233 226.049 134.064 225.18 132.703 224.348 133.686 223.478 132.59 222.609 131.682 221.739 130.548 220.87 131.191 220 130.964 219.093 130.51 218.223 129.868 217.316 130.057 216.408 128.809 215.501 128.658 214.594 128.015 213.648 129.338 212.703 127.524 211.758 129.149 210.813 126.578 209.83 126.503 208.847 123.97 207.902 125.633 206.881 125.595 205.898 125.671 204.877 125.255 203.856 124.839 202.836 123.781 201.777 126.276 200.718 124.197 199.66 123.781 198.563 124.499 197.467 123.705 196.371 124.083 195.236 123.516 194.102 123.365 192.968 122.533 191.796 122.533 190.586 123.214 189.376 123.705 188.166 121.361 186.957 123.214 185.709 123.44 184.461 122.836 183.176 123.403 181.89 123.516 180.567 122.987 179.206 123.781 177.845 123.781 176.484 124.045 175.085 124.348 173.384 125.898 171.796 124.31 170.284 125.217 169.527 125.217 168.809 124.991 168.129 125.369 167.448 124.915 166.768 126.2 166.125 126.2 165.482 126.087 164.839 127.372 164.272 126.503 163.667 126.389 163.1 128.885 162.533 127.335 161.966 127.335 161.437 127.41 160.907 129.49 160.378 131.229 159.887 131.531 159.395 128.544 158.904 128.733 158.45 130.662 157.996 130.662 157.543 130.888 157.127 129.338 156.711 129.83 156.295 129.074 155.879 129.641 155.501 130.586 155.123 131.191 154.745 131.304 154.367 131.191 153.989 130.586 153.648 132.174 153.308 131.418 152.968 131.38 152.628 132.287 152.325 132.59 152.023 130.737 151.682 132.023 151.38 132.665 151.078 135.274 150.775 134.14 150.51 134.064 150.208 133.573 149.943 134.631 149.679 135.123 149.414 132.174 149.112 136.446 148.847 135.577 148.582 135.955 148.318 135.047 148.053 136.711 147.788 137.807 147.524 138.223 147.259 137.127 146.994 136.03 146.73 136.938 146.465 137.164 146.2 136.144 145.936 135.766 145.671 138.715 145.18 138.412 144.726 138.223 144.31 138.715 143.894 140 143.516 140.302 143.138 140.378 142.798 142.042 142.457 141.928 142.155 141.626 141.853 141.399 141.588 141.361 141.323 140.529 140.87 141.928 140.454 141.059 140.038 140.643 139.622 140.302 139.206 139.282 138.828 139.584 138.45 138.979 138.072 138.072 137.732 137.505 137.391 136.938 137.051 136.711 136.749 137.505 136.144 131.493 135.652 136.673 135.236 135.009 134.972 134.367 134.669 136.446 134.518 132.703Z" stroke="#34323A" stroke-width="3.02457" stroke-linecap="round" stroke-linejoin="round" stroke-miterlimit="10" fill="none" transform="matrix(1 0 0 1.00181 169.853 323.632)"/><path d="M181.55 143.97C181.55 147.833 178.419 150.964 174.556 150.964 170.693 150.964 167.561 147.833 167.561 143.97 167.561 140.107 170.693 136.975 174.556 136.975 178.419 136.975 181.55 140.107 181.55 143.97Z" fill="#F74B71" transform="matrix(1 0 0 1.00181 169.853 323.632)"/><path d="M179.093 138.677C179.206 139.168 179.244 139.66 179.244 140.189 179.244 144.045 176.106 147.183 172.25 147.183 170.51 147.183 168.923 146.541 167.713 145.482 168.393 148.62 171.191 150.964 174.518 150.964 178.374 150.964 181.512 147.826 181.512 143.97 181.55 141.853 180.605 139.962 179.093 138.677Z" fill="#DD3E68" transform="matrix(1 0 0 1.00181 169.853 323.632)"/><path d="M181.55 143.97C181.55 147.833 178.419 150.964 174.556 150.964 170.693 150.964 167.561 147.833 167.561 143.97 167.561 140.107 170.693 136.975 174.556 136.975 178.419 136.975 181.55 140.107 181.55 143.97Z" stroke="#34323A" stroke-width="3.02457" stroke-linecap="round" stroke-linejoin="round" stroke-miterlimit="10" fill="none" transform="matrix(1 0 0 1.00181 169.853 323.632)"/><path d="M172.854 139.962C173.384 139.735 173.951 139.622 174.556 139.622" stroke="#FFFFFF" stroke-width="0.756144" stroke-linecap="round" stroke-linejoin="round" stroke-miterlimit="10" fill="none" transform="matrix(1 0 0 1.00181 169.853 323.632)"/><path d="M170.208 143.97C170.208 142.571 170.888 141.323 171.909 140.529" stroke="#FFFFFF" stroke-width="0.756144" stroke-linecap="round" stroke-linejoin="round" stroke-miterlimit="10" fill="none" transform="matrix(1 0 0 1.00181 169.853 323.632)"/><path d="M213.27 143.97C213.27 147.833 210.139 150.964 206.276 150.964 202.413 150.964 199.282 147.833 199.282 143.97 199.282 140.107 202.413 136.975 206.276 136.975 210.139 136.975 213.27 140.107 213.27 143.97Z" fill="#F74B71" transform="matrix(1 0 0 1.00181 169.853 323.632)"/><path d="M210.851 138.677C210.964 139.168 211.002 139.66 211.002 140.189 211.002 144.045 207.864 147.183 204.008 147.183 202.268 147.183 200.681 146.541 199.471 145.482 200.151 148.62 202.949 150.964 206.276 150.964 210.132 150.964 213.27 147.826 213.27 143.97 213.27 141.853 212.325 139.962 210.851 138.677Z" fill="#DD3E68" transform="matrix(1 0 0 1.00181 169.853 323.632)"/><path d="M213.27 143.97C213.27 147.833 210.139 150.964 206.276 150.964 202.413 150.964 199.282 147.833 199.282 143.97 199.282 140.107 202.413 136.975 206.276 136.975 210.139 136.975 213.27 140.107 213.27 143.97Z" stroke="#34323A" stroke-width="3.02457" stroke-linecap="round" stroke-linejoin="round" stroke-miterlimit="10" fill="none" transform="matrix(1 0 0 1.00181 169.853 323.632)"/><path d="M204.575 139.962C205.104 139.735 205.671 139.622 206.276 139.622" stroke="#FFFFFF" stroke-width="0.756144" stroke-linecap="round" stroke-linejoin="round" stroke-miterlimit="10" fill="none" transform="matrix(1 0 0 1.00181 169.853 323.632)"/><path d="M201.928 143.97C201.928 142.571 202.609 141.323 203.63 140.529" stroke="#FFFFFF" stroke-width="0.756144" stroke-linecap="round" stroke-linejoin="round" stroke-miterlimit="10" fill="none" transform="matrix(1 0 0 1.00181 169.853 323.632)"/><path d="M195.728 225.217C195.728 229.08 192.596 232.212 188.733 232.212 184.871 232.212 181.739 229.08 181.739 225.217 181.739 221.355 184.871 218.223 188.733 218.223 192.596 218.223 195.728 221.355 195.728 225.217Z" fill="#F74B71" transform="matrix(1 0 0 1.00181 169.853 323.632)"/><path d="M193.27 219.924C193.384 220.416 193.422 220.907 193.422 221.437 193.422 225.293 190.284 228.431 186.427 228.431 184.688 228.431 183.1 227.788 181.89 226.73 182.571 229.868 185.369 232.212 188.696 232.212 192.552 232.212 195.69 229.074 195.69 225.217 195.728 223.1 194.745 221.21 193.27 219.924Z" fill="#DD3E68" transform="matrix(1 0 0 1.00181 169.853 323.632)"/><path d="M195.728 225.217C195.728 229.08 192.596 232.212 188.733 232.212 184.871 232.212 181.739 229.08 181.739 225.217 181.739 221.355 184.871 218.223 188.733 218.223 192.596 218.223 195.728 221.355 195.728 225.217Z" stroke="#34323A" stroke-width="3.02457" stroke-linecap="round" stroke-linejoin="round" stroke-miterlimit="10" fill="none" transform="matrix(1 0 0 1.00181 169.853 323.632)"/><path d="M187.032 221.248C187.561 221.021 188.129 220.907 188.733 220.907" stroke="#FFFFFF" stroke-width="0.756144" stroke-linecap="round" stroke-linejoin="round" stroke-miterlimit="10" fill="none" transform="matrix(1 0 0 1.00181 169.853 323.632)"/><path d="M184.386 225.217C184.386 223.819 185.066 222.571 186.087 221.777" stroke="#FFFFFF" stroke-width="0.756144" stroke-linecap="round" stroke-linejoin="round" stroke-miterlimit="10" fill="none" transform="matrix(1 0 0 1.00181 169.853 323.632)"/><path d="M195.728 251.834C195.728 255.697 192.596 258.828 188.733 258.828 184.871 258.828 181.739 255.697 181.739 251.834 181.739 247.971 184.871 244.839 188.733 244.839 192.596 244.839 195.728 247.971 195.728 251.834Z" fill="#F74B71" transform="matrix(1 0 0 1.00181 169.853 323.632)"/><path d="M193.27 246.541C193.384 247.032 193.422 247.524 193.422 248.053 193.422 251.909 190.284 255.047 186.427 255.047 184.688 255.047 183.1 254.405 181.89 253.346 182.571 256.484 185.369 258.828 188.696 258.828 192.552 258.828 195.69 255.69 195.69 251.834 195.728 249.716 194.745 247.826 193.27 246.541Z" fill="#DD3E68" transform="matrix(1 0 0 1.00181 169.853 323.632)"/><path d="M195.728 251.834C195.728 255.697 192.596 258.828 188.733 258.828 184.871 258.828 181.739 255.697 181.739 251.834 181.739 247.971 184.871 244.839 188.733 244.839 192.596 244.839 195.728 247.971 195.728 251.834Z" stroke="#34323A" stroke-width="3.02457" stroke-linecap="round" stroke-linejoin="round" stroke-miterlimit="10" fill="none" transform="matrix(1 0 0 1.00181 169.853 323.632)"/><path d="M187.032 247.864C187.561 247.637 188.129 247.524 188.733 247.524" stroke="#FFFFFF" stroke-width="0.756144" stroke-linecap="round" stroke-linejoin="round" stroke-miterlimit="10" fill="none" transform="matrix(1 0 0 1.00181 169.853 323.632)"/><path d="M184.386 251.834C184.386 250.435 185.066 249.187 186.087 248.393" stroke="#FFFFFF" stroke-width="0.756144" stroke-linecap="round" stroke-linejoin="round" stroke-miterlimit="10" fill="none" transform="matrix(1 0 0 1.00181 169.853 323.632)"/><path d="M195.728 278.79C195.728 282.653 192.596 285.785 188.733 285.785 184.871 285.785 181.739 282.653 181.739 278.79 181.739 274.927 184.871 271.796 188.733 271.796 192.596 271.796 195.728 274.927 195.728 278.79Z" fill="#F74B71" transform="matrix(1 0 0 1.00181 169.853 323.632)"/><path d="M193.27 273.497C193.384 273.989 193.422 274.48 193.422 275.009 193.422 278.866 190.284 282.004 186.427 282.004 184.688 282.004 183.1 281.361 181.89 280.302 182.571 283.44 185.369 285.785 188.696 285.785 192.552 285.785 195.69 282.647 195.69 278.79 195.728 276.673 194.745 274.783 193.27 273.497Z" fill="#DD3E68" transform="matrix(1 0 0 1.00181 169.853 323.632)"/><path d="M195.728 278.79C195.728 282.653 192.596 285.785 188.733 285.785 184.871 285.785 181.739 282.653 181.739 278.79 181.739 274.927 184.871 271.796 188.733 271.796 192.596 271.796 195.728 274.927 195.728 278.79Z" stroke="#34323A" stroke-width="3.02457" stroke-linecap="round" stroke-linejoin="round" stroke-miterlimit="10" fill="none" transform="matrix(1 0 0 1.00181 169.853 323.632)"/><path d="M187.032 274.82C187.561 274.594 188.129 274.48 188.733 274.48" stroke="#FFFFFF" stroke-width="0.756144" stroke-linecap="round" stroke-linejoin="round" stroke-miterlimit="10" fill="none" transform="matrix(1 0 0 1.00181 169.853 323.632)"/><path d="M184.386 278.79C184.386 277.391 185.066 276.144 186.087 275.35" stroke="#FFFFFF" stroke-width="0.756144" stroke-linecap="round" stroke-linejoin="round" stroke-miterlimit="10" fill="none" transform="matrix(1 0 0 1.00181 169.853 323.632)"/><path d="M197.807 161.777C197.807 165.849 194.506 169.149 190.435 169.149 186.363 169.149 183.062 165.849 183.062 161.777 183.062 157.705 186.363 154.405 190.435 154.405 194.506 154.405 197.807 157.705 197.807 161.777Z" fill="#F46A4A" transform="matrix(1 0 0 1.00181 169.853 323.632)"/><path d="M191.834 154.556C192.703 155.766 193.233 157.24 193.233 158.866 193.233 162.949 189.943 166.238 185.86 166.238 185.369 166.238 184.915 166.2 184.423 166.087 185.747 167.94 187.94 169.187 190.397 169.187 194.48 169.187 197.769 165.898 197.769 161.815 197.807 158.185 195.236 155.199 191.834 154.556Z" fill="#F46A4A" fill-opacity="0.8" transform="matrix(1 0 0 1.00181 169.853 323.632)"/><path d="M197.807 161.777C197.807 165.849 194.506 169.149 190.435 169.149 186.363 169.149 183.062 165.849 183.062 161.777 183.062 157.705 186.363 154.405 190.435 154.405 194.506 154.405 197.807 157.705 197.807 161.777Z" stroke="#34323A" stroke-width="3.02457" stroke-linecap="round" stroke-linejoin="round" stroke-miterlimit="10" fill="none" transform="matrix(1 0 0 1.00181 169.853 323.632)"/><path d="M193.384 161.777C193.384 163.406 192.063 164.726 190.435 164.726 188.806 164.726 187.486 163.406 187.486 161.777 187.486 160.148 188.806 158.828 190.435 158.828 192.063 158.828 193.384 160.148 193.384 161.777Z" stroke="#34323A" stroke-width="2.26843" stroke-linecap="round" stroke-linejoin="round" stroke-miterlimit="10" fill="none" transform="matrix(1 0 0 1.00181 169.853 323.632)"/><path d="M180.945 173.006C180.945 174.217 179.963 175.199 178.752 175.199 177.541 175.199 176.56 174.217 176.56 173.006 176.56 171.795 177.541 170.813 178.752 170.813 179.963 170.813 180.945 171.795 180.945 173.006Z" fill="#34323A" transform="matrix(1 0 0 1.00181 169.853 323.632)"/><path d="M185.86 176.786C185.86 177.997 184.878 178.979 183.667 178.979 182.456 178.979 181.475 177.997 181.475 176.786 181.475 175.575 182.456 174.594 183.667 174.594 184.878 174.594 185.86 175.575 185.86 176.786Z" fill="#34323A" transform="matrix(1 0 0 1.00181 169.853 323.632)"/><path d="M192.628 177.354C192.628 178.565 191.646 179.546 190.435 179.546 189.224 179.546 188.242 178.565 188.242 177.354 188.242 176.142 189.224 175.161 190.435 175.161 191.646 175.161 192.628 176.142 192.628 177.354Z" fill="#34323A" transform="matrix(1 0 0 1.00181 169.853 323.632)"/><path d="M198.639 176.786C198.639 177.997 197.657 178.979 196.446 178.979 195.235 178.979 194.253 177.997 194.253 176.786 194.253 175.575 195.235 174.594 196.446 174.594 197.657 174.594 198.639 175.575 198.639 176.786Z" fill="#34323A" transform="matrix(1 0 0 1.00181 169.853 323.632)"/><path d="M204.272 173.006C204.272 174.217 203.29 175.199 202.079 175.199 200.868 175.199 199.887 174.217 199.887 173.006 199.887 171.795 200.868 170.813 202.079 170.813 203.29 170.813 204.272 171.795 204.272 173.006Z" fill="#34323A" transform="matrix(1 0 0 1.00181 169.853 323.632)"/><path d="M155.879 176.673C152.174 175.614 148.242 177.656 147.259 181.134 146.427 184.159 145.633 187.902 145.633 191.418 145.633 199.168 150.888 197.656 162.987 201.437 174.707 205.104 204.726 206.163 218.261 201.021 230.132 196.484 230.208 196.635 232.552 191.418 234.896 186.2 234.442 173.384 219.962 177.278 204.802 181.285 202.042 189.716 155.879 176.673Z" fill="#F74B71" transform="matrix(1 0 0 1.00181 169.853 323.632)"/><path d="M226.957 176.711C227.183 179.168 226.692 181.664 225.936 183.365 223.592 188.582 223.516 188.469 211.645 192.968 198.147 198.11 168.129 197.051 156.371 193.384 151.871 191.985 148.318 191.304 145.633 190.624 145.633 190.888 145.595 191.153 145.595 191.38 145.595 199.13 150.851 197.618 162.949 201.399 174.669 205.066 204.688 206.125 218.223 200.983 230.095 196.446 230.17 196.597 232.514 191.38 234.442 187.183 234.556 178.11 226.957 176.711Z" fill="#DD3E68" transform="matrix(1 0 0 1.00181 169.853 323.632)"/><path d="M169.414 179.546C170.208 179.357 159.887 193.006 164.726 201.475 169.414 202.382 170.548 202.609 170.586 202.609 170.095 202.798 172.703 182.193 177.013 180.945 169.036 179.546 169.565 179.546 169.414 179.546Z" fill="#FFFFFF" transform="matrix(1 0 0 1.00181 169.853 323.632)"/><path d="M170.586 202.571C170.397 202.647 170.662 199.698 171.304 195.917 168.507 195.652 165.86 195.35 163.478 194.972 163.289 197.24 163.592 199.471 164.726 201.437 169.414 202.344 170.548 202.571 170.586 202.571Z" fill="#C1C1C1" transform="matrix(1 0 0 1.00181 169.853 323.632)"/><path d="M169.414 179.546C170.208 179.357 159.887 193.006 164.726 201.475 169.414 202.382 170.548 202.609 170.586 202.609 170.095 202.798 172.703 182.193 177.013 180.945 169.036 179.546 169.565 179.546 169.414 179.546Z" stroke="#34323A" stroke-width="2.26843" stroke-linecap="round" stroke-linejoin="round" stroke-miterlimit="10" fill="none" transform="matrix(1 0 0 1.00181 169.853 323.632)"/><path d="M190.473 182.457C190.813 182.231 189.452 186.881 188.242 191.078 187.146 195.35 186.087 200.983 188.015 205.028 193.497 205.066 197.921 204.537 197.996 204.499 197.656 204.575 197.921 201.664 198.563 196.182 199.471 190.737 199.244 184.877 201.172 183.667 192.325 184.272 190.624 182.42 190.473 182.457Z" fill="#FFFFFF" transform="matrix(1 0 0 1.00181 169.853 323.632)"/><path d="M198.563 196.219C198.601 196.068 198.601 195.955 198.639 195.803 195.009 196.219 191.115 196.446 187.183 196.484 186.843 199.282 186.881 202.117 187.826 204.499 191.191 204.575 194.594 204.537 197.921 204.386 197.732 203.781 197.996 200.945 198.563 196.219Z" fill="#C1C1C1" transform="matrix(1 0 0 1.00181 169.853 323.632)"/><path d="M190.473 182.457C190.813 182.231 189.452 186.881 188.242 191.078 187.146 195.35 186.087 200.983 188.015 205.028 193.497 205.066 197.921 204.537 197.996 204.499 197.656 204.575 197.921 201.664 198.563 196.182 199.471 190.737 199.244 184.877 201.172 183.667 192.325 184.272 190.624 182.42 190.473 182.457Z" stroke="#34323A" stroke-width="2.26843" stroke-linecap="round" stroke-linejoin="round" stroke-miterlimit="10" fill="none" transform="matrix(1 0 0 1.00181 169.853 323.632)"/><path d="M212.287 179.319C212.25 179.017 211.418 181.664 211.834 186.276 211.682 191.002 213.346 198.866 217.202 201.55 220.416 200.189 224.386 198.261 224.461 198.223 224.121 198.374 224.726 195.539 223.63 189.868 222.684 184.083 219.395 178.828 219.887 177.467 214.405 180.34 212.061 179.319 212.287 179.319Z" fill="#FFFFFF" transform="matrix(1 0 0 1.00181 169.853 323.632)"/><path d="M223.63 189.868C223.516 189.187 223.365 188.507 223.214 187.826 221.588 189.225 218.866 190.246 212.514 192.665 213.308 196.219 214.82 199.735 217.127 201.437 217.543 201.285 217.921 201.172 218.337 201.021 218.639 200.907 218.904 200.794 219.168 200.718 221.853 199.509 224.461 198.261 224.499 198.223 224.121 198.374 224.726 195.539 223.63 189.868Z" fill="#C1C1C1" transform="matrix(1 0 0 1.00181 169.853 323.632)"/><path d="M212.287 179.319C212.25 179.017 211.078 183.894 211.871 188.469 212.93 194.707 214.783 200.643 217.202 201.55 220.416 200.189 224.386 198.261 224.461 198.223 224.121 198.374 224.726 195.539 223.63 189.868 222.684 184.083 219.395 178.828 219.887 177.467 214.405 180.34 212.061 179.319 212.287 179.319Z" stroke="#34323A" stroke-width="2.26843" stroke-linecap="round" stroke-linejoin="round" stroke-miterlimit="10" fill="none" transform="matrix(1 0 0 1.00181 169.853 323.632)"/><path d="M155.879 176.673C152.174 175.614 148.242 177.656 147.259 181.134 146.427 184.159 145.633 187.902 145.633 191.418 145.633 199.168 150.888 197.656 162.987 201.437 174.707 205.104 204.726 206.163 218.261 201.021 230.132 196.484 230.208 196.635 232.552 191.418 234.896 186.2 234.442 173.384 219.962 177.278 204.802 181.285 202.042 189.716 155.879 176.673Z" stroke="#34323A" stroke-width="4.53686" stroke-linecap="round" stroke-linejoin="round" stroke-miterlimit="10" fill="none" transform="matrix(1 0 0 1.00181 169.853 323.632)"/><path d="M141.21 235.388 111.153 223.214 93.1947 200.151 72.5898 201.437 88.4688 193.724 73.9887 178.941 52.2117 173.006 75.0851 170.473 86.3516 179.887 87.6749 157.769C87.6749 157.769 98.6768 192.779 100.529 194.631 106.049 200.189 116.446 213.233 116.446 213.233 116.446 213.233 130.737 219.735 141.21 227.108L141.21 235.388Z" fill="#B55D4C" transform="matrix(1 0 0 1.00181 169.853 323.632)"/><path d="M116.446 213.233C116.446 213.233 106.049 200.227 100.492 194.631 98.6389 192.779 87.6371 157.769 87.6371 157.769L86.3138 179.887 75.0473 170.473 71.7958 170.851 86.3516 185.331C87.6371 186.616 89.7921 186.352 90.7373 184.802L90.7373 184.802 96.673 196.597 114.253 218.223 141.172 232.212 141.172 227.108C130.737 219.735 116.446 213.233 116.446 213.233Z" fill="#E27F71" fill-opacity="0.5" transform="matrix(1 0 0 1.00181 169.853 323.632)"/><path d="M141.21 235.388 111.153 223.214 93.1947 200.151 72.5898 201.437 88.4688 193.724 73.9887 178.941 52.2117 173.006 75.0851 170.473 86.3516 179.887 87.6749 157.769C87.6749 157.769 98.6768 192.779 100.529 194.631 106.049 200.189 116.446 213.233 116.446 213.233 116.446 213.233 130.737 219.735 141.21 227.108L141.966 228.469C143.251 230.699 142.949 233.497 141.21 235.388L141.21 235.388Z" stroke="#34323A" stroke-width="4.53686" stroke-linecap="round" stroke-linejoin="round" stroke-miterlimit="10" fill="none" transform="matrix(1 0 0 1.00181 169.853 323.632)"/><path d="M245.898 49.5652C245.898 50.2079 245.898 50.7372 245.86 52.2117 245.86 52.2873 245.822 53.1191 245.785 53.1569 245.747 51.8337 245.633 52.7788 245.558 52.4008 245.52 54.2911 245.444 52.8166 245.369 52.9301 245.293 54.3667 245.217 53.1191 245.142 54.1399 244.991 54.4802 244.802 56.0681 244.613 54.9716 244.423 56.1059 244.197 56.1437 243.932 56.4839 243.705 56.8998 243.44 57.1645 243.138 57.2401 242.571 56.8998 241.928 59.4707 241.248 59.1304 240.529 60.4537 239.773 57.5047 238.979 60.5671 238.147 60.3781 237.316 60.983 236.408 61.4745 235.501 60.4915 234.556 61.7013 233.611 61.8148 232.628 61.4745 231.682 62.2684 230.813 61.4745 229.906 59.811 229.036 61.4367 228.242 60.5671 227.41 63.2892 226.654 60.8696 225.974 59.1304 225.255 58.7902 224.65 61.6257 224.083 57.2401 223.516 55.7656 223.025 56.9376 222.647 54.9716 222.458 55.69 222.268 54.5558 222.117 53.4594 221.966 51.758 221.815 51.6824 221.739 52.4008 221.626 51.5312 221.55 51.6824 221.512 50.7751 221.475 48.0151 221.437 49.8677 221.437 49.603 221.437 50.0189 221.475 50.0567 221.512 49.4518 221.55 47.4858 221.664 48.242 221.739 46.8053 221.853 47.4858 221.966 45.7845 222.117 45.5955 222.268 46.0492 222.458 44.4613 222.647 44.1966 222.836 43.327 223.062 43.8941 223.327 42.8355 223.554 41.4367 223.819 41.6257 224.121 41.9282 224.386 42.6843 224.688 41.2854 225.028 40.7561 225.331 40.0378 225.671 39.7354 226.011 40.0378 226.73 40.3025 227.486 37.4669 228.28 38.6011 229.112 39.5841 229.943 36.7486 230.851 37.6938 231.758 36.4083 232.703 35.5009 233.648 37.3535 234.631 36.3705 235.577 37.3535 236.446 37.6938 237.354 40.4915 238.223 39.0548 239.017 38.6011 239.849 38.0718 240.605 39.2439 241.285 40.0378 242.004 42.2306 242.609 41.2476 243.176 41.9282 243.327 41.7769 243.44 41.9282 243.592 42.1928 243.705 42.4953 243.856 42.3441 243.97 43.3648 244.083 42.5709 244.197 45.4442 244.31 44.4991 244.423 46.1248 244.537 43.1758 244.613 44.1966 244.802 44.1966 244.991 43.2514 245.142 44.9906 245.217 45.1418 245.293 44.31 245.369 45.4442 245.444 48.5444 245.482 45.4442 245.558 46.7675 245.595 47.5236 245.671 49.414 245.709 48.0151 245.747 49.2628 245.785 49.0359 245.822 48.5066 245.86 51.7202 245.898 49.3384 245.898 49.5652Z" fill="#FFFFFF" transform="matrix(1 0 0 1.00181 169.853 323.632)"/><path d="M245.898 49.5652C245.898 50.2079 245.898 50.7372 245.86 52.2117 245.86 52.2873 245.822 53.1191 245.785 53.1569 245.747 51.8337 245.633 52.7788 245.558 52.4008 245.52 54.2911 245.444 52.8166 245.369 52.9301 245.293 54.3667 245.217 53.1191 245.142 54.1399 244.991 54.4802 244.802 56.0681 244.613 54.9716 244.423 56.1059 244.197 56.1437 243.932 56.4839 243.705 56.8998 243.44 57.1645 243.138 57.2401 242.571 56.8998 241.928 59.4707 241.248 59.1304 240.529 60.4537 239.773 57.5047 238.979 60.5671 238.147 60.3781 237.316 60.983 236.408 61.4745 235.501 60.4915 234.556 61.7013 233.611 61.8148 232.628 61.4745 231.682 62.2684 230.813 61.4745 229.906 59.811 229.036 61.4367 228.242 60.5671 227.41 63.2892 226.654 60.8696 225.974 59.1304 225.255 58.7902 224.65 61.6257 224.083 57.2401 223.516 55.7656 223.025 56.9376 222.647 54.9716 222.458 55.69 222.268 54.5558 222.117 53.4594 221.966 51.758 221.815 51.6824 221.739 52.4008 221.626 51.5312 221.55 51.6824 221.512 50.7751 221.475 48.0151 221.437 49.8677 221.437 49.603 221.437 50.0189 221.475 50.0567 221.512 49.4518 221.55 47.4858 221.664 48.242 221.739 46.8053 221.853 47.4858 221.966 45.7845 222.117 45.5955 222.268 46.0492 222.458 44.4613 222.647 44.1966 222.836 43.327 223.062 43.8941 223.327 42.8355 223.554 41.4367 223.819 41.6257 224.121 41.9282 224.386 42.6843 224.688 41.2854 225.028 40.7561 225.331 40.0378 225.671 39.7354 226.011 40.0378 226.73 40.3025 227.486 37.4669 228.28 38.6011 229.112 39.5841 229.943 36.7486 230.851 37.6938 231.758 36.4083 232.703 35.5009 233.648 37.3535 234.631 36.3705 235.577 37.3535 236.446 37.6938 237.354 40.4915 238.223 39.0548 239.017 38.6011 239.849 38.0718 240.605 39.2439 241.285 40.0378 242.004 42.2306 242.609 41.2476 243.176 41.9282 243.327 41.7769 243.44 41.9282 243.592 42.1928 243.705 42.4953 243.856 42.3441 243.97 43.3648 244.083 42.5709 244.197 45.4442 244.31 44.4991 244.423 46.1248 244.537 43.1758 244.613 44.1966 244.802 44.1966 244.991 43.2514 245.142 44.9906 245.217 45.1418 245.293 44.31 245.369 45.4442 245.444 48.5444 245.482 45.4442 245.558 46.7675 245.595 47.5236 245.671 49.414 245.709 48.0151 245.747 49.2628 245.785 49.0359 245.822 48.5066 245.86 51.7202 245.898 49.3384 245.898 49.5652Z" fill="#FFFFFF" transform="matrix(1 0 0 1.00181 169.853 323.632)"/><path d="M245.822 48.5066C245.785 49.0359 245.747 49.2628 245.709 48.0151 245.671 49.414 245.633 47.4858 245.558 46.7675 245.52 45.4442 245.444 48.5444 245.369 45.4442 245.293 44.31 245.217 45.1418 245.142 44.9906 244.991 43.2514 244.802 44.1966 244.613 44.1966 244.499 43.1758 244.423 46.087 244.31 44.4991 244.197 45.4442 244.083 42.5709 243.97 43.3648 243.856 42.3819 243.705 42.4953 243.592 42.1928 243.478 41.8904 243.327 41.7391 243.176 41.9282 242.609 41.2098 241.966 42.2306 241.285 40.0378 240.605 39.2439 239.849 38.1096 239.055 38.5633 239.13 41.1342 239.168 38.2987 239.244 39.5841 239.282 40.3403 239.357 42.2306 239.395 40.8318 239.433 42.0794 239.471 41.8526 239.509 41.3233 239.546 44.5369 239.584 42.155 239.584 42.3819 239.584 43.0246 239.584 43.5539 239.546 45.0284 239.546 45.104 239.509 45.9357 239.471 45.9735 239.433 44.6503 239.32 45.5955 239.244 45.2174 239.206 47.1078 239.13 45.6333 239.055 45.7467 238.979 47.1834 238.904 45.9357 238.828 46.9565 238.677 47.2968 238.488 48.8847 238.299 47.7883 238.11 48.9225 237.883 48.9603 237.618 49.3006 237.391 49.7164 237.127 49.9811 236.824 50.0567 236.257 49.7164 235.614 52.2873 234.934 51.9471 234.216 53.2703 233.459 50.3214 232.665 53.3837 231.834 53.1947 231.002 53.7996 230.095 54.2911 229.187 53.3081 228.242 54.518 227.297 54.6314 226.314 54.2911 225.369 55.0851 224.499 54.2911 223.667 52.7788 222.873 53.9887 222.117 53.535 222.268 54.5936 222.458 55.6522 222.647 54.9716 223.062 56.9376 223.516 55.7656 224.083 57.2401 224.65 61.6257 225.293 58.7902 225.974 59.1304 226.692 60.8696 227.448 63.327 228.242 60.5671 229.074 61.4367 229.906 59.811 230.813 61.4745 231.72 62.2684 232.665 61.4367 233.611 61.8148 234.594 61.7013 235.539 60.5293 236.408 61.4745 237.316 60.983 238.185 60.3781 238.979 60.5671 239.811 57.5047 240.567 60.4537 241.248 59.1304 241.966 59.4707 242.571 56.8998 243.138 57.2401 243.403 57.1645 243.667 56.862 243.932 56.4839 244.159 56.1437 244.386 56.1059 244.613 54.9716 244.802 56.0681 244.991 54.4802 245.142 54.1399 245.217 53.0813 245.293 54.3667 245.369 52.9301 245.444 52.8166 245.482 54.2911 245.558 52.4008 245.671 52.7788 245.747 51.8715 245.785 53.1569 245.822 53.1569 245.822 52.3251 245.86 52.2117 245.86 50.7372 245.898 50.2079 245.898 49.5652 245.898 49.3384 245.86 51.7202 245.822 48.5066Z" fill="#DDDDDD" transform="matrix(1 0 0 1.00181 169.853 323.632)"/><path d="M245.898 49.5652C245.898 50.2079 245.898 50.7372 245.86 52.2117 245.86 52.2873 245.822 53.1191 245.785 53.1569 245.747 51.8337 245.633 52.7788 245.558 52.4008 245.52 54.2911 245.444 52.8166 245.369 52.9301 245.293 54.3667 245.217 53.1191 245.142 54.1399 244.991 54.4802 244.802 56.0681 244.613 54.9716 244.423 56.1059 244.197 56.1437 243.932 56.4839 243.705 56.8998 243.44 57.1645 243.138 57.2401 242.571 56.8998 241.928 59.4707 241.248 59.1304 240.529 60.4537 239.773 57.5047 238.979 60.5671 238.147 60.3781 237.316 60.983 236.408 61.4745 235.501 60.4915 234.556 61.7013 233.611 61.8148 232.628 61.4745 231.682 62.2684 230.813 61.4745 229.906 59.811 229.036 61.4367 228.242 60.5671 227.41 63.2892 226.654 60.8696 225.974 59.1304 225.255 58.7902 224.65 61.6257 224.083 57.2401 223.516 55.7656 223.025 56.9376 222.647 54.9716 222.458 55.69 222.268 54.5558 222.117 53.4594 221.966 51.758 221.815 51.6824 221.739 52.4008 221.626 51.5312 221.55 51.6824 221.512 50.7751 221.475 48.0151 221.437 49.8677 221.437 49.603 221.437 50.0189 221.475 50.0567 221.512 49.4518 221.55 47.4858 221.664 48.242 221.739 46.8053 221.853 47.4858 221.966 45.7845 222.117 45.5955 222.268 46.0492 222.458 44.4613 222.647 44.1966 222.836 43.327 223.062 43.8941 223.327 42.8355 223.554 41.4367 223.819 41.6257 224.121 41.9282 224.386 42.6843 224.688 41.2854 225.028 40.7561 225.331 40.0378 225.671 39.7354 226.011 40.0378 226.73 40.3025 227.486 37.4669 228.28 38.6011 229.112 39.5841 229.943 36.7486 230.851 37.6938 231.758 36.4083 232.703 35.5009 233.648 37.3535 234.631 36.3705 235.577 37.3535 236.446 37.6938 237.354 40.4915 238.223 39.0548 239.017 38.6011 239.849 38.0718 240.605 39.2439 241.285 40.0378 242.004 42.2306 242.609 41.2476 243.176 41.9282 243.327 41.7769 243.44 41.9282 243.592 42.1928 243.705 42.4953 243.856 42.3441 243.97 43.3648 244.083 42.5709 244.197 45.4442 244.31 44.4991 244.423 46.1248 244.537 43.1758 244.613 44.1966 244.802 44.1966 244.991 43.2514 245.142 44.9906 245.217 45.1418 245.293 44.31 245.369 45.4442 245.444 48.5444 245.482 45.4442 245.558 46.7675 245.595 47.5236 245.671 49.414 245.709 48.0151 245.747 49.2628 245.785 49.0359 245.822 48.5066 245.86 51.7202 245.898 49.3384 245.898 49.5652Z" stroke="#34323A" stroke-width="3.02457" stroke-linecap="round" stroke-linejoin="round" stroke-miterlimit="10" fill="none" transform="matrix(1 0 0 1.00181 169.853 323.632)"/><path d="M229.414 277.958C229.414 278.185 229.338 278.374 229.225 278.866 229.149 279.244 229.112 279.319 228.998 279.282 228.923 278.866 228.809 280.378 228.696 280.454 228.658 280.681 228.582 281.361 228.544 281.664 228.469 281.966 228.431 282.193 228.355 282.344 228.242 282.609 228.091 282.609 227.94 282.42 227.637 281.89 227.297 281.361 226.957 282.231 226.578 281.777 226.2 282.117 225.785 283.214 225.369 283.251 224.915 283.819 224.461 282.911 224.008 283.025 223.554 283.138 223.138 283.289 222.722 282.949 222.344 282.722 221.966 282.231 221.588 282.798 221.248 283.138 220.983 282.004 220.832 282.042 220.681 281.928 220.567 281.701 220.454 281.399 220.302 281.248 220.227 280.492 220 281.172 219.849 279.811 219.735 279.206 219.622 278.979 219.546 278.374 219.546 278.034 219.546 277.845 219.622 277.127 219.735 276.635 219.849 275.992 220 275.577 220.227 275.539 220.454 274.556 220.718 274.216 220.983 274.367 221.285 273.8 221.626 275.577 221.966 273.762 222.344 274.064 222.722 273.989 223.138 273.535 223.365 273.384 223.554 272.628 223.781 272.817 224.008 273.006 224.234 272.59 224.461 273.081 224.688 273.308 224.915 272.628 225.142 272.628 225.369 272.287 225.558 274.291 225.785 273.686 226.2 274.064 226.578 274.82 226.957 273.8 227.146 274.14 227.297 273.648 227.486 274.329 227.637 274.102 227.826 273.951 227.977 275.955 228.129 276.257 228.28 276.749 228.393 276.975 228.507 276.484 228.658 276.9 228.733 275.577 228.96 276.824 229.112 277.467 229.225 276.975 229.338 277.316 229.414 277.202 229.414 277.958Z" fill="#DDDDDD" transform="matrix(1 0 0 1.00181 169.853 323.632)"/><path d="M224.461 276.56C224.461 275.728 224.159 278.488 223.667 278.715 223.176 280.302 222.495 280.038 221.777 279.622 221.021 279.773 220.378 279.584 219.887 278.715 219.395 276.9 219.093 278.185 219.093 276.56 219.093 276.408 219.395 274.329 219.887 274.405 220.378 273.233 221.059 273.497 221.777 273.497 222.533 273.157 223.176 274.405 223.667 274.405 224.159 274.896 224.461 274.858 224.461 276.56Z" fill="#EFF1FF" transform="matrix(1 0 0 1.00181 169.853 323.632)"/><path d="M229.414 277.958C229.414 278.185 229.338 278.374 229.225 278.866 229.149 279.244 229.112 279.319 228.998 279.282 228.923 278.866 228.809 280.378 228.696 280.454 228.658 280.681 228.582 281.361 228.544 281.664 228.469 281.966 228.431 282.193 228.355 282.344 228.242 282.609 228.091 282.609 227.94 282.42 227.637 281.89 227.297 281.361 226.957 282.231 226.578 281.777 226.2 282.117 225.785 283.214 225.369 283.251 224.915 283.819 224.461 282.911 224.008 283.025 223.554 283.138 223.138 283.289 222.722 282.949 222.344 282.722 221.966 282.231 221.588 282.798 221.248 283.138 220.983 282.004 220.832 282.042 220.681 281.928 220.567 281.701 220.454 281.399 220.302 281.248 220.227 280.492 220 281.172 219.849 279.811 219.735 279.206 219.622 278.979 219.546 278.374 219.546 278.034 219.546 277.845 219.622 277.127 219.735 276.635 219.849 275.992 220 275.577 220.227 275.539 220.454 274.556 220.718 274.216 220.983 274.367 221.285 273.8 221.626 275.577 221.966 273.762 222.344 274.064 222.722 273.989 223.138 273.535 223.365 273.384 223.554 272.628 223.781 272.817 224.008 273.006 224.234 272.59 224.461 273.081 224.688 273.308 224.915 272.628 225.142 272.628 225.369 272.287 225.558 274.291 225.785 273.686 226.2 274.064 226.578 274.82 226.957 273.8 227.146 274.14 227.297 273.648 227.486 274.329 227.637 274.102 227.826 273.951 227.977 275.955 228.129 276.257 228.28 276.749 228.393 276.975 228.507 276.484 228.658 276.9 228.733 275.577 228.96 276.824 229.112 277.467 229.225 276.975 229.338 277.316 229.414 277.202 229.414 277.958Z" stroke="#34323A" stroke-width="2.26843" stroke-linecap="round" stroke-linejoin="round" stroke-miterlimit="10" fill="none" transform="matrix(1 0 0 1.00181 169.853 323.632)"/><path d="M243.214 278.79C243.214 279.017 243.138 279.206 243.025 279.698 242.949 280.076 242.911 280.151 242.798 280.113 242.722 279.698 242.609 281.21 242.495 281.285 242.457 281.512 242.382 282.193 242.344 282.495 242.268 282.798 242.231 283.025 242.155 283.176 242.042 283.44 241.89 283.44 241.739 283.251 241.437 282.722 241.096 282.193 240.756 283.062 240.378 282.609 240 282.949 239.584 284.045 239.168 284.083 238.715 284.65 238.261 283.743 237.807 283.856 237.354 283.97 236.938 284.121 236.522 283.781 236.144 283.554 235.766 283.062 235.388 283.63 235.047 283.97 234.783 282.836 234.631 282.873 234.48 282.76 234.367 282.533 234.253 282.231 234.102 282.079 234.026 281.323 233.8 282.004 233.648 280.643 233.535 280.038 233.422 279.811 233.346 279.206 233.346 278.866 233.346 278.677 233.422 277.958 233.535 277.467 233.648 276.824 233.8 276.408 234.026 276.371 234.253 275.388 234.518 275.047 234.783 275.199 235.085 274.631 235.425 276.408 235.766 274.594 236.144 274.896 236.522 274.82 236.938 274.367 237.164 274.216 237.354 273.459 237.58 273.648 237.807 273.837 238.034 273.422 238.261 273.913 238.488 274.14 238.715 273.459 238.941 273.459 239.168 273.119 239.357 275.123 239.584 274.518 240 274.896 240.378 275.652 240.756 274.631 240.945 274.972 241.096 274.48 241.285 275.161 241.437 274.934 241.626 274.783 241.777 276.786 241.928 277.089 242.079 277.58 242.193 277.807 242.306 277.316 242.457 277.732 242.533 276.408 242.76 277.656 242.911 278.299 243.025 277.807 243.138 278.147 243.214 278.034 243.214 278.79Z" fill="#DDDDDD" transform="matrix(1 0 0 1.00181 169.853 323.632)"/><path d="M238.715 277.958C238.715 280.038 238.639 279.887 238.488 280.076 238.337 280.038 238.147 279.66 237.921 280.113 237.694 280.038 237.391 280.416 237.051 279.735 236.749 279.546 236.371 279.698 235.992 281.021 235.614 281.323 235.274 281.89 234.934 281.399 234.631 281.928 234.329 279.735 234.064 280.113 233.837 281.323 233.611 280.265 233.497 279.66 233.346 278.072 233.27 277.24 233.27 277.921 233.27 277.164 233.346 277.013 233.497 276.408 233.648 275.728 233.837 276.182 234.064 275.728 234.291 275.652 234.594 275.766 234.934 275.425 235.236 275.539 235.614 275.463 235.992 274.858 236.371 274.896 236.711 274.253 237.051 274.707 237.354 274.707 237.656 274.669 237.921 275.766 238.147 275.728 238.374 275.728 238.488 276.522 238.639 277.505 238.715 277.429 238.715 277.958Z" fill="#EFF1FF" transform="matrix(1 0 0 1.00181 169.853 323.632)"/><path d="M243.214 278.79C243.214 279.017 243.138 279.206 243.025 279.698 242.949 280.076 242.911 280.151 242.798 280.113 242.722 279.698 242.609 281.21 242.495 281.285 242.457 281.512 242.382 282.193 242.344 282.495 242.268 282.798 242.231 283.025 242.155 283.176 242.042 283.44 241.89 283.44 241.739 283.251 241.437 282.722 241.096 282.193 240.756 283.062 240.378 282.609 240 282.949 239.584 284.045 239.168 284.083 238.715 284.65 238.261 283.743 237.807 283.856 237.354 283.97 236.938 284.121 236.522 283.781 236.144 283.554 235.766 283.062 235.388 283.63 235.047 283.97 234.783 282.836 234.631 282.873 234.48 282.76 234.367 282.533 234.253 282.231 234.102 282.079 234.026 281.323 233.8 282.004 233.648 280.643 233.535 280.038 233.422 279.811 233.346 279.206 233.346 278.866 233.346 278.677 233.422 277.958 233.535 277.467 233.648 276.824 233.8 276.408 234.026 276.371 234.253 275.388 234.518 275.047 234.783 275.199 235.085 274.631 235.425 276.408 235.766 274.594 236.144 274.896 236.522 274.82 236.938 274.367 237.164 274.216 237.354 273.459 237.58 273.648 237.807 273.837 238.034 273.422 238.261 273.913 238.488 274.14 238.715 273.459 238.941 273.459 239.168 273.119 239.357 275.123 239.584 274.518 240 274.896 240.378 275.652 240.756 274.631 240.945 274.972 241.096 274.48 241.285 275.161 241.437 274.934 241.626 274.783 241.777 276.786 241.928 277.089 242.079 277.58 242.193 277.807 242.306 277.316 242.457 277.732 242.533 276.408 242.76 277.656 242.911 278.299 243.025 277.807 243.138 278.147 243.214 278.034 243.214 278.79Z" stroke="#34323A" stroke-width="2.26843" stroke-linecap="round" stroke-linejoin="round" stroke-miterlimit="10" fill="none" transform="matrix(1 0 0 1.00181 169.853 323.632)"/><path d="M256.03 277.089C256.03 277.316 255.955 277.505 255.841 277.996 255.766 278.374 255.728 278.45 255.614 278.412 255.539 277.996 255.425 279.509 255.312 279.584 255.274 279.811 255.199 280.492 255.161 280.794 255.085 281.096 255.047 281.323 254.972 281.475 254.858 281.739 254.707 281.739 254.556 281.55 254.253 281.021 253.913 280.492 253.573 281.361 253.195 280.907 252.817 281.248 252.401 282.344 251.985 282.382 251.531 282.949 251.078 282.042 250.624 282.155 250.17 282.268 249.754 282.42 249.338 282.079 248.96 281.853 248.582 281.361 248.204 281.928 247.864 282.268 247.599 281.134 247.448 281.172 247.297 281.059 247.183 280.832 247.07 280.529 246.919 280.378 246.843 279.622 246.616 280.302 246.465 278.941 246.352 278.337 246.238 278.11 246.163 277.505 246.163 277.164 246.163 276.975 246.238 276.257 246.352 275.766 246.465 275.123 246.616 274.707 246.843 274.669 247.07 273.686 247.335 273.346 247.599 273.497 247.902 272.93 248.242 274.707 248.582 272.892 248.96 273.195 249.338 273.119 249.754 272.665 249.981 272.514 250.17 271.758 250.397 271.947 250.624 272.136 250.851 271.72 251.078 272.212 251.304 272.439 251.531 271.758 251.758 271.758 251.985 271.418 252.174 273.422 252.401 272.817 252.817 273.195 253.195 273.951 253.573 272.93 253.762 273.27 253.913 272.779 254.102 273.459 254.253 273.233 254.442 273.081 254.594 275.085 254.745 275.388 254.896 275.879 255.009 276.106 255.123 275.614 255.274 276.03 255.35 274.707 255.577 275.955 255.728 276.597 255.841 276.106 255.955 276.446 256.03 276.333 256.03 277.089Z" fill="#DDDDDD" transform="matrix(1 0 0 1.00181 169.853 323.632)"/><path d="M251.607 277.089C251.607 275.879 251.304 277.013 250.813 279.244 250.321 279.055 249.641 279.735 248.923 280.151 248.166 279.282 247.524 278.979 247.032 279.244 246.541 278.563 246.238 277.013 246.238 277.089 246.238 276.333 246.541 274.556 247.032 274.934 247.524 273.648 248.204 273.913 248.923 274.026 249.679 272.968 250.321 274.405 250.813 274.934 251.304 275.047 251.607 274.329 251.607 277.089Z" fill="#EFF1FF" transform="matrix(1 0 0 1.00181 169.853 323.632)"/><path d="M256.03 277.089C256.03 277.316 255.955 277.505 255.841 277.996 255.766 278.374 255.728 278.45 255.614 278.412 255.539 277.996 255.425 279.509 255.312 279.584 255.274 279.811 255.199 280.492 255.161 280.794 255.085 281.096 255.047 281.323 254.972 281.475 254.858 281.739 254.707 281.739 254.556 281.55 254.253 281.021 253.913 280.492 253.573 281.361 253.195 280.907 252.817 281.248 252.401 282.344 251.985 282.382 251.531 282.949 251.078 282.042 250.624 282.155 250.17 282.268 249.754 282.42 249.338 282.079 248.96 281.853 248.582 281.361 248.204 281.928 247.864 282.268 247.599 281.134 247.448 281.172 247.297 281.059 247.183 280.832 247.07 280.529 246.919 280.378 246.843 279.622 246.616 280.302 246.465 278.941 246.352 278.337 246.238 278.11 246.163 277.505 246.163 277.164 246.163 276.975 246.238 276.257 246.352 275.766 246.465 275.123 246.616 274.707 246.843 274.669 247.07 273.686 247.335 273.346 247.599 273.497 247.902 272.93 248.242 274.707 248.582 272.892 248.96 273.195 249.338 273.119 249.754 272.665 249.981 272.514 250.17 271.758 250.397 271.947 250.624 272.136 250.851 271.72 251.078 272.212 251.304 272.439 251.531 271.758 251.758 271.758 251.985 271.418 252.174 273.422 252.401 272.817 252.817 273.195 253.195 273.951 253.573 272.93 253.762 273.27 253.913 272.779 254.102 273.459 254.253 273.233 254.442 273.081 254.594 275.085 254.745 275.388 254.896 275.879 255.009 276.106 255.123 275.614 255.274 276.03 255.35 274.707 255.577 275.955 255.728 276.597 255.841 276.106 255.955 276.446 256.03 276.333 256.03 277.089Z" stroke="#34323A" stroke-width="2.26843" stroke-linecap="round" stroke-linejoin="round" stroke-miterlimit="10" fill="none" transform="matrix(1 0 0 1.00181 169.853 323.632)"/></g></svg>