<?xml version="1.0" encoding="utf-8"?>
<svg viewBox="-242.099 -21.453 984.197 542.905" xmlns="http://www.w3.org/2000/svg">
  <rect x="-242.099" y="-21.453" width="984.197" height="542.905" style="fill: rgb(183, 208, 145);"/>
  <g transform="matrix(1, 0, 0, 1, 32.27405548095703, 42.54714584350586)">
    <path d="m396.74 311.25l-14.94-8.627 0.93-0.25c3.39-0.905 5.404-4.389 4.496-7.785-0.911-3.391-4.397-5.399-7.788-4.493l-13.207 3.541-20.05-11.582 23.402-6.264c3.393-0.912 5.401-4.395 4.496-7.785-0.911-3.396-4.395-5.405-7.791-4.499l-35.681 9.562-20.049-11.576 45.878-12.29c3.39-0.912 5.404-4.396 4.493-7.785-0.908-3.391-4.395-5.405-7.785-4.499l-58.159 15.587-20.049-11.582 68.351-18.31c1.834-0.494 3.26-1.736 4.04-3.315 9.423 3.896 16.964 10.612 16.964 16.668 0-9.214 17.469-19.964 32.44-19.964-14.972 0-32.44-10.75-32.44-19.965 0 6.055-7.541 12.771-16.964 16.666-0.78-1.576-2.206-2.82-4.04-3.311l-68.354-18.318 20.049-11.576 58.162 15.583c3.391 0.909 6.877-1.102 7.785-4.495 0.911-3.392-1.104-6.876-4.493-7.784l-45.881-12.294 20.052-11.576 35.681 9.561c3.396 0.91 6.88-1.102 7.791-4.495 0.905-3.39-1.104-6.876-4.496-7.785l-23.405-6.27 20.053-11.578 13.207 3.541c3.391 0.907 6.877-1.107 7.785-4.498 0.911-3.392-1.104-6.875-4.493-7.785l-0.93-0.247 14.94-8.627c4.093-2.363 5.646-7.333 3.472-11.103-2.18-3.771-7.26-4.91-11.353-2.546l-14.938 8.624 0.247-0.927c0.908-3.39-1.103-6.876-4.493-7.787-3.394-0.907-6.877 1.106-7.788 4.497l-3.539 13.206-20.049 11.579 6.271-23.403c0.908-3.39-1.106-6.876-4.497-7.787-3.39-0.907-6.876 1.106-7.785 4.497l-9.559 35.683-20.052 11.575 12.29-45.876c0.911-3.392-1.103-6.877-4.493-7.785-3.391-0.91-6.88 1.103-7.785 4.495l-15.585 58.159-20.049 11.575 18.313-68.352c0.49-1.833 0.124-3.691-0.848-5.154 8.084-6.212 17.669-9.385 22.914-6.358-7.979-4.605-8.555-25.107-1.071-38.074-7.483 12.966-25.526 22.717-33.509 18.11 5.242 3.027 7.291 12.916 5.956 23.023-1.759-0.112-3.55 0.5-4.894 1.842l-50.038 50.037v-23.152l42.577-42.574c2.482-2.483 2.482-6.508 0-8.991-2.484-2.482-6.508-2.482-8.989 0l-33.588 33.586v-23.154l26.125-26.122c2.479-2.485 2.479-6.51 0-8.991-2.484-2.482-6.508-2.482-8.993 0l-17.132 17.133v-23.153l9.672-9.667c2.482-2.483 2.482-6.509 0-8.99-2.484-2.485-6.508-2.485-8.992 0l-0.68 0.676v-17.251c0-4.726-3.529-8.557-7.877-8.557-4.353 0-7.881 3.832-7.881 8.557v17.251l-0.68-0.676c-2.481-2.485-6.508-2.485-8.988 0-2.483 2.48-2.483 6.506 0 8.99l9.668 9.667v23.151l-17.132-17.13c-2.483-2.482-6.508-2.482-8.99 0-2.48 2.481-2.48 6.506 0 8.991l26.122 26.119v23.155l-33.586-33.586c-2.481-2.482-6.506-2.482-8.99 0-2.481 2.483-2.481 6.508 0 8.991l42.576 42.574v23.152l-50.039-50.037c-1.341-1.341-3.132-1.954-4.89-1.842-1.333-10.107 0.711-19.996 5.954-23.023-7.978 4.606-26.023-5.144-33.509-18.11 7.486 12.966 6.908 33.468-1.07 38.074 5.244-3.026 14.832 0.146 22.914 6.358-0.972 1.464-1.338 3.321-0.848 5.154l18.315 68.352-20.051-11.572-15.584-58.162c-0.909-3.392-4.392-5.405-7.784-4.495-3.394 0.908-5.405 4.393-4.498 7.785l12.294 45.877-20.05-11.575-9.559-35.683c-0.907-3.391-4.395-5.402-7.785-4.497-3.391 0.912-5.404 4.396-4.495 7.787l6.27 23.405-20.049-11.578-3.54-13.208c-0.91-3.389-4.395-5.402-7.788-4.494-3.391 0.907-5.403 4.394-4.492 7.784l0.249 0.929-14.939-8.624c-4.094-2.364-9.176-1.223-11.353 2.544-2.177 3.771-0.622 8.743 3.47 11.103l14.938 8.628-0.927 0.245c-3.392 0.91-5.403 4.395-4.495 7.785 0.91 3.39 4.395 5.405 7.788 4.498l13.206-3.541 20.051 11.578-23.402 6.27c-3.391 0.91-5.405 4.395-4.495 7.785 0.909 3.394 4.395 5.405 7.787 4.495l35.681-9.561 20.05 11.576-45.876 12.294c-3.392 0.907-5.403 4.392-4.495 7.784 0.909 3.394 4.395 5.404 7.785 4.495l58.158-15.583 20.052 11.578-68.356 18.313c-1.833 0.493-3.257 1.737-4.039 3.313-9.421-3.896-16.961-10.611-16.961-16.666 0 9.213-17.468 19.965-32.441 19.965 14.973 0 32.441 10.75 32.441 19.964 0-6.056 7.54-12.772 16.961-16.668 0.782 1.579 2.206 2.821 4.039 3.315l68.356 18.31-20.051 11.582-58.161-15.587c-3.39-0.906-6.876 1.108-7.785 4.499-0.908 3.39 1.104 6.879 4.495 7.785l45.879 12.29-20.052 11.576-35.682-9.562c-3.392-0.906-6.878 1.103-7.787 4.499-0.91 3.391 1.104 6.873 4.495 7.785l23.402 6.27-20.049 11.576-13.208-3.541c-3.393-0.906-6.878 1.103-7.788 4.493-0.909 3.396 1.103 6.88 4.495 7.791l0.929 0.25-14.94 8.621c-4.092 2.362-5.645 7.332-3.47 11.105 2.177 3.768 7.259 4.905 11.353 2.543l14.939-8.627-0.249 0.929c-0.91 3.396 1.102 6.88 4.492 7.785 3.393 0.911 6.879-1.104 7.788-4.493l3.54-13.208 20.049-11.576-6.27 23.402c-0.909 3.391 1.104 6.873 4.495 7.785 3.39 0.911 6.878-1.104 7.785-4.494l9.562-35.686 20.05-11.576-12.292 45.881c-0.91 3.39 1.102 6.873 4.495 7.785 3.392 0.911 6.875-1.104 7.784-4.494l15.584-58.158 20.051-11.576-18.315 68.354c-0.491 1.834-0.125 3.686 0.848 5.154-8.083 6.206-17.67 9.382-22.914 6.357 7.981 4.604 8.556 25.108 1.07 38.072 7.486-12.964 25.531-22.717 33.509-18.107-5.242-3.03-7.287-12.917-5.954-23.024 1.758 0.11 3.549-0.499 4.89-1.84l50.041-50.043v23.151l-42.578 42.577c-2.481 2.485-2.481 6.509 0 8.993 2.485 2.479 6.511 2.479 8.991 0l33.586-33.591v23.158l-26.124 26.119c-2.48 2.484-2.48 6.508 0 8.986 2.482 2.485 6.507 2.485 8.99 0l17.134-17.132v23.158l-9.669 9.666c-2.483 2.484-2.483 6.508 0 8.992 2.482 2.485 6.507 2.485 8.988 0l0.681-0.679v17.248c0 4.726 3.526 8.558 7.879 8.558 4.354 0 7.877-3.832 7.877-8.558v-17.248l0.68 0.679c2.484 2.485 6.508 2.485 8.992 0 2.482-2.484 2.482-6.508 0-8.992l-9.672-9.666v-23.158l17.132 17.132c2.485 2.485 6.509 2.485 8.993 0 2.481-2.479 2.479-6.502 0-8.986l-26.125-26.119v-23.158l33.588 33.591c2.481 2.479 6.505 2.479 8.989-6e-3 2.482-2.479 2.482-6.502 0-8.987l-42.577-42.577v-23.151l50.038 50.043c1.347 1.335 3.135 1.95 4.894 1.84 1.335 10.107-0.714 19.994-5.956 23.024 7.982-4.609 26.025 5.144 33.509 18.107-7.483-12.964-6.908-33.469 1.071-38.072-5.245 3.024-14.83-0.151-22.917-6.357 0.975-1.463 1.341-3.32 0.851-5.154l-18.313-68.354 20.049 11.576 15.585 58.158c0.905 3.391 4.395 5.405 7.785 4.494 3.391-0.912 5.404-4.396 4.496-7.785l-12.293-45.881 20.052 11.576 9.559 35.686c0.909 3.391 4.396 5.405 7.785 4.494 3.391-0.912 5.405-4.395 4.497-7.785l-6.271-23.402 20.049 11.576 3.539 13.208c0.911 3.39 4.395 5.404 7.788 4.493 3.391-0.905 5.401-4.389 4.493-7.785l-0.247-0.929 14.938 8.627c4.093 2.362 9.173 1.225 11.353-2.543 2.176-3.772 0.622-8.742-3.471-11.104zm-98.561-237.58c-0.996 7.022-0.517 14.151 1.651 19.5-5.722 0.797-12.131 3.948-17.715 8.318 0.992-7.021 0.517-14.149-1.652-19.499 5.716-0.798 12.125-3.948 17.716-8.319zm-164.35 0c5.586 4.37 11.996 7.521 17.712 8.319-2.168 5.35-2.645 12.478-1.653 19.5-5.585-4.372-11.996-7.522-17.715-8.319 2.171-5.349 2.647-12.478 1.656-19.5zm0 284.66c0.993-7.024 0.515-14.148-1.653-19.501 5.718-0.795 12.13-3.947 17.712-8.319-0.991 7.025-0.515 14.148 1.653 19.501-5.717 0.795-12.126 3.947-17.712 8.319zm30.756-231.39l43.538 43.538v31.874l-27.602-15.936-15.936-59.476zm-96.871 100.24c-3.55-4.552-9.484-8.526-16.061-11.18 6.576-2.652 12.511-6.628 16.061-11.183 3.55 4.554 9.483 8.531 16.063 11.183-6.579 2.653-12.512 6.628-16.063 11.18zm45.455-11.18l59.471-15.938 27.604 15.938-27.601 15.935-59.474-15.935zm94.955 45.519l-43.538 43.54 15.935-59.477 27.604-15.936v31.873zm90.056 96.812c-5.591-4.372-12-7.524-17.716-8.319 2.169-5.353 2.645-12.476 1.652-19.501 5.584 4.372 11.999 7.524 17.715 8.319-2.168 5.347-2.647 12.477-1.651 19.501zm66.112-153.51c3.547 4.554 9.48 8.531 16.058 11.183-6.577 2.653-12.511 6.628-16.058 11.18-3.553-4.552-9.486-8.526-16.063-11.18 6.577-2.652 12.51-6.63 16.063-11.183zm-140.41-2.467v-31.874l43.538-43.538-15.933 59.474-27.605 15.938zm43.541 102.71l-43.541-43.54v-31.872l27.605 15.936 15.936 59.476zm-8.055-73.125l-27.602-15.937 27.6-15.936 59.474 15.938-59.472 15.935z" style="fill: rgb(19, 32, 49);"/>
  </g>
</svg>