<svg width="164" height="132" viewBox="0 0 164 132" fill="none" xmlns="http://www.w3.org/2000/svg">
<g clip-path="url(#clip0_19865_129263)">
<path opacity="0.7" d="M37.9764 74.645C37.0589 74.8452 36.6587 75.5166 37.0817 76.1493C37.5046 76.782 38.5912 77.1306 39.5054 76.9337L45.56 75.6231L45.4234 75.3358L45.2412 74.9582C45.2412 74.9582 45.2412 74.9549 45.2412 74.9517C45.2119 74.8904 45.1891 74.829 45.1696 74.7677C45.1631 74.7451 45.1566 74.7225 45.1501 74.6999C45.1403 74.658 45.1306 74.616 45.124 74.5773C45.1208 74.5514 45.1175 74.5288 45.1143 74.503C45.111 74.4643 45.1078 74.4255 45.1078 74.3868C45.1078 74.3642 45.1078 74.3384 45.1078 74.3158C45.1078 74.2674 45.1175 74.2157 45.1273 74.1673C45.1273 74.1576 45.1273 74.1479 45.1306 74.135C45.1989 73.8122 45.2509 73.4862 45.2802 73.1602L37.9764 74.645Z" fill="url(#paint0_linear_19865_129263)"/>
<path d="M73.029 36.219C71.4349 36.177 70.1986 36.1738 68.6077 36.2383C68.214 36.2545 67.9082 36.5773 67.9244 36.9517L68.6402 53.9053C68.6565 54.2797 68.9883 54.5767 69.382 54.5606C70.9729 54.496 72.2027 54.3895 73.7903 54.2152C76.5264 53.9117 78.5956 51.7231 78.6899 49.0988C78.7908 46.3614 78.6769 43.6305 78.345 40.9093C78.0295 38.301 75.7814 36.2932 73.0323 36.2157L73.029 36.219Z" fill="#718CF6"/>
<path d="M73.0004 39.1014C72.135 39.0562 71.8422 39.0272 70.6514 39.0692C70.2187 39.0853 69.8836 39.4953 69.9032 39.9859L70.2838 49.0502C70.3033 49.5408 70.6742 49.9217 71.1037 49.8991C72.2944 49.8443 72.5839 49.7862 73.4428 49.67C74.3896 49.5408 75.1183 48.7274 75.1704 47.7364C75.2647 45.9158 75.1313 42.6878 74.8841 40.8801C74.7507 39.8988 73.9536 39.1466 73.0004 39.0982V39.1014Z" fill="#BACAFA"/>
<path d="M18.4663 46.3615C18.5736 50.432 18.7688 52.1687 19.3414 55.4257C20.1418 59.9675 23.4374 63.3634 27.7189 64.1511C31.187 64.787 39.6783 64.8903 45.5898 64.7386C51.5012 64.5868 59.9762 64.051 63.4086 63.2375C67.6445 62.2336 70.758 58.6731 71.3241 54.0958C71.7307 50.8097 71.8348 49.0698 71.7275 44.9992C71.6201 40.9287 71.4249 39.192 70.8523 35.935C70.052 31.3932 66.7563 27.9973 62.4748 27.2097C59.0067 26.5737 50.5154 25.8862 44.604 26.0379C38.6926 26.1896 30.2175 27.3129 26.7852 28.1264C22.5493 29.1303 19.4358 32.6908 18.8697 37.2681C18.463 40.5543 18.3589 42.2942 18.4663 46.3647" fill="url(#paint1_linear_19865_129263)"/>
<path d="M17.2141 38.5142C18.8018 38.3463 20.0316 38.2462 21.6225 38.1881C22.0161 38.172 22.348 38.469 22.361 38.8434L23.0052 55.8002C23.0182 56.1746 22.7124 56.4942 22.3187 56.5103C20.7278 56.5684 19.4915 56.562 17.8973 56.5103C15.1482 56.4232 12.9099 54.4057 12.6041 51.7974C12.2853 49.0762 12.1811 46.3453 12.2918 43.608C12.3991 40.9836 14.478 38.8047 17.2141 38.5109V38.5142Z" fill="#718CF6"/>
<path d="M16.8692 41.8644C17.7249 41.7482 18.0177 41.6965 19.2084 41.6384C19.6411 41.619 20.0087 41.9999 20.0283 42.4906L20.4089 51.5549C20.4284 52.0455 20.0933 52.4555 19.6606 52.4716C18.4699 52.5136 18.1738 52.4813 17.3117 52.4361C16.3584 52.3877 15.5614 51.6356 15.428 50.6542C15.1807 48.8466 15.0441 45.6185 15.1384 43.7979C15.1905 42.8102 15.9192 41.9935 16.866 41.8676L16.8692 41.8644Z" fill="#BACAFA"/>
<path d="M41.5627 59.5889L50.8153 59.3242C56.551 58.995 58.2916 56.6482 58.9228 53.3944C59.5214 50.3149 59.375 48.2231 58.9488 44.8498C58.6039 42.1286 56.4925 41.0182 54.0589 41.0827L38.3646 41.5217C35.9311 41.5895 34.0116 43.6038 34.0799 46.0184L34.2621 52.2226C34.4117 57.1421 36.9982 59.7116 41.5659 59.5857L41.5627 59.5889Z" fill="#BACAFA"/>
<path d="M51.0985 52.3038L53.0961 52.2489C54.1599 52.2198 55.0416 52.959 55.0676 53.8984C55.0937 54.8377 54.2543 55.6254 53.1904 55.6544L51.1928 55.7093C50.129 55.7384 49.2473 54.9991 49.2213 54.0598C49.1953 53.1204 50.0346 52.3328 51.0985 52.3038Z" fill="#718CF6"/>
<path d="M41.7323 52.5645L43.7299 52.5096C44.7937 52.4806 45.6754 53.2198 45.7014 54.1591C45.7274 55.0985 44.8881 55.8861 43.8242 55.9152L41.8266 55.9701C40.7628 55.9991 39.8811 55.2599 39.8551 54.3205C39.8291 53.3812 40.6684 52.5935 41.7323 52.5645Z" fill="#718CF6"/>
<path d="M31.9243 46.6011C31.8294 45.1458 30.5643 44.0423 29.0984 44.1363C27.6326 44.2304 26.5212 45.4864 26.6161 46.9417L26.7326 48.7295C26.8274 50.1847 28.0926 51.2882 29.5584 51.1942C31.0243 51.1001 32.1356 49.8442 32.0408 48.3889L31.9243 46.6011Z" fill="black"/>
<path d="M65.5522 44.4429C65.4574 42.9876 64.1922 41.8841 62.7264 41.9781C61.2605 42.0722 60.1492 43.3282 60.244 44.7834L60.3605 46.5713C60.4554 48.0265 61.7205 49.13 63.1864 49.036C64.6522 48.9419 65.7636 47.686 65.6687 46.2307L65.5522 44.4429Z" fill="black"/>
<path d="M63.1259 45.3216C63.5196 45.0698 63.7863 44.6631 63.8547 44.2015L63.9718 43.4203C63.9783 43.3816 64.0108 43.3525 64.0499 43.3525C64.0889 43.3525 64.1214 43.3816 64.1279 43.4203L64.2451 44.2015C64.3134 44.6599 64.5802 45.0698 64.9738 45.3216L65.0747 45.3862C65.0975 45.3991 65.1105 45.4249 65.1105 45.4507C65.1105 45.483 65.0975 45.5089 65.0747 45.5218L64.9738 45.5863C64.5802 45.8381 64.3134 46.2448 64.2451 46.7064L64.1279 47.4876C64.1214 47.5264 64.0889 47.5554 64.0499 47.5554C64.0108 47.5554 63.9783 47.5264 63.9718 47.4876L63.8547 46.7064C63.7863 46.2481 63.5196 45.8381 63.1259 45.5863L63.025 45.5218C63.0023 45.5089 62.9893 45.483 62.9893 45.4572C62.9893 45.4249 63.0023 45.3991 63.025 45.3862L63.1259 45.3216Z" fill="white"/>
<path d="M29.1152 46.9779C29.5088 46.7261 29.7756 46.3194 29.8439 45.8578L29.961 45.0766C29.9675 45.0378 30.0001 45.0088 30.0391 45.0088C30.0782 45.0088 30.1107 45.0378 30.1172 45.0766L30.2343 45.8578C30.3026 46.3161 30.5694 46.7261 30.9631 46.9779L31.0639 47.0424C31.0867 47.0554 31.0997 47.0812 31.0997 47.107C31.0997 47.1393 31.0867 47.1651 31.0639 47.178L30.9631 47.2426C30.5694 47.4944 30.3026 47.9011 30.2343 48.3627L30.1172 49.1439C30.1107 49.1826 30.0782 49.2117 30.0391 49.2117C30.0001 49.2117 29.9675 49.1826 29.961 49.1439L29.8439 48.3627C29.7756 47.9043 29.5088 47.4944 29.1152 47.2426L29.0143 47.178C28.9915 47.1651 28.9785 47.1393 28.9785 47.1135C28.9785 47.0812 28.9915 47.0554 29.0143 47.0424L29.1152 46.9779Z" fill="white"/>
<path d="M28.4642 50.0891C28.7912 50.0891 29.0563 49.826 29.0563 49.5016C29.0563 49.1771 28.7912 48.9141 28.4642 48.9141C28.1372 48.9141 27.8721 49.1771 27.8721 49.5016C27.8721 49.826 28.1372 50.0891 28.4642 50.0891Z" fill="white"/>
<path d="M62.1595 47.7424C62.4865 47.7424 62.7516 47.4794 62.7516 47.1549C62.7516 46.8304 62.4865 46.5674 62.1595 46.5674C61.8325 46.5674 61.5674 46.8304 61.5674 47.1549C61.5674 47.4794 61.8325 47.7424 62.1595 47.7424Z" fill="white"/>
<path d="M42.9219 19.6357C43.3025 20.0392 43.6669 20.4234 44.0215 20.7978C43.6636 20.4234 43.2993 20.0392 42.9219 19.6357Z" fill="#62C780"/>
<path d="M44.0244 20.7979C44.1025 20.8786 44.1773 20.9593 44.2554 21.04C44.1806 20.9593 44.1025 20.8786 44.0244 20.7979Z" fill="#62C780"/>
<path d="M45.2548 22.0801C45.193 22.0155 45.1312 21.9542 45.0693 21.8896C45.1312 21.951 45.1962 22.022 45.2548 22.0833V22.0801Z" fill="#62C780"/>
<path d="M53.7202 18.2351C53.0207 18.0995 52.2757 18.0672 51.5079 18.1415C51.4363 18.1479 51.3647 18.1576 51.2899 18.1673C48.3749 18.5353 46.9857 19.9815 45.2549 22.0797C48.4692 25.3948 50.444 27.2058 50.444 27.2058C50.444 27.2058 51.3387 28.1742 52.9524 28.3226C54.0293 27.9224 55.0866 27.4317 56.1049 26.8281C57.1135 26.2277 57.9106 25.2915 58.2196 24.1682C58.2294 24.1359 58.2424 24.1036 58.2489 24.0681C58.3725 23.5613 58.4083 23.0352 58.34 22.4993C58.0602 20.3365 56.1667 18.6935 53.7169 18.2351H53.7202Z" fill="#83ED90"/>
<path d="M47.2688 28.6102C46.937 28.6521 46.5921 28.523 46.3709 28.2389C46.0423 27.8161 46.1236 27.2092 46.5498 26.8832C50.3628 23.9812 52.6955 19.4491 52.9492 14.4521C52.9753 13.9195 53.434 13.5095 53.9708 13.5353C54.5076 13.5612 54.9208 14.0163 54.8948 14.5489C54.6117 20.1173 52.0025 25.1723 47.7373 28.4165C47.5974 28.523 47.4348 28.5876 47.2688 28.6069V28.6102Z" fill="#3D8A46"/>
<path d="M45.5606 29.5947C38.7318 26.5507 36.295 22.4737 35.563 20.8629C35.3418 20.3755 34.7659 20.1592 34.2746 20.3787C33.7834 20.5982 33.5654 21.1696 33.7866 21.657C35.1791 24.7269 38.029 27.6063 41.7997 29.8304C43.023 29.8885 44.3927 29.8917 45.8404 29.7884C45.7591 29.7109 45.668 29.6431 45.5606 29.5947Z" fill="#3D8A46"/>
<path d="M50.3269 27.0998C49.8096 26.6188 47.5713 24.5109 44.2529 21.0408C44.1748 20.9601 44.0999 20.8794 44.0219 20.7987C43.664 20.4242 43.2996 20.0401 42.9222 19.6366C40.8661 17.4448 38.7319 14.8914 34.4504 15.3788C30.7546 15.8017 28.2755 18.6133 28.4609 21.6025C28.7147 25.6956 31.3369 27.8648 36.4122 29.156C36.4122 29.156 38.6147 29.679 41.7998 29.8307C38.0389 27.613 35.1954 24.7433 33.7997 21.6832C33.6013 21.2474 33.7347 20.7083 34.1413 20.4501C34.6586 20.1176 35.3223 20.3306 35.5631 20.86C36.2951 22.4708 38.7319 26.5478 45.5607 29.5918C45.6681 29.6402 45.7624 29.708 45.8405 29.7855C47.734 29.6499 49.7576 29.3368 51.7552 28.7267L52.9557 28.3232C52.9557 28.3232 51.6543 28.1941 50.3302 27.0998H50.3269Z" fill="#62C780"/>
<path d="M59.3545 99.6943C59.0747 97.8705 57.4935 96.5244 55.6358 96.5244H27.1719C25.3143 96.5244 23.7331 97.8705 23.4533 99.6943L21.4688 112.6C20.9515 115.96 23.0174 119.195 26.3163 120.115C29.4298 120.983 34.1472 121.726 41.1875 121.726H41.6235C48.6638 121.726 53.3845 120.983 56.4947 120.115C59.7904 119.195 61.8563 115.957 61.3423 112.6L59.3577 99.6943H59.3545Z" fill="#747F8D"/>
<path d="M52.4547 100.137L51.2509 100.324C44.7279 101.344 38.0845 101.344 31.5614 100.324L30.3577 100.137C29.0075 100.137 27.9111 99.049 27.9111 97.7094V92.5607C27.9111 90.6239 29.6289 89.1261 31.5647 89.3747L35.0035 89.8137C39.2524 90.3592 43.5567 90.3592 47.8056 89.8137L51.2444 89.3747C53.1802 89.1261 54.898 90.6239 54.898 92.5607V97.7094C54.898 99.049 53.8016 100.137 52.4514 100.137H52.4547Z" fill="url(#paint2_linear_19865_129263)"/>
<path d="M48.804 104.456H38.3574V115.686H48.804V104.456Z" fill="#747F8D"/>
<path d="M32.209 104.566V115.58C32.209 116.594 33.0353 117.417 34.0602 117.417H34.9841V102.732H34.0602C33.0386 102.732 32.209 103.552 32.209 104.569V104.566Z" fill="#83ED90"/>
<path d="M48.8595 102.729H36.835V117.413H48.8595C49.881 117.413 50.7107 116.59 50.7107 115.576V104.562C50.7107 103.549 49.881 102.726 48.8595 102.726V102.729ZM47.9355 111.906C47.9355 112.92 47.1059 113.743 46.0843 113.743C45.0628 113.743 44.2332 112.92 44.2332 111.906C44.2332 110.892 45.0628 110.069 46.0843 110.069V107.671L42.3852 108.894V112.823C42.3852 113.836 41.5556 114.66 40.5341 114.66C39.5125 114.66 38.6829 113.836 38.6829 112.823C38.6829 111.809 39.5125 110.986 40.5341 110.986V108.233C40.5341 107.836 40.7878 107.487 41.1652 107.361L46.7155 105.524C46.9985 105.431 47.3076 105.476 47.5484 105.65C47.7891 105.821 47.9323 106.099 47.9323 106.396V111.903L47.9355 111.906Z" fill="#83ED90"/>
<path d="M0.80684 30.7406C3.10048 29.2751 4.64584 26.8993 5.05251 24.22L5.73898 19.6621C5.77151 19.4361 5.96671 19.2715 6.19445 19.2715C6.42219 19.2715 6.61739 19.4361 6.64992 19.6621L7.33639 24.22C7.73981 26.8961 9.28517 29.2719 11.5821 30.7406L12.1774 31.1215C12.3108 31.2055 12.3889 31.3507 12.3889 31.5057V31.5347C12.3889 31.6897 12.3076 31.8349 12.1774 31.9188L11.5821 32.2998C9.28842 33.7653 7.74306 36.1411 7.33639 38.8203L6.64992 43.3783C6.61739 43.6043 6.42219 43.7689 6.19445 43.7689C5.96671 43.7689 5.77151 43.6043 5.73898 43.3783L5.05251 38.8203C4.64909 36.1443 3.10373 33.7685 0.80684 32.2998L0.21147 31.9188C0.0813347 31.8349 0 31.6897 0 31.5347V31.5057C0 31.3507 0.0813347 31.2055 0.21147 31.1215L0.80684 30.7406Z" fill="#FEDB5E"/>
<path d="M47.7339 89.8232C46.8327 89.9362 45.9283 90.0234 45.0238 90.0879C44.474 90.5818 42.9742 91.5986 39.0343 92.9028C38.3902 93.1158 38.0421 93.8066 38.2568 94.4458C38.4292 94.9558 38.9075 95.2786 39.4248 95.2786C39.5549 95.2786 39.685 95.2592 39.8152 95.2173C46.618 92.9673 47.8966 91.0531 47.7372 89.8232H47.7339Z" fill="#D8529B"/>
<path d="M45.1454 79.3503C48.3927 78.1077 49.5549 73.3181 47.7414 68.6523C45.9278 63.9866 41.8252 61.2116 38.5779 62.4542C35.3307 63.6968 34.1684 68.4864 35.982 73.1522C37.7956 77.8179 41.8982 80.5929 45.1454 79.3503Z" fill="url(#paint3_linear_19865_129263)"/>
<path d="M41.5261 66.9164C40.3516 64.9086 37.352 63.2591 34.3296 62.6684C26.7297 61.1835 20.0147 63.9596 20.0147 63.9596C15.7853 65.5736 14.484 69.77 14.8093 72.3524C15.2583 75.9129 16.5921 77.9304 17.3307 80.7388C17.7666 82.4045 18.4303 84.3832 19.12 86.2781C21.0037 91.4623 25.7602 96.1042 33.0315 94.6257C35.0226 94.219 39.8636 93.3345 43.0975 91.5623C47.0211 89.4125 47.4993 84.8158 46.0451 81.3909L42.642 73.3434C42.5054 73.0626 42.4728 72.7817 42.5281 72.5203C42.9023 70.7901 42.7429 68.9888 41.7278 67.2554L41.5261 66.9132V66.9164Z" fill="#7393F9"/>
<path d="M110.55 66.5709C113.676 65.2571 116.92 64.2597 120.108 63.1137C121.006 62.7909 121.663 62.552 121.55 61.3157C121.445 60.1827 122.311 59.4241 123.394 59.069C124.556 58.6881 125.639 59.0077 126.296 59.9503C127.009 60.9768 127.65 60.2698 128.349 60.1375C129.081 60.0019 129.28 59.6404 129.228 58.8753C129.143 57.6648 129.979 56.6803 131.15 56.3187C132.243 55.9798 133.447 56.3187 134.111 57.3194C134.485 57.8843 134.84 57.9618 135.331 57.6519C135.916 57.2839 137.01 57.6003 136.954 56.3349C136.892 54.9468 137.611 53.9946 138.796 53.6104C140.016 53.2134 141.002 53.5233 141.919 54.6918C142.209 55.0598 142.436 55.2115 142.898 55.0405C144.997 54.269 147.131 53.5814 149.203 52.7486C152.476 51.4348 154.129 48.6974 155.326 45.6017C155.583 44.9335 155.821 44.2524 156.14 43.6133C156.608 42.6804 157.587 42.6126 158.202 43.4519C158.388 43.7069 158.505 44.02 158.615 44.3202C160.33 49.0783 162.038 53.8396 163.749 58.601C163.896 59.0045 164.065 59.408 163.967 59.8534C163.778 60.7153 163.05 61.0413 162.119 60.6378C160.268 59.8341 158.521 58.8043 156.575 58.2104C154.933 57.71 153.283 57.4679 151.494 57.8327C151.933 58.6913 152.427 59.4273 152.72 60.2731C154.038 64.0821 152.427 68.2334 148.832 70.0862C148.152 70.4349 147.811 70.7544 147.856 71.5969C147.921 72.7752 147.105 73.7081 145.973 74.0696C144.87 74.4215 143.715 74.1987 143.08 73.198C142.361 72.065 141.678 72.8752 140.959 73.0044C140.263 73.1335 140.091 73.5015 140.146 74.2149C140.234 75.4286 139.515 76.3486 138.373 76.7585C137.247 77.162 136.021 76.9458 135.373 75.9418C134.657 74.8282 133.971 75.5932 133.245 75.732C132.556 75.8612 132.364 76.213 132.416 76.9296C132.504 78.1304 131.775 79.0827 130.659 79.4894C129.55 79.8929 128.362 79.6412 127.643 78.6695C127.197 78.0659 126.778 78.0078 126.098 78.1498C121.335 79.144 116.933 76.0807 116.286 71.2741C116.152 70.2928 115.843 70.309 115.085 70.5963C114.181 70.9417 113.292 71.3581 112.316 71.5033C113.273 69.3051 112.691 67.6781 110.55 66.5742V66.5709ZM140.728 67.4102C140.64 67.0487 140.608 66.8421 140.54 66.6452C140.221 65.7349 139.892 64.831 139.564 63.924C138.926 62.1518 138.936 62.1776 137.182 62.7909C136.541 63.0137 136.323 63.2558 136.606 63.9304C137.045 64.9827 137.367 66.0835 137.794 67.1423C137.934 67.4909 137.852 68.1623 138.438 68.0752C139.209 67.9622 139.947 67.6459 140.728 67.4102ZM131.219 65.1022C131.098 65.0731 131.02 65.0279 130.965 65.0473C130.252 65.2926 129.449 65.4153 128.866 65.8382C128.421 66.161 128.993 66.7323 129.117 67.1842C129.306 67.8718 129.585 68.5303 129.826 69.205C130.467 70.9836 130.457 70.961 132.227 70.3348C132.816 70.1282 133.044 69.9313 132.777 69.276C132.289 68.0881 131.895 66.8614 131.456 65.6542C131.385 65.4573 131.287 65.2668 131.215 65.1054L131.219 65.1022ZM146.048 60.4312C145.956 60.4022 145.722 60.3021 145.478 60.2602C144.278 60.0406 144.05 60.3086 144.45 61.4352C144.844 62.5424 145.276 63.6399 145.631 64.76C145.862 65.4895 146.174 65.4476 146.692 65.0408C148.25 63.8013 147.987 61.3771 146.048 60.4312ZM123.248 72.7042C123.498 72.7655 123.775 72.8559 124.061 72.8978C125.122 73.0463 125.31 72.8268 124.962 71.852C124.543 70.6705 124.1 69.4955 123.697 68.3108C123.495 67.7136 123.189 67.7007 122.747 68.0494C121.953 68.6756 121.579 69.4858 121.676 70.493C121.777 71.5098 122.369 72.1877 123.248 72.7074V72.7042Z" fill="#FBAB42"/>
<path d="M110.55 66.571C112.691 67.675 113.273 69.2987 112.317 71.5002C111.708 72.5461 110.462 72.9948 109.939 74.1956C109.633 74.8928 108.247 74.5958 107.912 73.7501C107.111 71.7197 106.399 69.6538 105.693 67.5911C105.527 67.1004 105.651 66.6097 106.129 66.2547C106.578 65.9222 107.05 65.764 107.521 66.1029C108.462 66.7776 109.597 66.0707 110.55 66.571Z" fill="#CCD6DC"/>
<path d="M135.341 50.9342C135.471 50.6211 135.656 50.3725 135.991 50.2563C136.876 49.9464 137.752 49.6075 138.643 49.3299C139.456 49.0749 140.11 49.3525 140.374 50.1595C140.631 50.9407 140.292 51.5766 139.528 51.8897C138.662 52.2448 137.771 52.5482 136.876 52.8162C136.379 52.9646 135.884 52.9065 135.51 52.4417C135.123 51.964 135.126 51.4668 135.341 50.9374V50.9342Z" fill="#CCD6DC"/>
<path d="M120.428 58.126C120.044 57.9161 119.715 57.5449 119.699 56.9284C119.683 56.3344 120.011 55.9632 120.496 55.7663C121.43 55.3886 122.373 55.0077 123.349 54.7656C124.019 54.5977 124.654 54.8947 124.917 55.5887C125.174 56.2666 125.025 56.9219 124.322 57.2286C123.333 57.6547 122.298 57.9775 121.277 58.3326C121.02 58.4229 120.782 58.2938 120.428 58.126Z" fill="#CCD6DC"/>
<path d="M128.323 55.4246C127.223 54.9017 127.09 53.7073 128.095 53.1359C129.058 52.5904 130.125 52.2289 131.222 52.0352C131.951 51.9061 132.455 52.2741 132.653 53.0165C132.849 53.7428 132.66 54.298 131.938 54.5789C131.069 54.9178 130.181 55.2051 129.306 55.5247C128.935 55.6603 128.603 55.586 128.323 55.4278V55.4246Z" fill="#CCD6DC"/>
<path d="M133.373 37.0798L133.207 37.8513C132.11 38.9456 130.789 39.7332 129.495 40.5596C126.993 42.1574 124.449 43.694 122.018 45.3887C120.577 46.3926 119.172 46.6766 117.561 46.0149C116.741 45.4565 116.003 44.8076 115.277 44.1297C114.623 43.5196 113.872 43.0774 112.98 42.8127C109.873 41.883 107.222 40.2142 105.416 37.5123C101.59 31.7794 97.8619 25.9818 94.0978 20.2102C93.6683 19.5516 93.4633 18.8382 93.6748 18.0506C93.7529 17.5761 94.1335 17.2662 94.3287 16.853C95.4935 16.1751 96.6712 15.6393 97.8717 16.7497C98.2296 17.0822 98.5354 17.4857 98.8054 17.8924C100.728 20.8138 102.631 23.7481 104.548 26.6726C104.714 26.9277 104.873 27.3505 105.296 27.0826C105.647 26.8599 105.852 26.4983 105.634 26.0625C105.501 25.7978 105.328 25.5525 105.169 25.304C102.501 21.2141 99.8465 17.1177 97.1559 13.044C96.5931 12.1918 96.2125 11.317 96.1897 10.2969C96.4109 9.89019 96.6322 9.48346 96.8534 9.0735C96.9738 9.0154 97.1104 8.98312 97.208 8.89919C98.7241 7.58216 100.335 8.25359 101.343 9.84823C103.103 12.634 104.987 15.3423 106.812 18.0893C107.687 19.4096 108.543 20.7428 109.415 22.063C109.555 22.2729 109.678 22.586 110.013 22.4504C110.251 22.3568 110.524 22.2018 110.638 21.9985C110.833 21.6498 110.485 21.3916 110.316 21.1334C107.238 16.4043 104.164 11.6753 101.063 6.96238C100.598 6.25222 100.263 5.52914 100.263 4.67372C100.458 3.98615 100.855 3.42448 101.395 2.95964C103.311 2.1365 104.356 2.43993 105.501 4.19274C108.585 8.90887 111.66 13.6315 114.74 18.3476C115.206 19.061 115.697 19.1255 116.094 18.5477C116.403 18.0958 116.016 17.8021 115.817 17.4986C113.042 13.2893 110.261 9.08641 107.472 4.88999C106.913 4.04748 106.516 3.16623 106.516 2.13973C106.666 1.66198 106.89 1.2262 107.251 0.867888C108.614 -0.481422 110.394 -0.258689 111.559 1.43602C113.019 3.55682 114.292 5.79707 115.85 7.85331C117.893 11.246 120.102 14.5353 122.324 17.8117C122.78 18.4864 123.316 19.132 123.987 19.6388C124.312 19.8841 124.628 20.1682 125.194 20.0229C124.95 19.6291 124.767 19.3225 124.572 19.0255C123.02 16.6464 121.475 14.2642 119.91 11.8948C119.318 10.9942 119.074 10.0451 119.305 8.98635C121.107 6.72351 122.913 6.80744 124.51 9.2349C125.252 10.3615 125.984 11.4977 126.723 12.6275C128.076 14.6935 129.377 16.7949 130.799 18.8157C133.61 22.8184 134.453 27.1472 133.057 31.831C132.511 33.6581 132.676 35.3625 133.382 37.0733L133.373 37.0798Z" fill="#FEDB5E"/>
<path d="M117.562 46.018C116.169 46.9832 114.686 46.938 113.049 45.8244C112.48 45.437 111.982 44.9399 111.445 44.5009C110.694 43.8843 109.848 43.4485 108.901 43.2064C105.726 42.393 103.139 40.6757 101.249 38.0384C97.3092 32.5411 93.4279 27.005 89.5564 21.4625C88.2323 19.5677 89.3026 17.3274 91.5214 17.1693C92.4064 17.1047 93.0017 17.6535 93.6784 18.0505C93.467 18.8382 93.6719 19.5516 94.1014 20.2101C97.8655 25.985 101.594 31.7825 105.42 37.5122C107.226 40.2141 109.877 41.883 112.984 42.8126C113.875 43.0806 114.627 43.5196 115.281 44.1297C116.003 44.8075 116.742 45.4564 117.565 46.0148L117.562 46.018Z" fill="#EE9845"/>
<path d="M94.3288 16.8531C93.6033 15.8363 92.868 14.8227 92.1523 13.7994C91.0103 12.166 91.0494 10.8651 92.2531 9.85475C93.5122 8.79919 94.7094 8.93477 96.1897 10.297C96.2092 11.317 96.5931 12.1918 97.156 13.044C99.8465 17.1178 102.505 21.2141 105.169 25.304C105.332 25.5526 105.504 25.7979 105.634 26.0626C105.852 26.4984 105.647 26.8599 105.296 27.0827C104.873 27.3506 104.714 26.9277 104.548 26.6727C102.631 23.7481 100.728 20.8139 98.8054 17.8925C98.5354 17.4826 98.2296 17.0791 97.8717 16.7498C96.6712 15.6361 95.4902 16.172 94.3288 16.8531Z" fill="#EE9845"/>
<path d="M96.8502 9.07645C96.4891 8.56965 96.1117 8.07254 95.7733 7.55283C94.8526 6.14218 95.025 4.82193 96.2353 3.90194C97.4781 2.95936 98.7534 3.10462 99.9181 4.32158C100.032 4.44102 100.143 4.56046 100.256 4.67989C100.256 5.53532 100.592 6.25839 101.057 6.96856C104.157 11.6815 107.232 16.4105 110.309 21.1395C110.479 21.401 110.827 21.6593 110.632 22.0047C110.518 22.2112 110.241 22.363 110.007 22.4566C109.672 22.5921 109.548 22.279 109.408 22.0692C108.536 20.7457 107.684 19.4126 106.806 18.0955C104.98 15.3485 103.1 12.6402 101.337 9.8544C100.328 8.25976 98.7209 7.58834 97.2015 8.90536C97.1039 8.98929 96.9673 9.02157 96.8469 9.07968L96.8502 9.07645Z" fill="#EE9845"/>
<path d="M101.389 2.96603C101.477 1.74907 102.28 1.11638 103.325 0.748387C104.385 0.373938 105.244 0.812948 105.98 1.5683C106.162 1.75553 106.331 1.95244 106.507 2.14612C106.507 3.17263 106.903 4.05387 107.463 4.89639C110.254 9.09281 113.036 13.2957 115.808 17.505C116.01 17.8084 116.397 18.1022 116.085 18.5541C115.688 19.1319 115.196 19.0674 114.731 18.354C111.65 13.6379 108.572 8.91527 105.492 4.19914C104.346 2.44955 103.305 2.14289 101.386 2.96603H101.389Z" fill="#EE9845"/>
<path d="M115.841 7.86022C117.289 7.29531 118.056 7.5471 119.296 8.99002C119.065 10.0488 119.309 11.0011 119.901 11.8985C121.466 14.2678 123.011 16.6501 124.563 19.0291C124.758 19.3294 124.941 19.636 125.185 20.0266C124.615 20.1719 124.303 19.8878 123.978 19.6425C123.307 19.1357 122.774 18.4901 122.315 17.8154C120.093 14.539 117.881 11.2496 115.841 7.85699V7.86022Z" fill="#EE9845"/>
<path d="M138.399 7.21399C138.279 7.82086 137.963 8.09524 137.589 8.33411C135.891 9.41872 134.199 10.5195 132.494 11.5944C131.629 12.1399 130.851 12.0108 130.422 11.2974C130.009 10.6131 130.217 9.9223 131.043 9.38322C132.761 8.2631 134.489 7.16557 136.216 6.06159C136.766 5.70974 137.329 5.63872 137.879 6.05513C138.318 6.38439 138.448 6.83954 138.399 7.21722V7.21399Z" fill="#EE9845"/>
<path d="M94.0818 35.7339C93.9289 36.2374 93.623 36.5183 93.2489 36.7571C91.5767 37.8224 89.9142 38.907 88.2354 39.9626C87.3473 40.5242 86.6022 40.4242 86.1468 39.7301C85.6913 39.0361 85.9028 38.3066 86.7714 37.7417C88.4892 36.6248 90.2168 35.5208 91.9476 34.4233C92.4583 34.0973 92.9984 34.0295 93.5254 34.4071C94.007 34.7525 94.1371 35.2367 94.0785 35.7306L94.0818 35.7339Z" fill="#EE9845"/>
<path d="M95.4512 43.3393C94.4947 43.1133 94.023 42.2127 94.4459 41.4445C95.0998 40.263 95.8091 39.1074 96.5704 37.9937C96.9933 37.3739 97.6668 37.2448 98.3272 37.6709C98.9746 38.0905 99.1536 38.7329 98.7794 39.3947C98.1287 40.5406 97.4162 41.651 96.7037 42.7615C96.3882 43.2554 95.8839 43.3942 95.4512 43.3393Z" fill="#EE9845"/>
<path d="M126.45 8.63083C125.581 8.45975 125.093 7.52362 125.542 6.71339C126.183 5.56422 126.886 4.4441 127.618 3.3498C128.037 2.72356 128.701 2.55571 129.361 2.95921C130.051 3.37885 130.243 4.03737 129.833 4.75076C129.192 5.86442 128.506 6.95226 127.819 8.0401C127.507 8.53399 127.026 8.71153 126.446 8.63083H126.45Z" fill="#EE9845"/>
<path d="M132.837 17.657C132.098 17.4537 131.714 17.0889 131.656 16.4562C131.591 15.7751 131.919 15.2296 132.554 15.1069C133.845 14.8583 135.159 14.6937 136.474 14.6001C137.134 14.5517 137.567 15.023 137.697 15.675C137.817 16.2948 137.577 16.8597 136.994 17.0437C135.605 17.4827 134.144 17.5021 132.837 17.657Z" fill="#EE9845"/>
<path d="M91.5014 28.4512C92.2107 28.6449 92.6011 29.0064 92.6661 29.6359C92.7345 30.3137 92.4189 30.8722 91.7812 30.9916C90.4571 31.2402 89.1102 31.4145 87.7633 31.492C87.1126 31.5275 86.6929 31.0078 86.6083 30.3492C86.5302 29.7262 86.8165 29.1839 87.4054 29.0258C88.7751 28.6545 90.1968 28.5867 91.4982 28.4544L91.5014 28.4512Z" fill="#EE9845"/>
<path d="M118.485 90.4589C118.173 90.1942 117.841 89.965 117.499 89.7617C117.477 89.7487 117.454 89.7326 117.431 89.7197C117.242 89.6099 117.051 89.5099 116.855 89.4098C114.044 88.0379 111.071 88.4543 110.781 88.4995C110.771 88.4995 110.765 88.4995 110.755 88.5027C107.879 89.0321 105.781 90.9883 105.309 93.5998C105.247 95.0362 106.259 96.5534 107.756 97.241C108.387 97.5315 109.047 97.7768 109.587 98.2287C110.205 98.7452 110.144 99.2197 109.421 99.5619C108.832 99.8395 108.192 99.8976 107.554 99.9848C107.271 100.024 106.91 99.9364 106.793 100.34C106.802 101.909 106.226 103.287 105.263 104.475C103.852 106.225 102.352 107.906 100.888 109.617C100.93 110.127 101.34 110.011 101.636 110.011C102.391 110.014 103.142 109.982 103.897 109.946C105.83 109.856 107.73 109.591 109.574 108.994C110.17 108.804 110.645 108.523 110.69 107.816C110.69 107.803 110.69 107.79 110.69 107.777L110.771 107.793L110.885 107.27C111.25 106.279 111.962 105.531 112.701 104.82C113.927 103.642 115.216 102.522 116.452 101.353C117.942 99.9428 119.253 98.3966 120.011 96.4566C120.916 94.1388 120.385 92.0729 118.485 90.4524V90.4589Z" fill="#3E721D"/>
<path d="M110.283 98.9126C110.296 98.1573 108.607 97.3858 108.009 97.1372C107.96 97.1179 107.911 97.0985 107.862 97.0791C107.823 97.063 107.804 97.0565 107.804 97.0565C106.337 96.398 105.696 95.11 105.305 93.6025C105.195 93.8253 105.071 94.0415 104.973 94.2675C104.362 95.6588 103.932 95.8912 102.458 95.5845C101.304 95.3457 100.214 94.9454 99.2116 94.3127C98.2518 93.7091 98.0209 93.6445 97.5101 94.3514C97.4417 94.4644 96.8919 95.407 97.2303 96.3496C97.2661 96.44 97.3051 96.5271 97.3474 96.6111C97.3474 96.6143 97.3507 96.6175 97.3539 96.6207C97.8191 97.531 98.6878 98.0959 99.6313 98.5608C101.499 99.4807 103.529 99.8455 105.582 100.091C105.624 100.094 105.67 100.101 105.712 100.104C105.894 100.117 106.079 100.12 106.262 100.146C108.36 100.255 110.084 99.8584 110.27 99.003C110.276 98.9707 110.28 98.9384 110.28 98.9062L110.283 98.9126Z" fill="#FECB4D"/>
<path d="M107.863 97.0799C107.844 97.0701 107.824 97.0603 107.801 97.0537C107.801 97.0537 107.824 97.0668 107.86 97.0799H107.863Z" fill="#FECB4D"/>
<path d="M97.3477 96.6143C97.3477 96.6143 97.3508 96.6205 97.3539 96.6267C97.3539 96.6236 97.3508 96.6205 97.3477 96.6174V96.6143Z" fill="#FECB4D"/>
<path d="M117.5 89.7614C117.477 89.7483 117.454 89.7319 117.431 89.7188C117.454 89.7319 117.477 89.745 117.5 89.7614Z" fill="#3E721D"/>
<path d="M110.658 94.5425C111.621 94.5425 112.402 93.7678 112.402 92.8122C112.402 91.8567 111.621 91.082 110.658 91.082C109.695 91.082 108.914 91.8567 108.914 92.8122C108.914 93.7678 109.695 94.5425 110.658 94.5425Z" fill="#292F33"/>
<path d="M110.784 110.566C110.521 109.668 110.693 108.338 110.804 107.683C110.833 107.551 110.859 107.418 110.878 107.286C110.592 108.229 109.971 108.726 108.991 108.987C106.428 109.672 103.809 109.723 101.187 109.827C101.04 109.833 100.91 109.791 100.884 109.617C99.5924 110.676 99.0654 112.638 98.9482 113.132C98.9482 113.139 98.958 113.142 98.9612 113.132C99.1077 112.79 99.4558 112.877 100.119 112.916C100.165 112.929 100.207 112.942 100.256 112.955C103.067 113.255 105.79 112.903 108.442 112.031C108.861 111.893 109.268 111.712 109.655 111.495C109.655 111.495 109.658 111.495 109.662 111.492C109.86 111.382 110.065 111.286 110.28 111.205C110.69 111.05 110.937 110.947 110.937 110.947C110.885 110.818 110.833 110.692 110.781 110.563L110.784 110.566Z" fill="#F4F7F9"/>
<path d="M104.691 127.171C104.691 127.171 104.691 127.164 104.688 127.161C104.688 127.161 104.688 127.161 104.685 127.164C104.685 127.164 104.691 127.164 104.695 127.168L104.691 127.171Z" fill="#E0E7EC"/>
<path d="M136.76 127.852C136.792 127.884 136.851 127.9 136.932 127.9C136.903 127.855 136.877 127.813 136.848 127.768C136.818 127.793 136.789 127.822 136.76 127.848V127.852Z" fill="#414447"/>
<path d="M127.407 132.001C127.407 132.001 127.396 131.994 127.393 131.99C127.393 131.99 127.396 131.994 127.4 131.997C127.4 131.997 127.407 131.997 127.411 131.997L127.407 132.001Z" fill="#E4E4E5"/>
<path d="M127.406 132C127.406 132 127.383 131.974 127.37 131.961C127.377 131.971 127.383 131.98 127.39 131.99C127.393 131.99 127.399 131.996 127.402 132H127.406Z" fill="#E4E4E5"/>
<path d="M128.069 118.907C128.18 118.907 128.294 118.914 128.404 118.92C128.291 118.888 128.177 118.862 128.069 118.907Z" fill="#A88576"/>
<path d="M129.368 119.062C129.368 119.062 129.365 119.062 129.361 119.062C129.371 119.095 129.387 119.137 129.413 119.185C130.025 119.372 130.685 119.385 131.274 119.66C130.702 119.266 129.989 119.301 129.368 119.062Z" fill="#A88576"/>
<path d="M129.358 119.052C129.358 119.052 129.358 119.046 129.358 119.043C129.358 119.043 129.352 119.043 129.349 119.043C129.352 119.046 129.355 119.049 129.358 119.055V119.052Z" fill="#3D3E40"/>
<path d="M129.358 119.053C129.358 119.053 129.364 119.059 129.367 119.062C129.374 119.059 129.384 119.053 129.39 119.049C129.377 119.049 129.367 119.046 129.354 119.043C129.354 119.046 129.354 119.049 129.354 119.053H129.358Z" fill="#3D3E40"/>
<path d="M129.084 118.998C129.019 118.998 128.951 118.994 128.886 118.991C129.039 119.03 129.208 119.027 129.364 119.062C129.364 119.062 129.364 119.056 129.364 119.053C129.361 119.049 129.357 119.046 129.354 119.04C129.266 119.023 129.179 119.011 129.091 118.998H129.084Z" fill="#3D3E40"/>
<path d="M128.789 118.956C128.822 118.969 128.854 118.982 128.887 118.992C128.952 118.992 129.02 118.998 129.085 118.998C128.988 118.982 128.887 118.969 128.789 118.956Z" fill="#3D3E40"/>
<path d="M129.368 119.063C129.368 119.063 129.362 119.056 129.358 119.053C129.358 119.053 129.358 119.059 129.358 119.063C129.358 119.063 129.362 119.063 129.365 119.063H129.368Z" fill="#3D3E40"/>
<path d="M109.483 111.547C109.418 111.525 109.346 111.531 109.271 111.57C109.32 111.579 109.369 111.589 109.418 111.599C109.418 111.599 109.424 111.596 109.424 111.592C109.444 111.576 109.463 111.56 109.483 111.547Z" fill="#3E721D"/>
<path d="M110.941 110.95C110.941 110.95 110.589 111.092 110.017 111.296L109.272 111.573C106.409 112.577 103.468 113.035 100.429 112.774C100.429 112.774 100.429 112.774 100.426 112.774C100.234 112.774 100.068 112.771 99.9379 112.768C99.8598 112.768 99.7947 112.764 99.7427 112.761C99.2612 112.735 99.0497 112.964 98.9586 113.158C98.8936 113.291 98.8871 113.41 98.8871 113.41C98.2754 115.592 97.9241 117.8 98.3177 120.076C98.6463 121.961 99.2547 123.701 100.559 125.079C100.569 125.089 100.576 125.099 100.582 125.108C101.493 126.144 102.062 126.193 102.062 126.193L101.626 123.807C101.626 123.807 101.405 123.84 101.145 123.917C101.158 123.62 101.2 123.317 101.269 123.01C101.747 120.789 103.064 119.027 104.402 117.284C105.478 115.879 106.702 114.601 107.944 113.345C109.776 111.547 110.941 110.96 110.941 110.957V110.95Z" fill="#C0694F"/>
<path d="M129.739 118.849C133.806 118.93 137.859 119.127 141.783 120.35C142.193 120.479 142.547 120.686 142.892 120.925C142.691 120.001 142.105 119.282 141.549 118.565C138.035 114.039 133.558 110.882 127.907 109.617C124.234 108.794 120.515 109.033 116.842 109.859C115.31 110.204 113.862 110.815 112.356 111.244C111.852 111.389 111.302 111.563 110.941 110.95C110.941 110.95 109.776 111.541 107.944 113.339C106.702 114.598 105.478 115.873 104.401 117.277C103.064 119.02 101.747 120.783 101.268 123.004C101.086 123.849 101.073 124.653 101.399 125.454C101.399 125.454 101.399 125.454 101.399 125.457C101.525 125.77 101.766 126.022 102.062 126.183C102.524 126.432 103.11 126.693 103.832 126.919C103.806 126.858 103.783 126.8 103.761 126.745C103.341 125.66 103.539 125.224 104.763 124.392C106.721 123.058 108.927 122.232 111.165 121.515C116.25 119.882 121.456 118.878 126.817 118.814C127.204 118.81 127.588 118.872 127.976 118.904C128.07 118.42 128.369 118.801 128.568 118.765C128.958 118.791 129.348 118.82 129.739 118.846" fill="#D89D81"/>
<path d="M135.682 129.198C135.682 129.198 139.664 125.825 141.714 123.21C141.887 122.987 142.065 122.774 142.251 122.561C142.593 122.171 143.139 121.428 142.895 120.925C142.55 120.211 141.389 119.827 136.069 119.017C130.75 118.21 124.712 118.707 124.712 118.707L135.682 129.198Z" fill="#292F33"/>
<path d="M125.405 131.574C127.695 132.058 130.083 131.961 132.295 131.196C134.319 130.499 136.388 129.192 137.208 126.755C139.03 121.338 132.591 119.366 127.624 118.778C122.656 118.191 113.549 120.341 108.477 122.342C103.402 124.343 101.235 126.396 104.69 127.158C107.459 127.768 120.388 130.509 125.408 131.571L125.405 131.574Z" fill="#E0E7EC"/>
<path d="M142.759 27.9549C144.796 26.654 146.169 24.5429 146.53 22.1638L147.141 18.1159C147.171 17.9158 147.343 17.7705 147.548 17.7705C147.75 17.7705 147.922 17.919 147.955 18.1159L148.566 22.1638C148.924 24.5429 150.297 26.6508 152.337 27.9549L152.867 28.2938C152.984 28.3681 153.056 28.4972 153.056 28.636V28.6618C153.056 28.8006 152.984 28.9298 152.867 29.004L152.337 29.3429C150.3 30.6438 148.927 32.755 148.566 35.134L147.955 39.1819C147.925 39.3821 147.753 39.5273 147.548 39.5273C147.346 39.5273 147.174 39.3788 147.141 39.1819L146.53 35.134C146.172 32.755 144.799 30.6471 142.759 29.3429L142.229 29.004C142.112 28.9298 142.04 28.8006 142.04 28.6618V28.636C142.04 28.4972 142.112 28.3681 142.229 28.2938L142.759 27.9549Z" fill="#66BAFF"/>
<path d="M130.22 92.9119C131.655 91.9952 132.621 90.5103 132.875 88.8349L133.305 85.9846C133.327 85.8458 133.448 85.7393 133.591 85.7393C133.734 85.7393 133.854 85.8426 133.877 85.9846L134.307 88.8349C134.56 90.5103 135.527 91.9952 136.961 92.9119L137.336 93.1508C137.417 93.2024 137.469 93.2928 137.469 93.3929V93.409C137.469 93.5059 137.42 93.5962 137.336 93.6511L136.961 93.89C135.527 94.8068 134.56 96.2916 134.307 97.967L133.877 100.817C133.854 100.956 133.734 101.063 133.591 101.063C133.448 101.063 133.327 100.959 133.305 100.817L132.875 97.967C132.621 96.2916 131.655 94.8068 130.22 93.89L129.846 93.6511C129.765 93.5995 129.713 93.5091 129.713 93.409V93.3929C129.713 93.296 129.762 93.2057 129.846 93.1508L130.22 92.9119Z" fill="#8FFFAB"/>
<path d="M91.2873 54.1754C92.6667 53.2393 93.2068 51.5026 92.3088 50.1049C92.2925 50.0791 92.273 50.05 92.2568 50.0242C91.2938 48.5296 89.2376 48.1907 87.8452 49.3011C82.1973 53.8107 67.8694 67.5136 57.8066 84.564C57.8066 84.564 77.6979 63.3817 91.2873 54.1754Z" fill="#83ED90"/>
<path d="M60.2689 88.909C60.0802 88.9897 79.8023 77.4334 95.7927 71.7715C97.4486 71.184 99.2152 72.3202 99.3616 74.0601C99.4722 75.3998 98.8476 76.6038 97.2306 76.8846C97.2306 76.8846 78.5172 80.9842 60.2722 88.909H60.2689Z" fill="#83ED90"/>
<path d="M83.9435 100.117C85.3034 100.576 86.7707 99.8655 87.0733 98.471C87.3498 97.1992 86.5137 95.9596 85.2286 95.7078C73.6856 93.4418 61.6904 93.303 61.5732 93.29C61.5732 93.29 70.0939 95.4367 83.9435 100.117Z" fill="#83ED90"/>
</g>
<defs>
<linearGradient id="paint0_linear_19865_129263" x1="40.9985" y1="77.2485" x2="41.6738" y2="72.5834" gradientUnits="userSpaceOnUse">
<stop stop-color="#718CF6"/>
<stop offset="1" stop-color="#4C70E0"/>
</linearGradient>
<linearGradient id="paint1_linear_19865_129263" x1="43.3644" y1="25.9991" x2="46.747" y2="64.9949" gradientUnits="userSpaceOnUse">
<stop offset="0.67" stop-color="#718CF6"/>
<stop offset="0.78" stop-color="#6885F1"/>
<stop offset="0.96" stop-color="#5274E3"/>
<stop offset="1" stop-color="#4C70E0"/>
</linearGradient>
<linearGradient id="paint2_linear_19865_129263" x1="40.1959" y1="101.896" x2="42.6761" y2="87.725" gradientUnits="userSpaceOnUse">
<stop offset="0.2" stop-color="#FF78B9"/>
<stop offset="0.45" stop-color="#F972B4"/>
<stop offset="0.79" stop-color="#E864A9"/>
<stop offset="1" stop-color="#DB58A0"/>
</linearGradient>
<linearGradient id="paint3_linear_19865_129263" x1="45.637" y1="64.4181" x2="38.1831" y2="77.4337" gradientUnits="userSpaceOnUse">
<stop stop-color="#7393F9"/>
<stop offset="1" stop-color="#4C70E0"/>
</linearGradient>
<clipPath id="clip0_19865_129263">
<rect width="164" height="132" fill="white"/>
</clipPath>
</defs>
</svg>
