<svg xmlns="http://www.w3.org/2000/svg" viewBox="0 0 380 290">
  <title>Privacy-Principles-Section-Image</title>
  <g id="Sparkles">
    <path id="_5" data-name="5" d="M31.6,78.7c-4.9-.9-13.4-5.5-13.7-24.6a1.4,1.4,0,0,0-1.3-1.4,1.3,1.3,0,0,0-1.2,1.4h0c.2,21.7-9.8,23.3-14.1,24.1A1.4,1.4,0,0,0,0,79.7a1.6,1.6,0,0,0,1.4,1.5c4.8.7,14.6,2.7,14.9,22.6a1.3,1.3,0,0,0,1.3,1.4,1.5,1.5,0,0,0,1.5-1.5c-.3-20,8.2-21,12.8-22A1.4,1.4,0,0,0,33,80,1.6,1.6,0,0,0,31.6,78.7Z" style="fill: #ffe75c"/>
    <path id="_4" data-name="4" d="M64.1,96.4c-2.7-.5-7.4-3.1-7.5-13.6a.7.7,0,1,0-1.4,0h0c.2,11.9-5.4,12.8-7.8,13.2a1,1,0,0,0-.7.8,1.1,1.1,0,0,0,.8.9c2.6.3,8.1,1.4,8.2,12.4a.8.8,0,0,0,.8.8.7.7,0,0,0,.7-.9c-.1-11,4.5-11.5,7.1-12.1a.8.8,0,0,0,.6-.9A.8.8,0,0,0,64.1,96.4Z" style="fill: #91ffad"/>
    <path id="_3" data-name="3" d="M101.1,253.9c-3.3-.7-9.1-4.1-9.4-18a.9.9,0,1,0-1.7,0h0c.3,15.8-6.4,16.9-9.3,17.4a1.1,1.1,0,0,0-.9,1,1.2,1.2,0,0,0,1,1.2c3.2.5,9.8,2,10.2,16.5,0,.6.3,1.1.9,1.1a.9.9,0,0,0,.9-1.2c-.3-14.5,5.4-15.2,8.5-15.9a1.1,1.1,0,0,0,.8-1.2A1.3,1.3,0,0,0,101.1,253.9Z" style="fill: #ff78b9"/>
    <path id="_2" data-name="2" d="M379.2,78.9c-2.5-.5-6.9-3.2-7.1-13.8a.8.8,0,0,0-.7-.7c-.4-.1-.6.3-.6.7h0c.2,12.1-5,12.9-7.2,13.3a.9.9,0,0,0-.6.8,1,1,0,0,0,.7.9c2.5.3,7.6,1.5,7.8,12.6a.7.7,0,1,0,1.4,0c-.2-11.2,4.1-11.7,6.5-12.2a.8.8,0,0,0,.6-1A1,1,0,0,0,379.2,78.9Z" style="fill: #ff78b9"/>
    <path id="_1" data-name="1" d="M358,39.6c-5.8-1.2-15.9-7.2-16.4-31.6a1.7,1.7,0,0,0-1.5-1.7A1.6,1.6,0,0,0,338.6,8v.2c.6,27.6-11.2,29.5-16.3,30.5a1.7,1.7,0,0,0-1.5,1.7,2.1,2.1,0,0,0,1.7,2.1c5.6.8,17.2,3.5,17.8,28.9,0,1.1.6,1.9,1.6,1.9a1.8,1.8,0,0,0,1.7-2c-.6-25.5,9.4-26.6,14.8-27.9a1.9,1.9,0,0,0,1.3-2.2A2.2,2.2,0,0,0,358,39.6Z" style="fill: #91ffad"/>
  </g>
  <g id="Key">
    <path id="String" d="M244.6,72.6h-.2c-7.6-.7-17-2.4-27-4.3-19.1-3.6-40.8-7.6-59.6-6.6-5.5.3-11.3.9-17.4,1.6-26.8,2.8-57,6-62.1-18.6-2.2-10.9,3.7-23.2,15.5-32,18.8-14.1,54.8-20.7,99.7,3l4.2,2.3c11.1,6.1,21.6,11.8,46.3,10.9,13.5-.5,27.3,7.8,30.6,18.4,2.4,7.5-.8,14.8-8.9,20a28.4,28.4,0,0,1-10.1,3.8,2.5,2.5,0,0,1-3-2.2,2.7,2.7,0,0,1,2.2-3,23.9,23.9,0,0,0,8-3c6.1-3.9,8.5-8.8,6.8-14-2.3-7.5-13.1-15.2-25.4-14.7-26.2.9-37.8-5.4-49-11.6L191,20.4C148.3-2.2,114.4,3.8,96.9,16.9,86.8,24.5,81.7,34.7,83.5,43.7c4.1,19.8,30.6,17,56.3,14.3,6.2-.6,12.1-1.3,17.7-1.6,19.5-1,41.5,3.1,60.9,6.7,9.8,1.9,19.1,3.6,26.5,4.3a2.6,2.6,0,0,1-.3,5.2Z" style="fill: #b0b4ff"/>
    <path id="Neck" d="M29.4,200a6.1,6.1,0,0,1-5.5-3.2,6.3,6.3,0,0,1,2.5-8.6L179,103.7a6.3,6.3,0,1,1,6.1,11L32.5,199.2A5.8,5.8,0,0,1,29.4,200Z" style="fill: #ffc619"/>
    <path id="Key_End" data-name="Key End" d="M256.1,78.7l-2-.2a6.6,6.6,0,0,1-2-.6l-1.8-1-1.6-1.3a10.1,10.1,0,0,1-1.3-1.6,10.4,10.4,0,0,1-1-1.8,6.6,6.6,0,0,1-.6-2,12.3,12.3,0,0,1-.2-2,14.9,14.9,0,0,1,.2-2.1,7,7,0,0,1,.6-1.9,11.4,11.4,0,0,1,1-1.9,18.3,18.3,0,0,1,1.3-1.6l1.6-1.3,1.8-.9a6.6,6.6,0,0,1,2-.6,9.4,9.4,0,0,1,4.1,0,7.6,7.6,0,0,1,2,.6,15.1,15.1,0,0,1,1.8.9l1.6,1.3a18.3,18.3,0,0,1,1.3,1.6,11.4,11.4,0,0,1,1,1.9l.6,1.9a14.9,14.9,0,0,1,.2,2.1,12.3,12.3,0,0,1-.2,2l-.6,2a10.4,10.4,0,0,1-1,1.8,10.1,10.1,0,0,1-1.3,1.6L262,76.9l-1.8,1a7.6,7.6,0,0,1-2,.6Z" style="fill: #ffc619"/>
    <path id="String_End" data-name="String End" d="M260.8,69.4a2.5,2.5,0,0,1-2.5-1.8,2.6,2.6,0,0,1,1.6-3.3,15.1,15.1,0,0,0,4.6-2.6,2.7,2.7,0,0,1,3.7.3,2.6,2.6,0,0,1-.2,3.7,21.8,21.8,0,0,1-6.4,3.6Z" style="fill: #b0b4ff"/>
    <path id="Ring" d="M225.8,144.8a43.4,43.4,0,0,1-37.9-22.3l-14-25.3a43.3,43.3,0,0,1,16.9-58.8,43.3,43.3,0,0,1,58.8,16.9l14,25.3a43.2,43.2,0,0,1-16.9,58.8A43.7,43.7,0,0,1,225.8,144.8ZM211.7,45.6A30.6,30.6,0,0,0,185,91.1l14,25.3a30.6,30.6,0,0,0,53.6-29.7L238.5,61.4A30.6,30.6,0,0,0,211.7,45.6Z" style="fill: #ffc619"/>
    <g id="Rounds">
      <path id="_3-2" data-name="3" d="M20.1,192.6a6.7,6.7,0,0,0-4.5,1.8,6.4,6.4,0,0,0-1.9,4.5,5,5,0,0,0,.2,1.2,5.3,5.3,0,0,0,.3,1.2l.6,1.1a3.9,3.9,0,0,0,.8,1l.9.8,1.1.5,1.2.4h2.5l1.2-.4,1.1-.5.9-.8a3.9,3.9,0,0,0,.8-1l.6-1.1a5.3,5.3,0,0,0,.3-1.2,5,5,0,0,0,.2-1.2,6.4,6.4,0,0,0-1.9-4.5A6.7,6.7,0,0,0,20.1,192.6Z" style="fill: #ffc619"/>
      <path id="_2-2" data-name="2" d="M188,119.5,176.5,98.7a6.4,6.4,0,0,0-11.1,6.2l2,3.6a6.1,6.1,0,0,0-6.4-.2,6.3,6.3,0,0,0-2.5,8.6l4.6,8.2a6.1,6.1,0,0,0,5.5,3.2,7,7,0,0,0,3.1-.7,6.4,6.4,0,0,0,3.2-5.6l2,3.6a6.3,6.3,0,0,0,5.5,3.2,5.8,5.8,0,0,0,3.1-.8A6.3,6.3,0,0,0,188,119.5Z" style="fill: #ffc619"/>
      <path id="_1-2" data-name="1" d="M105.1,146.5A6.3,6.3,0,0,0,94,152.6l4.6,8.2a6.2,6.2,0,0,0,5.5,3.3,6.4,6.4,0,0,0,3-.8,6.3,6.3,0,0,0,2.5-8.6Z" style="fill: #ffc619"/>
    </g>
    <path id="Clyde" d="M69.3,178.8A47.3,47.3,0,0,0,57,181.4c0,1.1.1,2.3.2,3.5a42.4,42.4,0,0,0-11.6,6.4l-2.9-2a49,49,0,0,0-8.6,9c-1.2,13.5,2.3,24,8.4,32.9a50.2,50.2,0,0,0,16.4-.6q.3-3,.3-6a25.7,25.7,0,0,1-5.5.3l.6-1.3a34.5,34.5,0,0,0,25.6-14.2l1.5.2a34.7,34.7,0,0,1-3.1,4.4,23.9,23.9,0,0,0,5.2,2.9,48.2,48.2,0,0,0,9.2-13.5A48.5,48.5,0,0,0,69.3,178.8ZM56,216.2c-2.5,1.4-5.8.2-7.4-2.5s-.8-6.2,1.8-7.6,5.8-.3,7.3,2.5S58.5,214.8,56,216.2Zm16.8-9.3a5.5,5.5,0,0,1-7.3-2.6c-1.6-2.8-.9-6.2,1.7-7.6a5.5,5.5,0,0,1,7.4,2.6C76.1,202.1,75.4,205.5,72.8,206.9Z" style="fill: #ffc619"/>
    <g id="Shadows">
      <rect id="_6" data-name="6" x="24.2" y="192.3" width="1.1" height="8.1" transform="translate(-91.7 36.4) rotate(-28.9)" style="fill: #ea882f"/>
      <rect id="_5-2" data-name="5" x="95.5" y="150.5" width="1.1" height="12.63" transform="translate(-63.8 65.9) rotate(-28.9)" style="fill: #ea882f"/>
      <rect id="_4-2" data-name="4" x="107.1" y="144.1" width="1.1" height="12.62" transform="translate(-59.4 70.9) rotate(-28.9)" style="fill: #ea882f"/>
      <rect id="_3-3" data-name="3" x="160" y="114.8" width="1.1" height="12.62" transform="translate(-38.6 92.8) rotate(-28.9)" style="fill: #ea882f"/>
      <rect id="_2-3" data-name="2" x="170.2" y="106.4" width="1.1" height="18.23" transform="translate(-34.6 97) rotate(-28.9)" style="fill: #ea882f"/>
      <rect id="_1-3" data-name="1" x="180" y="93.1" width="1.1" height="33.8" transform="translate(-30.7 101.4) rotate(-29)" style="fill: #ea882f"/>
    </g>
    <g id="Highlights">
      <path id="_8" data-name="8" d="M133.5,130.3l-22.8,12.6a1.6,1.6,0,0,0-.6,2.2,1.6,1.6,0,0,0,1.4.8l.7-.2L135,133.1a1.6,1.6,0,0,0,.6-2.2A1.6,1.6,0,0,0,133.5,130.3Z" style="fill: #ffe75c"/>
      <path id="_7" data-name="7" d="M140.1,126.6l-2.5,1.4a1.6,1.6,0,0,0-.6,2.1,1.7,1.7,0,0,0,1.4.8,1.2,1.2,0,0,0,.8-.2l2.4-1.3a1.6,1.6,0,0,0-1.5-2.8Z" style="fill: #ffe75c"/>
      <path id="_6-2" data-name="6" d="M68.8,166,28.7,188.3a1.5,1.5,0,0,0-.6,2.2,1.6,1.6,0,0,0,1.3.8l.8-.2,40.1-22.3a1.6,1.6,0,0,0,.7-2.2A1.7,1.7,0,0,0,68.8,166Z" style="fill: #ffe75c"/>
      <path id="_5-3" data-name="5" d="M16.7,195.2h-.3l-.3.2-.2.2a1.6,1.6,0,1,0,2.2,0A1.5,1.5,0,0,0,16.7,195.2Z" style="fill: #ffe75c"/>
      <path id="_4-3" data-name="4" d="M98.4,144.7c-.1,0-.1.1-.2.2v.3a.4.4,0,0,0-.1.3c0,.1-.1.2-.1.3a1.7,1.7,0,0,0,1.6,1.6,1.4,1.4,0,0,0,1.1-.5,1.5,1.5,0,0,0,0-2.2A1.6,1.6,0,0,0,98.4,144.7Z" style="fill: #ffe75c"/>
      <path id="_3-4" data-name="3" d="M164.5,109.4c0-.1-.1-.2-.1-.3l-.2-.2a1.6,1.6,0,0,0-1.5-.4h-.5l-.3.2-.2.2c0,.1-.1.2-.1.3s-.1.2-.1.3v.6c0,.1.1.2.1.3s.1.2.1.3l.2.2.3.2.2.2h.7a1.6,1.6,0,0,0,1.1-.5l.2-.2c0-.1.1-.2.1-.3a.4.4,0,0,0,.1-.3v-.6A.4.4,0,0,0,164.5,109.4Z" style="fill: #ffe75c"/>
      <path id="_2-4" data-name="2" d="M170.8,98.1a.4.4,0,0,0-.1-.3l-.2-.2a1.6,1.6,0,0,0-1.4-.5h-.3l-.3.2-.2.2a.2.2,0,0,0-.2.2l-.2.3c0,.1-.1.2-.1.3v.9l.2.2.2.3c0,.1.1.1.2.2h.9a1.5,1.5,0,0,0,1.1-.4l.2-.3c.1,0,.1-.1.1-.2a.4.4,0,0,0,.1-.3,1.4,1.4,0,0,0-.1-.9Z" style="fill: #ffe75c"/>
      <path id="_1-4" data-name="1" d="M221.1,38.9c-.3-.1-8.5-2.6-20.3.4a34.6,34.6,0,0,0-18.3,11.8,1.6,1.6,0,0,0,1.3,2.5,1.5,1.5,0,0,0,1.3-.7,31.7,31.7,0,0,1,16.5-10.5c10.8-2.8,18.5-.5,18.5-.5a1.5,1.5,0,0,0,2-1A1.6,1.6,0,0,0,221.1,38.9Z" style="fill: #ffe75c"/>
    </g>
  </g>
  <g id="Key_Rings" data-name="Key Rings">
    <g id="PW_Ring" data-name="PW Ring">
      <path id="PW_Ring-2" data-name="PW Ring" d="M191.5,174.3a8.7,8.7,0,0,1-3.2-.6c-4.1-1.6-6.6-6.2-6.9-13a51.7,51.7,0,0,1,3.9-20.1A50.5,50.5,0,0,1,196,123.3c4.8-4.8,9.7-6.6,13.9-5h0c4.3,1.7,6.8,6.6,6.9,13.8a36,36,0,0,1-.6,7.8,58.5,58.5,0,0,1-3.2,11.5c-2.8,7-6.6,13.2-10.7,17.4S194.9,174.3,191.5,174.3ZM206.8,124c-1.7,0-4,1.4-6.3,3.7s-6.9,9-9.3,15.2-3.7,12.5-3.4,17.5,1.2,6.8,2.8,7.5,4.4-.8,7.2-3.6,6.9-9,9.3-15.2a59.1,59.1,0,0,0,2.9-10.3,38.8,38.8,0,0,0,.5-6.6c-.1-4.3-1.2-7.4-2.9-8h0Z" style="fill: #c9edff"/>
      <path id="PW_Gold" data-name="PW Gold" d="M218.9,140.6c.9-2.7,1.8-6.1,1.4-8.9a31.2,31.2,0,0,1-12.9-5.7,13.2,13.2,0,0,0-4.7,12.1,41.4,41.4,0,0,0,13.8,5.6A10.3,10.3,0,0,0,218.9,140.6Z" style="fill: #ffc619"/>
    </g>
    <g id="Magnifying_Ring" data-name="Magnifying Ring">
      <path id="Magnifying_Ring-2" data-name="Magnifying Ring" d="M228.1,182.9c-3.8,0-7.7-2.5-11.2-7.3a51.5,51.5,0,0,1-7.9-18.8c-3.6-16.5-.1-30.4,8.1-32.2h0c4.5-1,9.3,1.7,13.4,7.6a40.1,40.1,0,0,1,3.8,6.8,58.5,58.5,0,0,1,3.7,11.4c3.7,16.6.2,30.5-8.1,32.3ZM219,130.7h-.5c-3.4.7-6.4,10.7-3.3,24.7a45.8,45.8,0,0,0,6.8,16.4c2.4,3.2,4.9,5,6.6,4.6,3.4-.7,6.3-10.7,3.3-24.7a53,53,0,0,0-3.3-10.2,44.4,44.4,0,0,0-3.2-5.8C223.1,132.6,220.7,130.7,219,130.7Z" style="fill: #c9edff"/>
      <path id="Magnifying_Gold" data-name="Magnifying Gold" d="M240,135.3a22,22,0,0,0-3.5-5.1,30.6,30.6,0,0,1-17.9,1.1,25.8,25.8,0,0,0,3,13.3l4.2.2a43.9,43.9,0,0,0,13.8-2.3A10.4,10.4,0,0,0,240,135.3Z" style="fill: #ffc619"/>
    </g>
    <g id="Controller_Ring" data-name="Controller Ring">
      <path id="Controller_Ring-2" data-name="Controller Ring" d="M285,147.8c-8.3,0-26-14.1-26.8-14.7-7.7-6.2-16.6-14.6-15.6-19.7a4.2,4.2,0,0,1,3-3.3h0c1.7-.4,4.8-.5,12.9,4,2,1.1,4.2,2.5,6.3,3.9a96.7,96.7,0,0,1,9.1,6.7c7.7,6.2,16.7,14.6,15.7,19.6a4.3,4.3,0,0,1-3.1,3.3Zm-34.2-30.5a72.7,72.7,0,0,0,11.4,10.8c8.1,6.5,15.1,10.6,19.2,12.4A77,77,0,0,0,270,129.6q-4.3-3.4-8.7-6.3c-2-1.4-4-2.6-5.9-3.7A38.8,38.8,0,0,0,250.8,117.3Z" style="fill: #c9edff"/>
      <path id="Controller_Gold" data-name="Controller Gold" d="M255,110.4a35.7,35.7,0,0,1-3.3,7.5c3.7,1.7,7.4,5.6,10.7,6.6a42.2,42.2,0,0,0,4.3-9.1C264.2,112.8,259.3,111.2,255,110.4Z" style="fill: #ffc619"/>
    </g>
  </g>
  <g id="Password_bubble" data-name="Password bubble">
    <path id="Side" d="M136.6,243.2l39-77.2c2.6-4.9,11.2-8.2,16.5-4,0,0,8.4,14,5.4,20l-39,77c-3.1,6-12,7.1-18.2,2.7h0C135,257.4,133.8,249.5,136.6,243.2Z" style="fill: #319b68"/>
    <path id="Top" d="M193.9,162.5h0c-5.3-4.2-12.1-2.8-15.1,3.3l-38.6,77.1c-3.1,6.1-1.2,14.4,4.1,18.7s12,2.7,15-3.3L198,181.2A16,16,0,0,0,193.9,162.5Z" style="fill: #91ffad"/>
    <g id="Asterisk">
      <path id="_5-4" data-name="5" d="M187,188.2a1,1,0,0,0-1.2-.9l-3.3.5,1.8-3.8a1,1,0,0,0-.4-1.4,1.1,1.1,0,0,0-1.4.5l-1.4,2.8-.8-4a1,1,0,0,0-1.3-.8,1,1,0,0,0-.8,1.2l.8,3.8-2.4-2.1a1,1,0,0,0-1.4,0,1.1,1.1,0,0,0,0,1.5l3.2,2.9-3.2.5a1,1,0,0,0-.8,1.2,1,1,0,0,0,1,.9h.2l3.3-.5-1.9,3.7a1.2,1.2,0,0,0,.5,1.5h.5a1.1,1.1,0,0,0,.9-.6l1.4-2.8.8,4a1.2,1.2,0,0,0,1,.9h.3a1,1,0,0,0,.8-1.2l-.8-3.8,2.3,2.1a1.1,1.1,0,0,0,.8.3,1.1,1.1,0,0,0,.7-1.8l-3.2-2.9,3.1-.5A1.1,1.1,0,0,0,187,188.2Z" style="fill: #294741"/>
      <path id="_4-4" data-name="4" d="M178.8,201.7l-3.3.5,1.8-3.7a.9.9,0,0,0-.5-1.4,1,1,0,0,0-1.4.4l-1.3,2.8-.8-4a1.1,1.1,0,0,0-1.3-.8,1,1,0,0,0-.8,1.2l.8,3.9-2.4-2.2a1,1,0,1,0-1.4,1.5l3.2,3-3.2.4a1.3,1.3,0,0,0-.9,1.2,1.1,1.1,0,0,0,1.1.9h.1l3.3-.5-1.8,3.8a1.1,1.1,0,0,0,.5,1.4h.5a1.1,1.1,0,0,0,.9-.6l1.4-2.8.8,4a1.1,1.1,0,0,0,1,.9h.2a1,1,0,0,0,.9-1.2l-.8-3.8,2.3,2.1a1.1,1.1,0,0,0,.7.3,1.1,1.1,0,0,0,.8-.3,1,1,0,0,0-.1-1.5l-3.1-2.9,3.1-.5a1.1,1.1,0,0,0-.3-2.1Z" style="fill: #294741"/>
      <path id="_3-5" data-name="3" d="M171.8,216.1l-3.3.5,1.8-3.7a1,1,0,0,0-.5-1.4,1,1,0,0,0-1.4.4l-1.3,2.8-.9-4a1,1,0,0,0-1.2-.8,1,1,0,0,0-.8,1.2l.8,3.9-2.4-2.2a1.1,1.1,0,0,0-1.5,0,1,1,0,0,0,.1,1.5l3.1,3-3.1.4a1.1,1.1,0,0,0-.9,1.2,1.1,1.1,0,0,0,1.1.9h.1l3.3-.5-1.8,3.8a1.1,1.1,0,0,0,.5,1.4h.4a1.1,1.1,0,0,0,1-.6l1.3-2.8.9,4a1.1,1.1,0,0,0,1,.9h.2a1.1,1.1,0,0,0,.8-1.3l-.8-3.8,2.4,2.2.7.2a1.1,1.1,0,0,0,.8-.3,1,1,0,0,0-.1-1.5l-3.1-2.9,3.1-.5a1,1,0,0,0,.9-1.2A1.1,1.1,0,0,0,171.8,216.1Z" style="fill: #294741"/>
      <path id="_2-5" data-name="2" d="M164.8,230.5l-3.3.5,1.8-3.7a1.1,1.1,0,0,0-.5-1.4,1,1,0,0,0-1.4.5l-1.4,2.7-.8-4a1,1,0,0,0-1.2-.8,1.1,1.1,0,0,0-.9,1.2l.8,3.9-2.3-2.2a1,1,0,0,0-1.5.1.9.9,0,0,0,.1,1.4l3.1,3-3.1.5a1,1,0,0,0-.9,1.2,1.1,1.1,0,0,0,1,.9h.2l3.3-.5-1.8,3.8a1,1,0,0,0,.5,1.4h.4a1.1,1.1,0,0,0,1-.6l1.3-2.8.8,4a1.2,1.2,0,0,0,1.1.9h.2a1.1,1.1,0,0,0,.8-1.3l-.8-3.8,2.4,2.2a.8.8,0,0,0,.7.2,1.1,1.1,0,0,0,.8-.3,1.1,1.1,0,0,0-.1-1.5l-3.2-2.9,3.2-.5a1.2,1.2,0,0,0,.9-1.2A1.1,1.1,0,0,0,164.8,230.5Z" style="fill: #294741"/>
      <path id="_1-5" data-name="1" d="M157.7,244.9l-3.3.5,1.9-3.7a1.1,1.1,0,0,0-.5-1.4,1,1,0,0,0-1.4.5l-1.4,2.8-.8-4.1a1.1,1.1,0,0,0-2.1.5l.8,3.8-2.3-2.2a1,1,0,0,0-1.5.1,1.1,1.1,0,0,0,0,1.5l3.2,2.9-3.1.5a1,1,0,0,0-.9,1.2,1.1,1.1,0,0,0,1,.9h.2l3.3-.6-1.8,3.8a1,1,0,0,0,.4,1.4h.5a.9.9,0,0,0,.9-.6l1.4-2.8.8,4.1a1.1,1.1,0,0,0,1.1.8h.2a1.1,1.1,0,0,0,.8-1.3l-.8-3.8,2.4,2.2a.9.9,0,0,0,.7.3,1,1,0,0,0,.7-.4,1.1,1.1,0,0,0,0-1.5l-3.2-2.9,3.2-.5a1,1,0,0,0,.8-1.2A1.1,1.1,0,0,0,157.7,244.9Z" style="fill: #294741"/>
    </g>
    <ellipse id="Side_of_hole" data-name="Side of hole" cx="189.6" cy="171.1" rx="4.3" ry="3.4" transform="translate(-44.7 272.8) rotate(-65.5)" style="fill: #319b68"/>
    <path id="Hole" d="M190.1,171.8a4.1,4.1,0,0,0-.6-4.7,4.7,4.7,0,0,0-2.4,7.4A4.4,4.4,0,0,0,190.1,171.8Z" style="fill: #fff"/>
    <path id="Ring-2" data-name="Ring" d="M196.6,165.4a10.3,10.3,0,0,1-4.5,2.5h-1.5l-1-.8a4.8,4.8,0,0,0-3.5,5.3,7.1,7.1,0,0,0,2.2,1.3,8.1,8.1,0,0,0,3.1.6h.1a13.7,13.7,0,0,0,7.6-2.8A16.4,16.4,0,0,0,196.6,165.4Z" style="fill: #c9edff"/>
  </g>
  <g id="Magnifying_Glass" data-name="Magnifying Glass">
    <g id="Magnifying_Glass-2" data-name="Magnifying Glass">
      <ellipse id="Handle" cx="230.7" cy="197.4" rx="14.1" ry="26.4" transform="translate(-23.9 32) rotate(-7.5)" style="fill: #5865f2"/>
      <path id="Gold" d="M237.9,229.9l-4.2.8c-3.1.5-6.3-1.5-6.7-4.5h0a5.3,5.3,0,0,1,5.3-5.8l4.3-.2a5.1,5.1,0,0,1,5.2,4.4h0A4.7,4.7,0,0,1,237.9,229.9Z" style="fill: #ffc619"/>
      <g id="Head">
        <path id="Rim_Shadow" data-name="Rim Shadow" d="M266.1,256.2c-1.1-16.6-14.6-29.7-30.9-29.2s-30.5,15.7-29.1,33.9,16.7,31,33.6,28.9S267.2,272.8,266.1,256.2Z" style="fill: #5865f2"/>
        <path id="Rim" d="M268.5,255.3c-1.1-16.6-14.6-29.7-30.7-29.2s-30.3,15.6-28.9,33.8,16.6,30.8,33.3,28.7S269.6,271.8,268.5,255.3Z" style="fill: #b0b4ff"/>
        <path id="Glass_Shadow" data-name="Glass Shadow" d="M264.2,255.6c-.9-14.1-12.4-25.2-26.1-24.7s-25.3,13.4-24.2,28.6,13.9,26,28,24.3S265.2,269.6,264.2,255.6Z" style="fill: #7a8ff4"/>
        <path id="Glass" d="M241.9,283.8a24,24,0,0,0,12.7-5.5,27.3,27.3,0,0,0,7.4-20.7c-1-14.1-12.5-25.2-26.3-24.6a25,25,0,0,0-13.6,4.7,26.9,26.9,0,0,0-8.2,21.8C215,274.6,227.8,285.5,241.9,283.8Z" style="fill: #fff"/>
        <g id="Highlights-2" data-name="Highlights">
          <path id="_2-6" data-name="2" d="M231.5,237.3a1.5,1.5,0,0,0-1.9,1l-9.5,29.4a1.7,1.7,0,0,0,1.1,2h.4a1.5,1.5,0,0,0,1.5-1.1l9.5-29.4A1.7,1.7,0,0,0,231.5,237.3Z" style="fill: #c9edff"/>
          <path id="_1-6" data-name="1" d="M233.8,254.6a1.5,1.5,0,0,0-1.9,1l-5.6,17.5a1.7,1.7,0,0,0,1,2h.5a1.5,1.5,0,0,0,1.5-1.1l5.6-17.5A1.5,1.5,0,0,0,233.8,254.6Z" style="fill: #c9edff"/>
        </g>
      </g>
      <ellipse cx="223.4" cy="178.7" rx="4.3" ry="2.5" transform="translate(-19.9 329.3) rotate(-70.4)" style="fill: #242145"/>
    </g>
    <path id="Ring-3" data-name="Ring" d="M225.9,175.8h0a14.1,14.1,0,0,1-2.9-2.7h0l-1-1.3a23.1,23.1,0,0,1-2.1-3.5,6.9,6.9,0,0,0-3.5,6.4l.5.8a29.1,29.1,0,0,0,3.2,3.6l.4.3.6.5.7.6h.1a10.9,10.9,0,0,0,2.3,1.4C225.4,180.9,226.7,178,225.9,175.8Z" style="fill: #c9edff"/>
  </g>
  <g id="Controller">
    <g id="Body">
      <path id="Body-2" data-name="Body" d="M345.2,154.9,340,153a6.8,6.8,0,0,0-6.3.9l-38-14.1a4.7,4.7,0,0,0-3-4.2l-4.6-1.7a6,6,0,0,0-6.7,2.1,15.3,15.3,0,0,0-10.4,6.1l-1.5,1.4-16.2,20.8c-5.6,6.2-6.2,14.9-1.3,19.5s13.8,3.4,19.6-2.8l4.5-4.1L315,193.7l-.4,6.1c-1.4,8.8,4,17,12.2,18.1s16.4-5.4,17.8-14.5l6.5-26.6.2-.3a13.1,13.1,0,0,0-2.6-15.8A5.1,5.1,0,0,0,345.2,154.9Z" style="fill: #e3e5ff"/>
      <path id="R_Trigger" data-name="R Trigger" d="M345.2,154.9,340,153a6.8,6.8,0,0,0-6.3.9s12.7,4.5,15,6.8A5.1,5.1,0,0,0,345.2,154.9Z" style="fill: #b0b4ff"/>
      <path id="L_Trigger" data-name="L Trigger" d="M292.7,135.6l-4.6-1.7a6,6,0,0,0-6.7,2.1,47.6,47.6,0,0,1,14.3,3.8A4.7,4.7,0,0,0,292.7,135.6Z" style="fill: #b0b4ff"/>
      <path id="D-PAD" d="M296,157.8l-4.3-1.6,2.6-3.7a1.4,1.4,0,0,0-.7-2.3l-3.2-1.2a3.1,3.1,0,0,0-3.1,1l-2.6,3.4-3.8-1.5a2.8,2.8,0,0,0-3,.9l-2.3,2.8c-.8,1-.6,2.1.3,2.5l3.8,1.7-3,3.9a1.9,1.9,0,0,0,.4,2.9l3.3,1.6a3.1,3.1,0,0,0,3.5-1.1l3-4.1,4.3,1.9a2.9,2.9,0,0,0,3.5-1.1l2.2-3.2A1.9,1.9,0,0,0,296,157.8Z" style="fill: #b0b4ff"/>
      <g id="Buttons">
        <path d="M331.7,167.3a4.7,4.7,0,0,1-5.8,1.8,3.6,3.6,0,0,1-1.6-5.2,4.8,4.8,0,0,1,5.8-1.8A3.6,3.6,0,0,1,331.7,167.3Z" style="fill: #b0b4ff"/>
        <path d="M324.4,179.6a4.7,4.7,0,0,1-6,1.9,3.9,3.9,0,0,1-1.5-5.6,4.8,4.8,0,0,1,6-1.8A3.8,3.8,0,0,1,324.4,179.6Z" style="fill: #b0b4ff"/>
        <path d="M328.7,178.3a3.8,3.8,0,0,1-1.7-5.5,4.6,4.6,0,0,1,5.9-1.8,3.7,3.7,0,0,1,1.8,5.4A4.7,4.7,0,0,1,328.7,178.3Z" style="fill: #b0b4ff"/>
        <path d="M315.9,172.2a3.4,3.4,0,0,1-1.3-5.2,4.6,4.6,0,0,1,5.7-1.8,3.5,3.5,0,0,1,1.5,5.2A4.9,4.9,0,0,1,315.9,172.2Z" style="fill: #b0b4ff"/>
      </g>
      <g id="Controller_Ring-3" data-name="Controller Ring">
        <path id="Purple" d="M281.8,141.9c-.1-.2-.1-.4-.2-.6h0c-.1-.2-.2-.5-.4-.6l-.4-.5h-.2l-.4-.3H280l-1.3-.2h-.9l-.7.2a3.8,3.8,0,0,0-1.5.9c-2,1.6-2.5,4.2-1.3,5.8s3.7,1.6,5.7,0A5.2,5.2,0,0,0,281.8,141.9Z" style="fill: #b0b4ff"/>
        <path id="White" d="M277.8,143.6a4.9,4.9,0,0,0-1.9,3.9,4.7,4.7,0,0,0,4.1-1,5.1,5.1,0,0,0,1.8-4A4.5,4.5,0,0,0,277.8,143.6Z" style="fill: #fff"/>
        <path id="Ring-4" data-name="Ring" d="M281.2,140.7a1.2,1.2,0,0,0-.5-.5c-.3-.2-4.7-2.5-6.6-3.7a11.8,11.8,0,0,0-6.2,3.6l5.9,3.6,2.5,1.3s2.4,1.2,3.5,1.6h.2C281.9,144.9,282.4,142.2,281.2,140.7Z" style="fill: #c9edff"/>
      </g>
    </g>
    <path id="Input" d="M300.9,184.7h-.2l-6.2-2.7a.5.5,0,0,1-.2-.7.6.6,0,0,1,.7-.2l6.1,2.6a.5.5,0,0,1,.2.7C301.3,184.6,301.1,184.7,300.9,184.7Z" style="fill: #b0b4ff"/>
    <ellipse id="Label" cx="310.4" cy="152.8" rx="4" ry="6.7" transform="translate(75.2 406.5) rotate(-73.4)" style="fill: #d1d4ff"/>
  </g>
</svg>
