<svg xmlns="http://www.w3.org/2000/svg" viewBox="0 0 762 525">
  <title>Privacy-Hub-Header</title>
  <g id="Sparkles">
    <path id="_12" data-name="12" d="M567.9,304.8c-2.8-.5-7.7-3.2-7.8-14.2a.8.8,0,0,0-.8-.8.7.7,0,0,0-.7.8h0c.2,12.4-5.7,13.4-8.1,13.8-.5.1-.8.4-.8.8a.9.9,0,0,0,.9.9c2.7.4,8.4,1.5,8.5,13a.8.8,0,0,0,.8.9.8.8,0,0,0,.8-.9c-.1-11.6,4.8-12.1,7.4-12.7a.9.9,0,0,0-.2-1.7Z" style="fill: #91ffad"/>
    <path id="_11" data-name="11" d="M144,441.8c-2.8-.5-7.7-3.2-7.8-14.2a.9.9,0,0,0-.8-.8.8.8,0,0,0-.7.8h0c.2,12.5-5.6,13.4-8.1,13.8a1.3,1.3,0,0,0-.8.8,1.1,1.1,0,0,0,.9,1c2.7.3,8.4,1.5,8.5,13a.8.8,0,0,0,.8.8.8.8,0,0,0,.8-.9c-.1-11.5,4.8-12.1,7.4-12.7a.8.8,0,0,0,.7-1C144.8,442.1,144.5,441.9,144,441.8Z" style="fill: #91ffad"/>
    <path id="_10" data-name="10" d="M584.1,265.4c-4.5-.8-12.3-5.1-12.5-22.6a1.2,1.2,0,0,0-1.2-1.2,1.2,1.2,0,0,0-1.2,1.2h0c.3,19.9-9,21.4-13,22.1a1.4,1.4,0,0,0-1.1,1.3,1.5,1.5,0,0,0,1.3,1.5c4.3.5,13.4,2.4,13.6,20.7a1.3,1.3,0,0,0,1.3,1.3,1.2,1.2,0,0,0,1.3-1.4c-.2-18.4,7.6-19.3,11.8-20.3a1.2,1.2,0,0,0,1-1.5A1.4,1.4,0,0,0,584.1,265.4Z" style="fill: #ff78b9"/>
    <path id="_9" data-name="9" d="M93.8,238.9c-3.3-.6-9.1-3.7-9.2-16.6a.9.9,0,0,0-.9-.9.8.8,0,0,0-.8.9h0c.1,14.6-6.7,15.7-9.6,16.2a1,1,0,0,0-.8,1c-.1.5.4,1,.9,1.1,3.2.4,9.9,1.7,10.1,15.2a.9.9,0,0,0,.9,1,1,1,0,0,0,1-1.1c-.2-13.5,5.5-14.2,8.6-14.9a.9.9,0,0,0,.8-1.1A1.2,1.2,0,0,0,93.8,238.9Z" style="fill: #91ffad"/>
    <path id="_8" data-name="8" d="M648.8,385.2c-2.7-.4-7.2-2.9-7.4-13.2a.7.7,0,0,0-.7-.7.7.7,0,0,0-.6.7h0c.1,11.6-5.3,12.5-7.6,12.9a.8.8,0,0,0-.7.8.8.8,0,0,0,.8.8c2.5.3,7.8,1.4,7.9,12.1.1.5.3.8.8.8a.8.8,0,0,0,.8-.8c-.2-10.8,4.4-11.3,6.8-11.9a.8.8,0,0,0,.7-.9A1,1,0,0,0,648.8,385.2Z" style="fill: #ffe75c"/>
    <path id="_7" data-name="7" d="M161.9,14c-2.7-.5-7.2-3-7.4-13.3a.7.7,0,0,0-.7-.7.7.7,0,0,0-.6.7h0c.1,11.7-5.3,12.5-7.6,12.9a.8.8,0,0,0-.7.8.8.8,0,0,0,.8.8c2.5.4,7.8,1.5,7.9,12.2a.8.8,0,0,0,.8.8.9.9,0,0,0,.8-.9c-.2-10.7,4.4-11.3,6.8-11.8a.8.8,0,0,0,.7-.9A.8.8,0,0,0,161.9,14Z" style="fill: #ff78b9"/>
    <path id="_6" data-name="6" d="M665.8,378.9c-1.4-.2-4-1.6-4-7.2a.4.4,0,1,0-.8,0h0c.1,6.4-2.9,6.9-4.2,7.1s-.3.2-.3.4.1.5.4.5,4.3.8,4.4,6.7a.4.4,0,0,0,.4.4.4.4,0,0,0,.4-.4c-.1-6,2.4-6.3,3.8-6.6a.3.3,0,0,0,.3-.5C666.2,379.1,666,379,665.8,378.9Z" style="fill: #91ffad"/>
    <path id="_5" data-name="5" d="M82.2,266c-2.4-.5-6.6-2.8-6.7-12.2a.6.6,0,0,0-.6-.6.7.7,0,0,0-.7.6h0c.2,10.7-4.8,11.5-6.9,11.9-.4,0-.6.3-.7.7a.8.8,0,0,0,.7.7c2.4.3,7.3,1.3,7.4,11.2a.6.6,0,0,0,.7.7.8.8,0,0,0,.7-.8c-.2-9.9,4-10.3,6.3-10.9.4,0,.6-.4.6-.8A.9.9,0,0,0,82.2,266Z" style="fill: #e6a5d9"/>
    <path id="_4" data-name="4" d="M662.4,400.2c-2-.4-5.3-2.2-5.4-9.7a.5.5,0,0,0-1,0h0c.1,8.5-3.9,9.1-5.6,9.4a.7.7,0,0,0-.4.6c-.1.3.2.5.5.6,1.9.2,5.8,1,5.9,8.8,0,.4.2.6.5.6a.6.6,0,0,0,.6-.6c-.1-7.9,3.2-8.2,5-8.7a.4.4,0,0,0,.4-.6A.5.5,0,0,0,662.4,400.2Z" style="fill: #e6a5d9"/>
    <path id="_3" data-name="3" d="M150.1,43.1c-2.8-.5-7.7-3.2-7.8-14.1a.8.8,0,0,0-.8-.7.7.7,0,0,0-.7.7h0c.2,12.4-5.6,13.3-8,13.7a1.1,1.1,0,0,0-.8.8,1.1,1.1,0,0,0,.9,1c2.7.3,8.3,1.4,8.4,12.8a.8.8,0,0,0,.8.9.8.8,0,0,0,.8-.9c-.1-11.5,4.7-12,7.3-12.6a.8.8,0,0,0,.7-1A1,1,0,0,0,150.1,43.1Z" style="fill: #ffe75c"/>
    <path id="_2" data-name="2" d="M221.1,506.1c-2.3-.4-6.1-2.5-6.2-11.1a.6.6,0,1,0-1.2,0h0c.2,9.8-4.4,10.6-6.4,10.9a.7.7,0,0,0-.5.7.7.7,0,0,0,.6.7c2.1.3,6.6,1.2,6.7,10.2a.7.7,0,1,0,1.3-.1c-.1-9,3.7-9.5,5.8-9.9a.7.7,0,0,0,.5-.8C221.7,506.4,221.4,506.2,221.1,506.1Z" style="fill: #ffe75c"/>
    <path id="_1" data-name="1" d="M628.4,26.8c-2.8-.5-7.6-3.2-7.8-14.1a.7.7,0,0,0-.7-.7.7.7,0,0,0-.7.8h0c.1,12.4-5.6,13.3-8.1,13.8a.8.8,0,0,0-.7.8.9.9,0,0,0,.8.9c2.7.3,8.3,1.5,8.5,12.8a.8.8,0,1,0,1.6,0c-.1-11.4,4.7-12,7.3-12.6a.9.9,0,0,0,.7-1C629.2,27.1,628.9,26.9,628.4,26.8Z" style="fill: #ffe75c"/>
  </g>
  <g id="Folder">
    <path id="Back" d="M196.1,261.3s-59.7-52.3-62.6-55.6-9.1-6.9,3-18.8S247.2,67.8,247.2,67.8s7-9.3,12.1-1.1,45,81.5,45,81.5L328,224.5Z" style="fill: #ffc619"/>
    <path id="Page_3" data-name="Page 3" d="M276.2,187.5s-40.7-87.6-81.7-88.1L99,187.6s78.5,2.6,111.2,94.6C242.1,372.1,276.2,187.5,276.2,187.5Z" style="fill: #cdd7f4"/>
    <path id="Page_2" data-name="Page 2" d="M268.2,171.7s-44.4-90.4-85.4-90.9L91.3,172s79.2-3.3,115.8,91.6C242.8,356.4,268.2,171.7,268.2,171.7Z" style="fill: #e3e6fc"/>
    <path id="Page_1" data-name="Page 1" d="M271.8,110.8s-8.9-43.8-55.7-46l-98.3,97.6s70.2-4.1,93.7,103.8S270.3,134,270.3,134Z" style="fill: #fff"/>
    <path id="Front" d="M251.1,99.7l-67.4,71.2,42.7,111.3,83.5-109.3S283.3,55.4,281.6,50.8c-.5-1.5-3.1-3.2-6.2,0s-24.7,29.1-26,31.1-2.2,2.7-1,7.6S251.1,99.7,251.1,99.7Z" style="fill: #ffe75c"/>
  </g>
  <g id="Phone">
    <g>
      <g id="Purple_Rim" data-name="Purple Rim">
        <path d="M424.6,501.1l-174-34.4c-19.4-3.8-48.3-27.4-42.5-47.1L332,67.4c6-20.3,27.3-35.3,47.6-33.5l163.3-1.8c22.5,1.9,54.8,38.6,45.8,60.2L472.5,471.2C468.6,491.9,445.9,505.3,424.6,501.1Z" style="fill: #808bff"/>
      </g>
      <path id="Grey_Rim" data-name="Grey Rim" d="M405.2,483.5,231.3,449.1c-19.4-3.8-30.3-22.8-24.5-42.5L312.7,49.8c6-20.2,27.2-35.2,47.6-33.5L542.9,32.1c22.5,1.9,35.5,21,28.9,42.5L455.7,453.4C449.3,474.3,426.6,487.7,405.2,483.5Z"/>
      <g id="Face">
        <path d="M397,471,242.4,438c-17.3-3.7-26.5-21.8-20.8-40.5L324.8,58.9c5.9-19.2,25.2-33.4,43.4-31.8L531.1,41.7C551.2,43.5,562.4,61.6,556,82L442.9,442.4C436.7,462.3,416.1,475.1,397,471Z" style="fill: #5865f2"/>
      </g>
      <g id="Slide">
        <g>
          <g id="Slide-2" data-name="Slide">
            <path d="M389.4,445.4,264,420.7c-15.7-3.1-24.2-19.4-19.1-36.5h0c5.1-17.1,21.9-28.4,37.6-25.4l125.4,24.7c15.7,3.1,24.2,19.4,19.1,36.5h0C421.9,437.1,405.1,448.4,389.4,445.4Z" style="fill: #808bff"/>
          </g>
          <g id="Elipse">
            <ellipse cx="274.5" cy="389.9" rx="30.7" ry="27.2" transform="translate(-187.7 272.6) rotate(-40.6)" style="fill: #8ddaff"/>
          </g>
        </g>
      </g>
      <path id="Clyde" d="M475.8,175.6a144.8,144.8,0,0,0-35-17.4c-2.7,2.7-5.3,5.5-7.7,8.4a153.8,153.8,0,0,0-42.5-7.1,86.2,86.2,0,0,0-2.1-10.1,182.8,182.8,0,0,0-41.6,4.5c-34.4,29.2-50.8,60.5-57.3,93a136,136,0,0,0,40.3,29.7,115.9,115.9,0,0,0,14.6-13.3,94.1,94.1,0,0,1-13.7-9.7l4.8-2c25.7,17.9,60.1,23.7,93.8,15.7,1,1.2,2,2.3,3.1,3.4a112.2,112.2,0,0,1-18,4.3,89.3,89.3,0,0,0,5.5,16.8,186.9,186.9,0,0,0,53.6-14C488.7,241.4,488.1,207.6,475.8,175.6Zm-97.1,47.6c-3,9.4-12.6,15.9-21.9,14.3s-14.4-10.5-11.5-20,12.5-16,21.9-14.4S381.7,213.7,378.7,223.2Zm61.6,10.3c-3,9.5-12.6,15.9-21.9,14.4s-14.3-10.5-11.4-20,12.5-16,21.9-14.4S443.4,224.1,440.3,233.5Z" style="fill: #fff"/>
      <g id="Side">
        <rect x="543.8" y="152.6" width="31" height="6.33" rx="3.2" transform="translate(246 644.6) rotate(-72.9)" style="fill: #b0b4ff"/>
      </g>
    </g>
  </g>
  <g id="Password_Bubble" data-name="Password Bubble">
    <path id="Shadow" d="M648.3,154.6,417.8,130.8c-14.6-1.8-31.2-20.2-25.6-37.5,0,0,26.8-34.5,44.8-32.7L667,84.7c18.1,1.8,29.3,23.3,24.1,43h0C685.6,145,666.8,155.5,648.3,154.6Z"/>
    <path id="Green" d="M644.3,146l-230-23c-18-1.8-28.2-17.4-22.6-34.7h0c5.6-17.3,24.7-29.9,42.8-28.1l229.9,23c18.1,1.8,28.2,17.3,22.7,34.7h0C681.5,135.2,662.3,147.8,644.3,146Z" style="fill: #91ffad"/>
    <g id="Asterisk">
      <path id="_6-2" data-name="6" d="M449.1,91l-9.1-.9,10-6.4a2.5,2.5,0,0,0,.8-3.4,2.6,2.6,0,0,0-3.5-.8l-9.6,6.2,3.5-8.9a2.5,2.5,0,0,0-1.4-3.3,2.4,2.4,0,0,0-3.2,1.4L432,86.2l-4.5-7.9a2.5,2.5,0,0,0-4.4,2.5l4.7,8.3L416.1,88a2.5,2.5,0,0,0-2.7,2.3,2.4,2.4,0,0,0,2.3,2.7l9.1.8-10,6.4a2.6,2.6,0,0,0-.8,3.5,2.5,2.5,0,0,0,2.1,1.2,2.3,2.3,0,0,0,1.4-.4l9.6-6.2-3.5,8.9a2.5,2.5,0,0,0,1.4,3.3h.9a2.5,2.5,0,0,0,2.3-1.5l4.6-11.3,4.5,7.9a2.6,2.6,0,0,0,2.2,1.3,2.8,2.8,0,0,0,1.2-.4,2.6,2.6,0,0,0,1-3.4L437,94.9,448.7,96h.2a2.5,2.5,0,0,0,.2-5Z" style="fill: #294741"/>
      <path id="_5-2" data-name="5" d="M491.9,94.8l-9.1-.9,10-6.4a2.5,2.5,0,0,0,.8-3.4,2.6,2.6,0,0,0-3.5-.8l-9.7,6.2,3.6-8.9a2.5,2.5,0,1,0-4.7-1.9L474.8,90l-4.5-7.9a2.5,2.5,0,0,0-3.4-.9,2.4,2.4,0,0,0-1,3.4l4.7,8.3-11.7-1.1a2.5,2.5,0,0,0-2.7,2.3,2.4,2.4,0,0,0,2.2,2.7l9.2.8-10,6.4a2.5,2.5,0,1,0,2.7,4.3l9.6-6.2-3.5,8.9a2.5,2.5,0,0,0,1.3,3.3h1a2.4,2.4,0,0,0,2.3-1.5l4.6-11.3,4.5,7.9a2.5,2.5,0,0,0,2.2,1.3,1.9,1.9,0,0,0,1.2-.4,2.6,2.6,0,0,0,1-3.4l-4.8-8.3,11.8,1.1h.2a2.5,2.5,0,0,0,.2-5Z" style="fill: #294741"/>
      <path id="_4-2" data-name="4" d="M534.7,98.6l-9.1-.8,10-6.4a2.5,2.5,0,0,0-2.7-4.3l-9.7,6.2,3.6-8.9a2.5,2.5,0,0,0-4.7-1.9l-4.5,11.3-4.5-7.9a2.6,2.6,0,0,0-3.5-.9,2.5,2.5,0,0,0-.9,3.4l4.7,8.3-11.7-1.1a2.5,2.5,0,0,0-2.7,2.3,2.4,2.4,0,0,0,2.2,2.7l9.2.9-10,6.4a2.4,2.4,0,0,0-.8,3.4,2.5,2.5,0,0,0,2.1,1.2,2.5,2.5,0,0,0,1.4-.4l9.6-6.2-3.6,8.9a2.6,2.6,0,0,0,1.4,3.3l1,.2a2.5,2.5,0,0,0,2.3-1.6l4.6-11.3,4.5,7.9a2.5,2.5,0,0,0,2.2,1.3,1.9,1.9,0,0,0,1.2-.4,2.5,2.5,0,0,0,.9-3.4l-4.7-8.3,11.8,1.1h.2a2.5,2.5,0,0,0,.2-5Z" style="fill: #294741"/>
      <path id="_3-2" data-name="3" d="M577.5,102.4l-9.1-.8,10-6.4a2.5,2.5,0,1,0-2.7-4.3L566,97.1l3.6-8.9a2.5,2.5,0,1,0-4.7-1.9l-4.5,11.3-4.5-7.9a2.6,2.6,0,0,0-3.5-.9,2.5,2.5,0,0,0-.9,3.4l4.7,8.3-11.7-1.1a2.6,2.6,0,0,0-2.8,2.3,2.5,2.5,0,0,0,2.3,2.7l9.2.9-10.1,6.4a2.4,2.4,0,0,0-.7,3.4,2.5,2.5,0,0,0,2.1,1.2,2,2,0,0,0,1.3-.4l9.7-6.2-3.6,8.9a2.5,2.5,0,0,0,1.4,3.3l1,.2a2.5,2.5,0,0,0,2.3-1.6l4.6-11.3,4.5,7.9a2.5,2.5,0,0,0,2.2,1.3,1.9,1.9,0,0,0,1.2-.4,2.4,2.4,0,0,0,.9-3.4l-4.7-8.3,11.8,1.1h.2a2.5,2.5,0,0,0,.2-5Z" style="fill: #294741"/>
      <path id="_2-2" data-name="2" d="M620.3,106.2l-9.2-.8L621.2,99a2.5,2.5,0,1,0-2.7-4.3l-9.7,6.2,3.6-8.9a2.6,2.6,0,0,0-1.4-3.3,2.6,2.6,0,0,0-3.3,1.4l-4.5,11.3-4.5-7.9a2.6,2.6,0,0,0-3.5-.9,2.5,2.5,0,0,0-.9,3.4l4.7,8.3-11.7-1.1a2.6,2.6,0,0,0-.5,5.1l9.2.8-10.1,6.4a2.4,2.4,0,0,0-.7,3.4,2.4,2.4,0,0,0,2.1,1.2,2,2,0,0,0,1.3-.4l9.7-6.2-3.6,8.9a2.5,2.5,0,0,0,1.4,3.3l1,.2a2.5,2.5,0,0,0,2.3-1.6L604,113l4.5,7.9a2.5,2.5,0,0,0,2.2,1.3,1.9,1.9,0,0,0,1.2-.4,2.4,2.4,0,0,0,.9-3.4l-4.7-8.3,11.8,1.1h.2a2.5,2.5,0,0,0,.2-5Z" style="fill: #294741"/>
      <path id="_1-2" data-name="1" d="M663.1,110l-9.2-.8,10.1-6.4a2.6,2.6,0,0,0,.7-3.5,2.5,2.5,0,0,0-3.4-.8l-9.7,6.2,3.6-8.9a2.4,2.4,0,0,0-1.4-3.2,2.5,2.5,0,0,0-3.3,1.3L646,105.3l-4.5-8a2.6,2.6,0,0,0-3.5-.9,2.5,2.5,0,0,0-.9,3.4l4.7,8.3L630.1,107a2.6,2.6,0,0,0-.5,5.1l9.2.8-10.1,6.4a2.4,2.4,0,0,0-.7,3.4,2.4,2.4,0,0,0,2.1,1.2,2.2,2.2,0,0,0,1.3-.4l9.7-6.1-3.6,8.8a2.5,2.5,0,0,0,1.4,3.3l1,.2a2.5,2.5,0,0,0,2.3-1.6l4.5-11.3,4.6,7.9a2.4,2.4,0,0,0,2.1,1.3,2.8,2.8,0,0,0,1.3-.3,2.6,2.6,0,0,0,.9-3.5l-4.7-8.3,11.7,1.1h.3a2.5,2.5,0,0,0,.2-5Z" style="fill: #294741"/>
    </g>
  </g>
  <g id="Lock_PopUp" data-name="Lock PopUp">
    <g id="Bottom">
      <path id="Shadow-2" data-name="Shadow" d="M226.8,423.3,107.6,405.2c-13.4-2-18.2-14.3-15.9-24.7l48.4-103.8c4-9.5,15.7-15.9,26.2-14.4l114.8,12.1c7.6,2.2,14.7,15.1,11.3,24.7L253.8,407.3C250.1,417.8,237.9,425,226.8,423.3Z"/>
      <path id="Top" d="M224.1,417.4,104.9,399.2c-11.1-1.6-16.5-11.5-12.1-21.9l44.6-106.5c4-9.5,15.7-15.9,26.2-14.4L276.7,273c10.6,1.6,16.4,10.6,12.9,20.2L251.1,401.3C247.3,411.9,235.2,419.1,224.1,417.4Z" style="fill: #b0b4ff"/>
    </g>
    <g id="Top-2" data-name="Top">
      <path id="Shadow-3" data-name="Shadow" d="M216.3,401.7,97.2,383.5c-13.4-2-18.2-14.2-15.9-24.6L129.7,255c4-9.5,15.7-15.9,26.2-14.3l114.7,12c7.7,2.2,14.8,15.2,11.3,24.8L243.4,385.6C239.6,396.2,227.5,403.4,216.3,401.7Z"/>
      <path id="Top-3" data-name="Top" d="M213.6,395.8,94.5,377.6c-11.1-1.7-16.5-11.5-12.2-21.9L127,249.1c4-9.5,15.7-15.9,26.2-14.3l113,16.6c10.6,1.5,16.4,10.5,13,20.2L240.7,379.7C236.9,390.2,224.8,397.5,213.6,395.8Z" style="fill: #fff"/>
    </g>
  </g>
  <g id="Lock">
    <path id="Lock-2" data-name="Lock" d="M166,353.6a30,30,0,0,1-4.3-.3h0c-7.3-1-13.1-4.7-16.3-10.4s-3.4-12.2-.6-18.8l21.6-50.9c5.5-13,20.9-21.5,35-19.5,7.3,1.1,13.2,4.9,16.4,10.5s3.3,12.2.5,18.8l-21.6,50.9C191.8,345.6,178.8,353.6,166,353.6Zm-3-9.1c10,1.4,21.7-5,25.5-14.1l21.6-50.9a12.2,12.2,0,0,0-.1-10.9c-1.8-3.2-5.3-5.4-9.8-6-10-1.4-21.7,5-25.6,14.1l-21.5,50.9c-1.7,3.9-1.7,7.8.1,10.9s5.3,5.3,9.8,6Z" style="fill: #d1d4ff"/>
    <path id="Shadow-4" data-name="Shadow" d="M203.1,293.4c-10.1-8.4-79.6,34-70.1,53.8a46.4,46.4,0,0,0,7.5,10.1l1.2,1.2a40.6,40.6,0,0,0,26.8,11.7c21.2.3,39.7-12.5,47-33.3C218.8,327.4,220.3,307.6,203.1,293.4Z"/>
    <ellipse id="Rim" cx="171.1" cy="323.7" rx="44.7" ry="35.7" transform="translate(-144.5 138.1) rotate(-31.7)" style="fill: #5865f2"/>
    <path id="Highlight" d="M174.1,330.4c-1.5-17.3-9.4-30.5-17.2-39.6A55.3,55.3,0,0,0,138,306.1c5.9,8,17.2,24.2,25.1,42.4,2.7,6.1,6.3,9.9,10.3,12.3a51.1,51.1,0,0,0,11.9-4.2C180,352.5,175.3,344.7,174.1,330.4Z" style="fill: #808bff"/>
    <g id="Middle">
      <ellipse id="Shadow-5" data-name="Shadow" cx="170.2" cy="323.4" rx="33.8" ry="27.9" transform="translate(-138.7 128.1) rotate(-29.9)" style="fill: #5865f2"/>
      <path id="Middle-2" data-name="Middle" d="M201.4,326.7a25.1,25.1,0,0,0-.6-17.4c-3.7-7.2-11.2-12.3-20.9-13.3-17.2-1.9-35.2,9.8-40,26a25.7,25.7,0,0,0,.6,17.4c3.7,7.2,11.2,12.3,20.9,13.3C178.6,354.6,196.6,342.9,201.4,326.7Z" style="fill: #d1d4ff"/>
    </g>
    <g id="Turn">
      <path id="bottom-2" data-name="bottom" d="M154,323.4l1.2,2a24.7,24.7,0,0,0,5.3,6.3l.6.4a10.7,10.7,0,0,0,6.8,1.1,14.3,14.3,0,0,0,5.8-2.1,12.6,12.6,0,0,0,1.8-1.4c5.3-4.8,4.6-13.4-1.1-17.7l-3.8-2.7a2.1,2.1,0,0,0-2.7.2l-12.5,6.6-.5.3C153.7,317.8,152.6,321.2,154,323.4Z" style="fill: #5865f2"/>
      <ellipse id="top-4" data-name="top" cx="163.6" cy="317.7" rx="11.2" ry="9.3" transform="translate(-136.7 124) rotate(-29.9)" style="fill: #808bff"/>
    </g>
  </g>
  <g id="Key">
    <path id="String" d="M545.3,525c-29,0-39-11.7-48.1-30.9a2.8,2.8,0,0,1,1.4-3.7,2.7,2.7,0,0,1,3.7,1.3c6.7,14.3,13.1,22.6,27.2,26,16.3,3.9,42.2,1,83.8-9.7,26.3-6.7,45.4-.9,59.3,3.3s21.7,6.1,28.4-3.2,2.1-20.4-1.6-25.8c-11.8-17.5-40.6-31.4-68.3-24.5-9.2,2.3-16.9,6.8-24.4,11-17.1,9.8-33.2,19.1-62.8.9-12.4-7.7-25.8-5.4-33.6.2-5.3,3.8-7.7,8.8-6.5,13.8a2.8,2.8,0,0,1-2.1,3.3,2.8,2.8,0,0,1-3.4-2.1c-1.6-7.1,1.6-14.4,8.7-19.5,9.3-6.7,25.3-9.5,39.8-.5,26.8,16.5,40.8,8.4,57.1-.9,7.8-4.5,15.8-9.1,25.8-11.6,30.2-7.5,61.5,7.7,74.3,26.7,7.7,11.3,8.2,23.1,1.6,32.3-9.4,12.9-20.6,9.5-34.7,5.3s-31.4-9.6-56.2-3.2C583.6,521.4,561.5,525,545.3,525Z" style="fill: #b0b4ff"/>
    <path id="Neck" d="M564.8,429.5a6.8,6.8,0,0,1-4.7-11.5L691.5,287.5A6.7,6.7,0,0,1,701,297L569.5,427.5A6.7,6.7,0,0,1,564.8,429.5Z" style="fill: #ffc619"/>
    <path id="Ring" d="M544.1,510.9h-.2a45.6,45.6,0,0,1-32.4-13.5l-21.7-21.8A45.9,45.9,0,0,1,555,410.9l21.6,21.8a45.8,45.8,0,0,1-.2,64.9A45.4,45.4,0,0,1,544.1,510.9ZM522.4,410.7a32.6,32.6,0,0,0-23.1,55.4h0L521,487.9a31.9,31.9,0,0,0,23,9.6h.1a32.4,32.4,0,0,0,23-55.4l-21.6-21.8A32.5,32.5,0,0,0,522.4,410.7Z" style="fill: #ffc619"/>
    <g id="Rounds">
      <path id="_4-3" data-name="4" d="M710.9,282.9a5.6,5.6,0,0,0-.4-1.2l-.6-1.2-.8-1-1.1-.8a4.1,4.1,0,0,0-1.1-.7l-1.3-.4a11.3,11.3,0,0,0-2.6,0l-1.3.4a4.1,4.1,0,0,0-1.1.7,3.9,3.9,0,0,0-1,.8l-.9,1-.6,1.2c-.1.4-.3.8-.4,1.2s-.1.9-.1,1.3.1.9.1,1.3.3.9.4,1.3l.6,1.2.9,1a7.2,7.2,0,0,0,2.1,1.4l1.3.4h2.6l1.3-.4a3.9,3.9,0,0,0,1.1-.6l1.1-.8.8-1,.6-1.2a5,5,0,0,0,.4-1.3,5.3,5.3,0,0,0,.1-1.3A5.7,5.7,0,0,0,710.9,282.9Z" style="fill: #ffc619"/>
      <path id="_3-3" data-name="3" d="M579.6,401a6.8,6.8,0,0,0-9.5,0,6.7,6.7,0,0,0-1.6,6.7l-3.2-3.2a6.7,6.7,0,0,0-9.5,9.5l17.7,17.8a7.1,7.1,0,0,0,4.8,2,6.7,6.7,0,0,0,4.7-2,6.6,6.6,0,0,0,.1-9.4l-3.2-3.2a6.9,6.9,0,0,0,2,.3,6.6,6.6,0,0,0,4.7-1.9,6.7,6.7,0,0,0,.1-9.5Z" style="fill: #ffc619"/>
      <path id="_2-3" data-name="2" d="M635.2,345.9a6.7,6.7,0,0,0-9.6,9.4l7.1,7.1a6.7,6.7,0,0,0,4.7,2,6.9,6.9,0,0,0,4.8-2,6.6,6.6,0,0,0,0-9.4Z" style="fill: #ffc619"/>
      <path id="_1-3" data-name="1" d="M501.1,497.3a7.8,7.8,0,0,1-2.2-.3,8.3,8.3,0,0,1-2.1-.6l-2-1a10.7,10.7,0,0,1-1.6-1.4,7.5,7.5,0,0,1-1.4-1.7l-1.1-1.9a16.6,16.6,0,0,1-.6-2.1,18,18,0,0,1-.2-2.2,16.4,16.4,0,0,1,.2-2.2,16.6,16.6,0,0,1,.6-2.1,11.8,11.8,0,0,1,1.1-1.9,7.5,7.5,0,0,1,1.4-1.7,10.7,10.7,0,0,1,1.6-1.4l2-1,2.1-.7a10.4,10.4,0,0,1,4.3,0l2.1.7,2,1,1.7,1.4a10.9,10.9,0,0,1,1.3,1.7,7.2,7.2,0,0,1,1.1,1.9,8.3,8.3,0,0,1,.6,2.1,8.2,8.2,0,0,1,.2,2.2,8.6,8.6,0,0,1-.2,2.2,8.3,8.3,0,0,1-.6,2.1,9.3,9.3,0,0,1-1.1,1.9A10.9,10.9,0,0,1,509,494l-1.7,1.4-2,1a8.3,8.3,0,0,1-2.1.6A7.6,7.6,0,0,1,501.1,497.3Z" style="fill: #ffc619"/>
    </g>
    <path id="CLyde-2" data-name="CLyde" d="M660.8,319.5a46.9,46.9,0,0,0,11.7-6.2c-.3-1.2-.7-2.3-1.1-3.5a46.5,46.5,0,0,0,9.9-9.9,24.2,24.2,0,0,0,3.5,1.2,50.7,50.7,0,0,0,6.3-11.7c-2.7-14.1-9.3-23.8-18.1-31.2a53.9,53.9,0,0,0-16.6,5.4,42.9,42.9,0,0,0,1.4,6.2,39.9,39.9,0,0,1,5.5-1.9c-.1.5-.1,1.1-.2,1.6A36.8,36.8,0,0,0,641,291.4l-1.6.2a36.2,36.2,0,0,1,2-5.5,44.7,44.7,0,0,0-6.1-1.4,50.4,50.4,0,0,0-5.6,16.5A51.1,51.1,0,0,0,660.8,319.5Zm2.7-42a6.2,6.2,0,0,1,8.7,8.7c-2.2,2.2-5.9,2-8.3-.5S661.3,279.7,663.5,277.5ZM649,291.9a6.2,6.2,0,0,1,8.7,8.7c-2.2,2.2-5.9,2-8.3-.5S646.8,294.1,649,291.9Z" style="fill: #ffc619"/>
    <g id="Shadows">
      <rect id="_6-3" data-name="6" x="699.7" y="283.9" width="1.1" height="8.6" transform="translate(-0.3 575.7) rotate(-44.7)" style="fill: #ea882f"/>
      <rect id="_5-3" data-name="5" x="638.4" y="342.5" width="1.1" height="13.4" transform="translate(-60.8 550.5) rotate(-44.7)" style="fill: #ea882f"/>
      <polygon id="_4-4" data-name="4" points="623.8 354.7 633.2 364.2 634 363.4 624.6 353.9 623.8 354.7" style="fill: #ea882f"/>
      <polygon id="_3-4" data-name="3" points="578.3 400 587.7 409.5 588.5 408.7 579.1 399.2 578.3 400" style="fill: #ea882f"/>
      <rect id="_2-4" data-name="2" x="574" y="403.4" width="1.1" height="19.35" transform="translate(-124.2 524.4) rotate(-44.8)" style="fill: #ea882f"/>
      <rect id="_1-4" data-name="1" x="565.6" y="403.5" width="1.1" height="35.88" transform="translate(-132.5 521.9) rotate(-44.8)" style="fill: #ea882f"/>
    </g>
    <g id="Highlights">
      <path id="_3-5" data-name="3" d="M625.6,364.1,606,383.6a1.6,1.6,0,0,0,0,2.4,1.7,1.7,0,0,0,1.2.5,1.6,1.6,0,0,0,1.1-.5l19.6-19.5a1.6,1.6,0,0,0,0-2.4A1.7,1.7,0,0,0,625.6,364.1Z" style="fill: #ffe75c"/>
      <path id="_2-5" data-name="2" d="M698.6,294a1.8,1.8,0,0,0-2.4,0l-34.5,34.4a1.6,1.6,0,0,0,0,2.4,1.6,1.6,0,0,0,1.1.5,1.7,1.7,0,0,0,1.2-.5l34.6-34.4A1.8,1.8,0,0,0,698.6,294Z" style="fill: #ffe75c"/>
      <path id="_1-5" data-name="1" d="M580.1,480.1a1.6,1.6,0,0,0-2.1,1,33.6,33.6,0,0,1-13.7,15.6c-10.3,6-18.8,5.8-18.9,5.8a1.6,1.6,0,0,0-1.7,1.6,1.7,1.7,0,0,0,1.6,1.7h.3c1.6,0,10.1-.3,20.4-6.3a35.2,35.2,0,0,0,15.1-17.3A1.6,1.6,0,0,0,580.1,480.1Z" style="fill: #ffe75c"/>
    </g>
    <path id="String_end" data-name="String end" d="M502.5,501.1a2.6,2.6,0,0,1-2.4-1.3,35.3,35.3,0,0,1-3.5-9.5,2.8,2.8,0,0,1,2.1-3.4A2.8,2.8,0,0,1,502,489a32.4,32.4,0,0,0,2.9,7.9,2.8,2.8,0,0,1-1,3.8A2.3,2.3,0,0,1,502.5,501.1Z" style="fill: #b0b4ff"/>
  </g>
</svg>
